<svg width="672" height="509" viewBox="0 0 672 509" fill="none" xmlns="http://www.w3.org/2000/svg">
<path fill-rule="evenodd" clip-rule="evenodd" d="M647.089 430.685C647.089 444.083 657.95 454.945 671.349 454.945L671.349 508.801L613.61 508.801C613.61 495.403 602.749 484.541 589.351 484.541C575.952 484.541 565.091 495.403 565.091 508.801L529.186 508.801C529.186 495.403 518.325 484.541 504.926 484.541C491.528 484.541 480.667 495.403 480.667 508.801H444.762C444.762 495.403 433.901 484.541 420.502 484.541C407.104 484.541 396.243 495.403 396.243 508.801H360.338C360.338 495.403 349.477 484.541 336.078 484.541C322.68 484.541 311.819 495.403 311.819 508.801L275.914 508.801C275.914 495.403 265.053 484.541 251.654 484.541C238.256 484.541 227.394 495.403 227.394 508.801L191.49 508.801C191.49 495.403 180.629 484.541 167.23 484.541C153.832 484.541 142.97 495.403 142.97 508.801H107.066C107.066 495.403 96.2045 484.541 82.8062 484.541C69.4078 484.541 58.5463 495.403 58.5463 508.801L0.322815 508.801L0.322876 455.915C13.7212 455.915 24.5826 445.053 24.5826 431.655C24.5826 418.257 13.7212 407.395 0.322876 407.395V367.609C13.7212 367.609 24.5826 356.748 24.5826 343.35C24.5826 329.951 13.7212 319.09 0.322876 319.09V279.304C13.7212 279.304 24.5826 268.442 24.5826 255.044C24.5826 241.646 13.7212 230.784 0.322876 230.784V190.998C13.7212 190.998 24.5826 180.137 24.5826 166.738C24.5826 153.34 13.7212 142.478 0.322876 142.478V102.692C13.7212 102.692 24.5826 91.8309 24.5826 78.4326C24.5826 65.0343 13.7212 54.1728 0.322876 54.1728L0.322815 0.80127L58.5463 0.80127C58.5463 14.1996 69.4078 25.0611 82.8062 25.0611C96.2045 25.0611 107.066 14.1996 107.066 0.80127L142.97 0.80127C142.97 14.1996 153.832 25.0611 167.23 25.0611C180.629 25.0611 191.49 14.1996 191.49 0.80127L227.394 0.80127C227.394 14.1996 238.256 25.0611 251.654 25.0611C265.053 25.0611 275.914 14.1996 275.914 0.80127L311.819 0.80127C311.819 14.1996 322.68 25.0611 336.078 25.0611C349.477 25.0611 360.338 14.1996 360.338 0.80127L396.243 0.80127C396.243 14.1996 407.104 25.0611 420.502 25.0611C433.901 25.0611 444.762 14.1996 444.762 0.80127L480.667 0.80127C480.667 14.1996 491.528 25.0611 504.926 25.0611C518.325 25.0611 529.186 14.1996 529.186 0.80127L565.091 0.80127C565.091 14.1996 575.952 25.0611 589.351 25.0611C602.749 25.0611 613.61 14.1996 613.61 0.80127L671.349 0.80127V53.2024C657.95 53.2024 647.089 64.0639 647.089 77.4622C647.089 90.8605 657.95 101.722 671.349 101.722L671.349 141.508C657.95 141.508 647.089 152.37 647.089 165.768C647.089 179.166 657.95 190.028 671.349 190.028V229.814C657.95 229.814 647.089 240.675 647.089 254.073C647.089 267.472 657.95 278.333 671.349 278.333L671.349 318.119C657.95 318.119 647.089 328.981 647.089 342.379C647.089 355.777 657.95 366.639 671.349 366.639V406.425C657.95 406.425 647.089 417.286 647.089 430.685Z" fill="#FDF8E7"/>
<mask id="mask0_502_108" style="mask-type:alpha" maskUnits="userSpaceOnUse" x="58" y="54" width="556" height="402">
<rect x="58.0605" y="455.429" width="400.772" height="555.549" transform="rotate(-90 58.0605 455.429)" fill="#4C8F9D"/>
</mask>
<g mask="url(#mask0_502_108)">
<path d="M58.0605 455.429L58.0605 54.6577L613.61 54.6577V455.429L58.0605 455.429Z" fill="#35899A"/>
<path d="M201.804 27.9071C197.996 34.6909 280.523 140.199 396.841 149.776C549.106 162.333 671.387 3.24596 669.878 0.825072C668.585 -1.24998 560.814 133.027 424.14 138.906C288.711 144.732 205.828 20.6977 201.804 27.9071Z" fill="#E5DAA0"/>
<path d="M-100.472 15.2921C-104.28 22.076 -21.7533 127.584 94.5646 137.161C246.829 149.718 369.11 -9.36903 367.601 -11.7899C366.308 -13.865 258.538 120.412 121.864 126.291C-13.5652 132.117 -96.4488 8.08267 -100.472 15.2921Z" fill="#116739"/>
<path d="M71.2867 -3.14536C67.4789 3.63845 150.005 109.147 266.323 118.724C418.588 131.281 540.869 -27.8065 539.36 -30.2274C538.067 -32.3025 430.297 101.974 293.622 107.853C158.194 113.68 75.31 -10.3548 71.2867 -3.14536Z" fill="#E5DAA0" fill-opacity="0.7"/>
<path d="M367.742 40.037C363.934 46.8208 446.461 152.329 562.778 161.906C715.043 174.463 837.324 15.3758 835.815 12.955C834.522 10.8799 726.752 145.157 590.078 151.036C454.649 156.862 371.765 32.8275 367.742 40.037Z" fill="#91D7A8"/>
<path d="M-350.96 199.5L-328.586 214.24C-306.296 229.256 -261.297 258.32 -216.884 251.193C-172.22 243.788 -127.221 199.5 -82.8084 195.833C-38.1444 191.888 6.85477 229.256 51.2674 236.384C95.9314 243.788 140.931 221.644 185.343 214.24C230.007 207.112 275.006 214.032 319.419 225.312C364.083 236.176 409.082 251.4 453.495 236.384C498.159 221.644 543.158 177.356 587.57 181.024C632.234 184.968 677.234 236.176 721.646 258.528C766.31 280.465 811.309 273.545 833.097 269.6L855.722 265.933V354.509H833.348C811.058 354.509 766.059 354.509 721.646 354.509C676.982 354.509 631.983 354.509 587.57 354.509C542.907 354.509 497.907 354.509 453.495 354.509C408.831 354.509 363.832 354.509 319.419 354.509C274.755 354.509 229.756 354.509 185.343 354.509C140.679 354.509 95.68 354.509 51.2674 354.509C6.60338 354.509 -38.3958 354.509 -82.8084 354.509C-127.472 354.509 -172.472 354.509 -216.884 354.509C-261.548 354.509 -306.547 354.509 -328.335 354.509H-350.96V199.5Z" fill="#4A9FB0"/>
<path d="M136.779 314.041C132.071 309.341 129.175 301.649 125.888 296.232C127.711 299.234 127.879 306.051 128.669 309.579C129.596 313.703 129.29 317.52 127.447 321.534C123.203 330.817 112.913 337.336 102.202 337.525C100.97 337.545 99.6637 337.465 98.6631 336.799C96.6831 335.467 96.9359 332.506 98.284 330.588C99.6321 328.67 101.728 327.348 103.245 325.559C104.761 323.771 105.562 321.018 104.013 319.249C101.686 318.662 99.274 320.054 97.7363 321.803C96.1986 323.552 95.2191 325.689 93.6604 327.428C90.901 330.518 86.3406 332.079 82.1173 331.383C77.8939 330.687 74.1761 327.756 72.6805 323.959C84.2974 322.011 94.7452 314.638 99.9902 304.67C101.033 302.682 101.686 299.88 99.7901 298.588C97.8627 297.276 95.2402 298.796 93.4287 300.257C88.5839 304.173 83.7497 308.098 78.905 312.014C74.629 315.472 69.6157 319.159 64.0232 318.493C60.3264 318.046 57.2195 315.751 54.4285 313.415C47.1087 307.293 40.5894 300.317 35.06 292.695C51.0266 303.149 74.4289 301.996 89.1632 290.051C91.1222 288.471 93.0811 286.185 92.3439 283.86C91.5329 281.335 87.9204 280.57 85.2979 281.485C82.6755 282.399 80.6954 284.416 78.431 285.967C72.354 290.131 64.0969 290.856 56.893 288.858C49.6891 286.861 43.4646 282.379 38.5145 277.052C30.6682 268.625 25.5917 256.828 29.1199 246.115C38.7462 260.098 57.883 267.621 75.1766 264.212C78.4942 263.556 82.4122 261.668 82.1805 258.478C81.9593 255.477 78.2415 254.036 75.1556 253.271C64.8658 250.727 54.2284 248.013 46.0028 241.643C37.7773 235.273 32.6798 224.142 36.9242 214.94C42.6958 223.715 50.8792 231.059 60.4633 236.058C64.8447 238.344 69.9633 240.182 74.7975 238.92C79.6317 237.658 83.2758 232.003 80.6112 227.998C79.3473 226.11 77.0829 225.057 74.8501 224.321C70.1528 222.781 65.1396 222.254 60.4423 220.714C55.745 219.173 51.1425 216.301 49.4889 211.879C47.056 205.32 51.8587 198.512 56.3558 193.007C60.853 187.501 65.5714 180.604 62.9594 174.105C73.0808 171.123 84.9714 174.602 91.5224 182.473C98.0733 190.343 98.8316 202.07 93.355 210.637C91.4487 213.608 88.8367 216.321 88.11 219.73C87.3833 223.139 89.7951 227.472 93.4603 227.124C95.1454 226.965 96.5567 225.882 97.7784 224.769C110.512 213.191 113.545 193.245 104.772 178.756C114.598 183.794 119.991 194.527 120.865 205.052C121.739 215.576 118.779 226.021 115.472 236.108C114.914 237.807 114.335 239.586 114.661 241.345C114.988 243.104 116.536 244.794 118.421 244.704C119.822 244.635 120.959 243.661 121.939 242.717C135.294 229.767 142.224 211.154 140.381 193.176C145.141 198.175 149.891 203.283 153.177 209.245C156.474 215.208 158.211 222.175 156.611 228.714C154.746 236.346 148.722 242.329 143.403 248.341C138.085 254.344 132.998 261.479 133.63 269.281C150.618 255.04 165.552 238.632 177.906 220.644C184.247 231.407 183.257 245.072 177.654 256.192C172.061 267.313 162.382 276.188 151.882 283.492C162.256 283.492 172.43 278.016 177.717 269.599C180.013 274.657 180.971 280.441 179.286 285.708C177.601 290.975 172.925 295.567 167.164 296.391C164.299 296.799 160.76 296.58 159.212 298.886C157.537 301.39 160.086 304.859 163.161 305.455C166.237 306.051 169.323 304.759 172.166 303.507C173.851 311.11 167.311 318.901 159.317 320.72C152.071 322.359 144.193 319.875 138.495 315.562C137.885 315.095 137.305 314.588 136.747 314.031L136.779 314.041Z" fill="#EFBA6B"/>
<path d="M159.343 266.688C159.343 273.253 158.177 286.339 152.55 286.339C141.028 281.002 140.058 274.466 140.058 267.901C140.058 261.336 143.526 254.801 149.154 254.801C154.781 254.801 159.343 260.123 159.343 266.688Z" fill="#78C898"/>
<path d="M173.536 266.446C173.536 273.011 168.975 278.333 163.347 278.333C157.72 278.333 153.158 273.011 153.158 266.446C153.158 259.88 157.72 254.558 163.347 254.558C168.975 254.558 173.536 259.88 173.536 266.446Z" fill="#78C898"/>
<path d="M254.079 222.293C254.079 236.093 246.476 247.28 237.097 247.28C227.718 247.28 220.115 236.093 220.115 222.293C220.115 208.492 227.718 197.305 237.097 197.305C246.476 197.305 254.079 208.492 254.079 222.293Z" fill="#78C898"/>
<ellipse cx="266.208" cy="220.352" rx="16.9819" ry="24.9876" fill="#78C898"/>
<path d="M249.711 223.263C249.711 233.312 244.607 241.458 238.309 241.458C232.012 241.458 226.907 233.312 226.907 223.263C226.907 213.214 232.012 205.068 238.309 205.068C244.607 205.068 249.711 213.214 249.711 223.263Z" fill="white"/>
<path d="M279.794 221.323C279.794 231.371 274.69 239.517 268.392 239.517C262.095 239.517 256.99 231.371 256.99 221.323C256.99 211.274 262.095 203.128 268.392 203.128C274.69 203.128 279.794 211.274 279.794 221.323Z" fill="white"/>
<path d="M178.483 261.749L224.576 236.519L273.581 219.78C375.472 196.248 463.151 220.464 531.463 313.665C530.322 322.837 160.53 298.624 152.767 293.772C145.005 288.92 141.751 284.291 141.123 276.79C139.838 268.702 152.074 261.949 152.767 261.749C153.461 261.55 178.483 261.749 178.483 261.749Z" fill="#78C898"/>
<path d="M249.711 223.263C249.711 233.312 244.607 241.458 238.309 241.458C232.012 241.458 226.907 233.312 226.907 223.263C226.907 213.214 232.012 205.068 238.309 205.068C244.607 205.068 249.711 213.214 249.711 223.263Z" fill="white"/>
<path d="M279.794 221.323C279.794 231.371 274.69 239.517 268.392 239.517C262.095 239.517 256.99 231.371 256.99 221.323C256.99 211.274 262.095 203.128 268.392 203.128C274.69 203.128 279.794 211.274 279.794 221.323Z" fill="white"/>
<path d="M249.712 223.263C249.712 231.704 245.584 238.547 240.493 238.547C235.402 238.547 231.274 231.704 231.274 223.263C231.274 214.822 235.402 207.979 240.493 207.979C245.584 207.979 249.712 214.822 249.712 223.263Z" fill="#464646"/>
<path d="M249.712 223.263C249.712 231.704 245.584 238.547 240.493 238.547C235.402 238.547 231.274 231.704 231.274 223.263C231.274 214.822 235.402 207.979 240.493 207.979C245.584 207.979 249.712 214.822 249.712 223.263Z" fill="#464646"/>
<path d="M249.712 223.263C249.712 231.704 245.584 238.547 240.493 238.547C235.402 238.547 231.274 231.704 231.274 223.263C231.274 214.822 235.402 207.979 240.493 207.979C245.584 207.979 249.712 214.822 249.712 223.263Z" fill="#464646"/>
<path d="M167.228 264.965C167.228 267.511 165.165 269.574 162.619 269.574C160.073 269.574 158.01 267.511 158.01 264.965C158.01 262.419 160.073 260.356 162.619 260.356C165.165 260.356 167.228 262.419 167.228 264.965Z" fill="#464646"/>
<path d="M167.228 264.965C167.228 267.511 165.165 269.574 162.619 269.574C160.073 269.574 158.01 267.511 158.01 264.965C158.01 262.419 160.073 260.356 162.619 260.356C165.165 260.356 167.228 262.419 167.228 264.965Z" fill="#464646"/>
<path d="M167.228 264.965C167.228 267.511 165.165 269.574 162.619 269.574C160.073 269.574 158.01 267.511 158.01 264.965C158.01 262.419 160.073 260.356 162.619 260.356C165.165 260.356 167.228 262.419 167.228 264.965Z" fill="#3A7157"/>
<path d="M154.613 264.99C154.613 267.536 152.55 269.599 150.004 269.599C147.458 269.599 145.395 267.536 145.395 264.99C145.395 262.444 147.458 260.381 150.004 260.381C152.55 260.381 154.613 262.444 154.613 264.99Z" fill="#464646"/>
<path d="M154.613 264.99C154.613 267.536 152.55 269.599 150.004 269.599C147.458 269.599 145.395 267.536 145.395 264.99C145.395 262.444 147.458 260.381 150.004 260.381C152.55 260.381 154.613 262.444 154.613 264.99Z" fill="#464646"/>
<path d="M154.613 264.99C154.613 267.536 152.55 269.599 150.004 269.599C147.458 269.599 145.395 267.536 145.395 264.99C145.395 262.444 147.458 260.381 150.004 260.381C152.55 260.381 154.613 262.444 154.613 264.99Z" fill="#3A7157"/>
<path d="M279.794 221.565C279.794 230.006 275.667 236.849 270.575 236.849C265.484 236.849 261.356 230.006 261.356 221.565C261.356 213.124 265.484 206.281 270.575 206.281C275.667 206.281 279.794 213.124 279.794 221.565Z" fill="#464646"/>
<path d="M279.794 221.565C279.794 230.006 275.667 236.849 270.575 236.849C265.484 236.849 261.356 230.006 261.356 221.565C261.356 213.124 265.484 206.281 270.575 206.281C275.667 206.281 279.794 213.124 279.794 221.565Z" fill="#464646"/>
<path d="M279.794 221.565C279.794 230.006 275.667 236.849 270.575 236.849C265.484 236.849 261.356 230.006 261.356 221.565C261.356 213.124 265.484 206.281 270.575 206.281C275.667 206.281 279.794 213.124 279.794 221.565Z" fill="#464646"/>
<path d="M338.017 191.483L356.926 230.42H319.109L338.017 191.483Z" fill="#78C898"/>
<path d="M354.029 193.424L372.938 232.361H335.12L354.029 193.424Z" fill="#78C898"/>
<path d="M369.07 195.365L387.979 234.301H350.162L369.07 195.365Z" fill="#78C898"/>
<path d="M383.626 198.761L402.534 237.698H364.717L383.626 198.761Z" fill="#78C898"/>
<path d="M397.696 203.128L416.605 242.065H378.787L397.696 203.128Z" fill="#78C898"/>
<path d="M410.797 206.524L429.705 245.461H391.888L410.797 206.524Z" fill="#78C898"/>
<path d="M424.868 214.287L443.777 253.224H405.959L424.868 214.287Z" fill="#78C898"/>
<mask id="mask1_502_108" style="mask-type:alpha" maskUnits="userSpaceOnUse" x="141" y="211" width="391" height="105">
<path d="M178.483 261.749L224.576 236.519L273.581 219.78C375.472 196.248 463.151 220.464 531.463 313.665C530.322 322.837 160.53 298.624 152.767 293.772C145.005 288.92 141.751 284.291 141.123 276.79C139.838 268.702 152.074 261.949 152.767 261.749C153.461 261.55 178.483 261.749 178.483 261.749Z" fill="#78C898"/>
</mask>
<g mask="url(#mask1_502_108)">
<path d="M322.492 262.807C330.009 284.71 329.428 295.348 322.492 312.297" stroke="#C0D98E" stroke-width="20" stroke-linecap="round"/>
<path d="M390.904 272.996C398.421 294.899 397.84 305.537 390.904 322.486" stroke="#C0D98E" stroke-width="20" stroke-linecap="round"/>
<path d="M357.425 263.777C364.943 285.68 364.362 296.319 357.425 313.267" stroke="#C0D98E" stroke-width="20" stroke-linecap="round"/>
</g>
<path d="M302.598 194.394L321.507 233.331H283.69L302.598 194.394Z" fill="#78C898"/>
<path d="M320.551 191.483L339.459 230.42H301.642L320.551 191.483Z" fill="#78C898"/>
<path d="M-349.02 277.363L-326.646 288.989C-304.356 300.834 -259.356 323.76 -214.944 318.138C-170.28 312.297 -125.281 277.363 -80.868 274.47C-36.204 271.359 8.7952 300.834 53.2078 306.457C97.8718 312.297 142.871 294.83 187.284 288.989C231.948 283.367 276.947 288.826 321.359 297.723C366.023 306.293 411.023 318.301 455.435 306.457C500.099 294.83 545.098 259.896 589.511 262.789C634.175 265.9 679.174 306.293 723.587 323.924C768.251 341.227 813.25 335.768 835.037 332.657L857.662 329.764V399.632H835.289C812.999 399.632 767.999 399.632 723.587 399.632C678.923 399.632 633.924 399.632 589.511 399.632C544.847 399.632 499.848 399.632 455.435 399.632C410.771 399.632 365.772 399.632 321.359 399.632C276.695 399.632 231.696 399.632 187.284 399.632C142.62 399.632 97.6204 399.632 53.2078 399.632C8.54381 399.632 -36.4554 399.632 -80.868 399.632C-125.532 399.632 -170.531 399.632 -214.944 399.632C-259.608 399.632 -304.607 399.632 -326.394 399.632H-349.02V277.363Z" fill="#52ACBE"/>
<path d="M-349.02 340.692L-326.646 355.432C-304.356 370.449 -259.356 399.513 -214.944 392.385C-170.28 384.981 -125.281 340.692 -80.868 337.025C-36.204 333.08 8.7952 370.449 53.2078 377.576C97.8718 384.981 142.871 362.836 187.284 355.432C231.948 348.304 276.947 355.224 321.359 366.504C366.023 377.369 411.023 392.593 455.435 377.576C500.099 362.836 545.098 318.548 589.511 322.216C634.175 326.16 679.174 377.369 723.587 399.72C768.251 421.657 813.25 414.737 835.037 410.792L857.662 407.125V495.701H835.289C812.999 495.701 767.999 495.701 723.587 495.701C678.923 495.701 633.924 495.701 589.511 495.701C544.847 495.701 499.848 495.701 455.435 495.701C410.771 495.701 365.772 495.701 321.359 495.701C276.695 495.701 231.696 495.701 187.284 495.701C142.62 495.701 97.6204 495.701 53.2078 495.701C8.54381 495.701 -36.4554 495.701 -80.868 495.701C-125.532 495.701 -170.531 495.701 -214.944 495.701C-259.608 495.701 -304.607 495.701 -326.394 495.701H-349.02V340.692Z" fill="#52ACBE"/>
<path d="M645.384 319.887C652.547 314.449 666.238 310.131 695.123 318.248L692.947 313.897C681.361 313.686 665.23 313.865 646.144 315.537C624.512 317.436 551.194 325.456 491.356 357.891C394.938 410.164 363.117 509.76 355.971 534.516C376.312 531.935 388.181 525.019 395.38 517.292C400.368 511.935 401.111 508.347 406.117 502.909C416.004 492.194 430.473 487.389 444.659 485.392L441.563 459.077C448.869 468.217 457.359 477.405 461.356 475.749C463.196 474.986 462.542 472.551 464.24 468.623C468.007 459.873 478.231 455.538 486.721 451.934C499.333 446.593 503.1 448.428 505.347 444.759C510.883 435.765 492.735 417.242 492.965 417.08C493.089 416.999 497.617 422.567 511.909 440.684L521.16 434.824C521.16 434.824 513.36 424.953 514.545 424.45C515.73 423.947 525.034 432.535 525.034 432.535L531.136 417.47L523.884 408.687L530.888 408.379L536.089 417.372L561.595 405.327L556.076 397.129L564.938 401.95L574.189 396.09L563.611 390.684L575.905 389.466L580.415 385.602C576.966 383.119 572.721 379.791 573.393 378.687C574.224 377.323 581.689 381.106 589.029 381.317C595.804 381.512 605.78 378.784 618.515 364.32C616.658 362.583 613.793 359.985 610.113 356.982C605.621 353.313 602.95 351.495 603.268 350.992C603.87 350.034 612.926 357.566 620.868 356.089C633.48 353.735 630.915 330.91 645.401 319.92L645.384 319.887Z" fill="#EFBA6B"/>
</g>
<path d="M120.727 370.69H127.489C128.189 370.69 128.539 370.543 128.539 370.25V370.128C128.539 369.966 128.23 368.444 127.611 365.563C126.993 362.682 126.627 360.9 126.513 360.216C126.415 359.533 126.342 359.191 126.293 359.191C126.26 359.191 126.122 359.411 125.878 359.85C125.65 360.29 125.463 360.656 125.316 360.949C125.17 361.242 125.04 361.486 124.926 361.681C121.752 367.117 120.165 370.055 120.165 370.495C120.165 370.625 120.352 370.69 120.727 370.69ZM128.734 374.376C128.409 374.149 126.7 374.035 123.607 374.035C120.531 374.035 118.725 374.238 118.188 374.645C117.65 375.036 117.056 375.882 116.405 377.184C115.771 378.486 115.453 379.487 115.453 380.187C115.453 380.887 115.632 381.627 115.99 382.409C116.348 383.19 116.527 383.613 116.527 383.678C116.527 384.28 116.145 384.663 115.38 384.826C114.843 384.94 113.207 384.997 110.473 384.997L108.251 385.021C107.079 385.021 106.493 384.728 106.493 384.142C106.493 383.361 107.152 382.588 108.471 381.823C109.789 381.058 110.684 380.277 111.156 379.479C111.645 378.681 113.533 375.337 116.82 369.445C120.108 363.537 121.809 360.46 121.923 360.216C122.053 359.956 122.46 358.963 123.144 357.238C123.843 355.496 124.332 354.398 124.608 353.942C125.65 352.217 126.863 351.354 128.246 351.354C128.816 351.354 129.361 351.696 129.882 352.379C130.419 353.063 131.013 354.609 131.664 357.018L132.25 359.801C132.494 360.989 132.698 361.933 132.86 362.633L134.081 368.371C134.569 370.617 135.074 373.001 135.595 375.524C136.116 378.03 136.425 379.43 136.522 379.723C136.864 380.732 137.353 381.375 137.987 381.652C139.094 382.14 139.647 382.661 139.647 383.214C139.647 384.044 139.46 384.549 139.086 384.728C138.712 384.907 137.084 384.997 134.203 384.997L131.42 385.021C129.141 385.021 128.002 384.679 128.002 383.996C128.002 383.735 128.075 383.483 128.222 383.239L128.539 382.799C128.946 382.295 129.158 382.026 129.174 381.994C129.646 381.164 129.882 380.081 129.882 378.747C129.882 376.37 129.499 374.914 128.734 374.376ZM154.735 381.75H155.907C155.94 381.75 155.972 381.75 156.005 381.75C157.714 381.75 159.358 381.334 160.937 380.504C164.257 378.779 166.592 375.801 167.943 371.569C168.676 369.29 169.042 367.02 169.042 364.757L169.018 364.391C169.018 361.396 168.228 359.069 166.649 357.409C165.087 355.749 162.67 354.918 159.398 354.918H159.008C158.096 354.918 157.486 354.967 157.177 355.065C156.558 355.26 156.111 355.806 155.834 356.701C155.574 357.596 155.053 360.403 154.271 365.124C153.507 369.844 153.075 372.415 152.978 372.838L152.221 377.135L151.708 380.382C151.708 380.985 151.92 381.367 152.343 381.53C152.782 381.676 153.58 381.75 154.735 381.75ZM147.021 353.185C147.021 352.567 147.436 352.127 148.266 351.867C148.591 351.769 150.78 351.72 154.833 351.72L158.471 351.647H160.326C167.585 351.647 172.224 354.088 174.242 358.971C174.942 360.631 175.292 362.381 175.292 364.22V365.441C175.292 368.224 174.641 370.975 173.339 373.693C170.849 378.917 166.934 382.376 161.596 384.069C159.561 384.72 156.973 385.045 153.832 385.045H153.246L152.611 385.021H151.366L150.17 384.997H148.949C145.092 384.997 143.098 384.988 142.968 384.972C142.235 384.891 141.869 384.516 141.869 383.849C141.869 383.442 142.593 382.783 144.042 381.872C144.888 381.334 145.482 380.472 145.824 379.284C146.166 378.079 146.703 375.296 147.436 370.934C148.168 366.572 148.738 363.252 149.145 360.973C149.568 358.694 149.779 357.246 149.779 356.627C149.779 355.993 149.462 355.472 148.827 355.065C147.623 354.284 147.021 353.657 147.021 353.185ZM202.221 352.917C202.221 352.07 204.035 351.647 207.665 351.647H208.471C210.294 351.647 211.376 351.728 211.718 351.891C212.076 352.054 212.255 352.379 212.255 352.868V353.429C212.255 353.576 211.376 354.259 209.618 355.48C208.756 356.082 207.925 357.051 207.128 358.385C206.998 358.613 206.037 360.355 204.247 363.61C202.457 366.849 200.154 370.942 197.338 375.89C194.522 380.838 193.057 383.385 192.943 383.532C192.016 384.687 190.966 385.265 189.794 385.265C189.029 385.265 188.451 384.598 188.061 383.263C188.044 383.214 187.157 379.056 185.399 370.788C183.658 362.519 182.657 358.011 182.396 357.262C182.136 356.497 181.542 355.7 180.614 354.87C179.703 354.04 179.247 353.584 179.247 353.502V352.917C179.247 352.07 179.988 351.647 181.469 351.647L182.299 351.671H184.765C187.336 351.671 188.874 351.728 189.379 351.842C190.518 352.103 191.088 352.518 191.088 353.087C191.088 353.332 190.754 353.828 190.087 354.577C189.42 355.309 189.086 355.928 189.086 356.432C189.086 359.199 190.209 365.636 192.455 375.744C192.553 376.183 192.691 376.403 192.87 376.403C193.065 376.403 194.075 374.767 195.897 371.496C201.024 362.332 203.588 357.254 203.588 356.261C203.588 355.74 203.474 355.236 203.246 354.748L202.953 354.308C202.465 353.738 202.221 353.275 202.221 352.917ZM222.924 364.708C223.575 365.278 224.291 365.563 225.072 365.563C225.87 365.563 226.887 365.319 228.124 364.831C229.361 364.326 230.191 364.074 230.614 364.074C231.037 364.074 231.404 364.31 231.713 364.782C232.022 365.237 232.177 365.693 232.177 366.149C232.177 367.516 231.762 369.046 230.932 370.739C230.59 371.439 230.256 371.789 229.931 371.789C229.166 371.789 228.279 371.422 227.27 370.69C226.26 369.958 225.455 369.591 224.853 369.591C222.851 369.591 221.589 370.063 221.068 371.007C220.271 372.456 219.872 374.881 219.872 378.283C219.872 379.357 220.019 380.106 220.312 380.529C220.621 380.936 221.337 381.139 222.46 381.139C225.097 381.139 227.058 380.936 228.344 380.529C229.63 380.122 230.907 379.414 232.177 378.405C233.446 377.396 234.276 376.891 234.667 376.891C235.188 376.891 235.448 377.298 235.448 378.112C235.448 380.309 235.041 381.986 234.228 383.141C233.43 384.297 232.144 384.875 230.37 384.875H226.391L225.365 384.85L220.092 384.826C213.663 384.826 210.375 384.809 210.229 384.777C209.594 384.63 209.276 384.313 209.276 383.825C209.276 383.32 210.066 382.58 211.645 381.603C212.556 381.033 213.174 380.114 213.5 378.844C213.646 378.242 214.281 374.678 215.404 368.151C216.544 361.608 217.113 358.117 217.113 357.677C217.113 357.238 216.755 356.408 216.039 355.187C215.339 353.95 214.989 353.136 214.989 352.746C214.989 352.16 215.583 351.802 216.771 351.671C216.918 351.655 220.238 351.647 226.732 351.647L235.058 351.598C236.148 351.598 236.905 351.785 237.328 352.16C238.174 352.892 238.598 353.755 238.598 354.748C238.598 355.74 238.459 356.53 238.183 357.116C237.711 358.109 237.182 358.605 236.596 358.605C236.498 358.605 235.79 358.182 234.472 357.335C233.153 356.489 232.421 356.042 232.274 355.993C231.314 355.618 230.118 355.431 228.686 355.431C226.423 355.431 224.983 355.936 224.364 356.945C223.127 358.947 222.509 361.144 222.509 363.537C222.509 364.074 222.647 364.464 222.924 364.708ZM245.604 355.187C244.823 354.601 244.433 353.991 244.433 353.356C244.433 352.705 244.595 352.29 244.921 352.111C245.539 351.785 246.508 351.623 247.826 351.623C249.161 351.623 250.438 351.972 251.659 352.672C252.896 353.356 253.979 354.267 254.906 355.407C255.134 355.7 256.965 359.004 260.399 365.319C263.85 371.634 265.665 374.792 265.844 374.792L266.137 374.352C266.283 373.994 266.747 371.593 267.528 367.15C268.31 362.69 268.7 359.313 268.7 357.018C268.7 356.465 268.529 355.903 268.188 355.333L267.626 354.723C267.17 354.186 266.942 353.82 266.942 353.625C266.942 352.957 267.268 352.461 267.919 352.135C268.57 351.793 270.1 351.623 272.509 351.623H274.804C276.138 351.623 276.806 351.932 276.806 352.55C276.806 353.169 276.391 353.844 275.561 354.577C274.047 355.911 273.201 356.798 273.021 357.238C272.859 357.661 271.98 362.43 270.385 371.544C268.806 380.643 267.756 385.192 267.235 385.192C265.771 385.192 264.403 384.297 263.134 382.506C262.646 381.823 260.521 377.982 256.762 370.983C253.002 363.984 251.033 360.485 250.854 360.485C250.512 360.485 250.292 360.639 250.194 360.949C250.097 361.242 249.584 364 248.656 369.225C247.745 374.433 247.289 377.86 247.289 379.503C247.289 380.187 247.631 380.952 248.314 381.798C248.998 382.628 249.34 383.239 249.34 383.629C249.34 384.183 248.819 384.557 247.777 384.752C247.517 384.801 246.003 384.826 243.236 384.826C240.469 384.826 239.086 384.525 239.086 383.922C239.086 383.011 239.46 382.295 240.209 381.774C241.885 380.602 242.813 379.772 242.992 379.284C243.188 378.795 243.863 375.239 245.019 368.615C246.19 361.99 246.776 358.247 246.776 357.384C246.776 356.505 246.386 355.773 245.604 355.187ZM288.28 355.065C285.204 355.065 282.958 356.172 281.542 358.385C280.631 359.818 279.833 360.534 279.149 360.534C278.466 360.534 278.124 360.241 278.124 359.655C278.124 359.053 278.368 357.71 278.856 355.626C279.345 353.543 279.727 352.355 280.004 352.062C280.297 351.753 280.907 351.598 281.835 351.598L282.592 351.623L299.34 351.647H305.614C306.77 351.777 307.348 352.217 307.348 352.965C307.348 356.058 306.973 358.32 306.225 359.752C305.899 360.371 305.647 360.68 305.468 360.68C304.817 360.68 304.328 360.436 304.003 359.948C303.905 359.801 303.726 359.297 303.466 358.434C303.205 357.571 302.839 356.929 302.367 356.505C301.309 355.561 300.202 355.089 299.047 355.089C297.908 355.089 297.134 355.228 296.728 355.504C296.337 355.781 296.044 356.237 295.849 356.872C295.653 357.49 295.271 359.427 294.701 362.682C294.148 365.937 293.578 369.127 292.992 372.252C292.406 375.377 292.113 377.461 292.113 378.502C292.113 379.544 292.39 380.407 292.943 381.09C294.229 382.702 294.872 383.54 294.872 383.605C294.872 384.223 294.498 384.606 293.749 384.752C293.586 384.785 291.487 384.801 287.45 384.801L283.397 384.85C281.884 384.85 281.127 384.598 281.127 384.093C281.127 383.589 281.998 382.726 283.739 381.505C284.813 380.74 285.53 379.739 285.888 378.502C286.262 377.265 286.994 373.441 288.085 367.028C289.192 360.615 289.745 357.278 289.745 357.018C289.745 355.716 289.257 355.065 288.28 355.065ZM315.917 375.231C315.917 379.381 318.293 381.457 323.046 381.457C324.608 381.457 326.008 381.001 327.245 380.089C328.498 379.178 329.434 378.055 330.053 376.72C330.688 375.369 331.485 372.236 332.445 367.321C333.406 362.405 333.886 358.743 333.886 356.334C333.886 355.651 333.495 355.016 332.714 354.43C331.933 353.828 331.542 353.218 331.542 352.599C331.542 351.981 333.292 351.671 336.791 351.671C340.29 351.671 342.04 351.842 342.04 352.184C342.04 353.307 341.584 354.153 340.673 354.723C339.273 355.602 338.41 356.546 338.085 357.555C337.906 358.092 337.287 361.307 336.229 367.199C335.172 373.091 334.065 377.054 332.909 379.088C331.754 381.123 330.134 382.685 328.051 383.776C325.984 384.85 323.795 385.387 321.483 385.387H320.458C317.138 385.387 314.542 384.541 312.67 382.848C310.814 381.155 309.887 378.917 309.887 376.134V375.207C309.887 374.165 310.351 370.975 311.278 365.636C312.222 360.281 312.694 357.222 312.694 356.457C312.694 356.001 312.247 355.496 311.352 354.943C310.456 354.389 310.009 353.869 310.009 353.38C310.009 352.225 310.725 351.647 312.157 351.647H313.109L314.062 351.671L318.578 351.647C320.092 351.647 321.093 351.793 321.581 352.086C322.069 352.379 322.313 352.672 322.313 352.965C322.313 353.242 321.752 353.852 320.629 354.796C319.945 355.366 319.343 356.424 318.822 357.97C318.318 359.5 317.707 362.405 316.991 366.686C316.275 370.967 315.917 373.815 315.917 375.231ZM352.44 366.051V366.369C352.44 366.889 352.969 367.15 354.027 367.15H355.932C357.966 367.15 359.716 366.483 361.181 365.148C362.646 363.813 363.378 362.088 363.378 359.972V359.557C363.378 358.174 362.898 357.051 361.938 356.188C360.993 355.325 359.7 354.894 358.056 354.894H356.64C355.37 354.894 354.573 355.325 354.247 356.188C354.215 356.269 353.905 357.873 353.319 360.998C352.733 364.123 352.44 365.807 352.44 366.051ZM358.666 351.647C363.598 351.647 366.853 352.99 368.432 355.675C369.05 356.75 369.359 357.995 369.359 359.411C369.343 363.024 367.545 366.019 363.964 368.395C362.434 369.404 361.669 370.194 361.669 370.763C361.669 371.333 361.921 372.163 362.426 373.253C364.005 376.769 364.908 378.706 365.136 379.064C365.673 379.894 366.592 380.626 367.895 381.261C369.213 381.88 369.872 382.547 369.872 383.263C369.872 383.979 369.433 384.443 368.554 384.655C367.919 384.801 366.34 384.875 363.817 384.875C362.662 384.875 361.726 384.386 361.01 383.41C360.294 382.417 359.659 381.253 359.105 379.918C358.552 378.568 357.95 377.038 357.299 375.329C356.648 373.603 356.249 372.594 356.103 372.301C355.517 371.146 354.564 370.568 353.246 370.568C352.416 370.568 351.887 370.804 351.659 371.276C350.78 373.034 350.341 375.353 350.341 378.234C350.341 379.194 350.504 380.008 350.829 380.675C351.155 381.326 351.521 381.937 351.928 382.506C352.335 383.06 352.538 383.54 352.538 383.947C352.538 384.614 350.365 384.948 346.02 384.948L342.797 384.997L341.942 385.021H341.186C340.518 385.021 340.185 384.842 340.185 384.484C340.185 383.654 340.811 382.783 342.064 381.872C343.334 380.944 344.058 380.097 344.237 379.333C344.416 378.551 345.067 374.824 346.19 368.151C347.33 361.478 347.899 357.767 347.899 357.018C347.899 356.269 347.68 355.651 347.24 355.163C347.159 355.081 346.833 354.821 346.264 354.381C345.71 353.942 345.434 353.551 345.434 353.209C345.434 352.558 345.873 352.135 346.752 351.94C347.191 351.842 348.502 351.793 350.683 351.793L357.03 351.647H358.666ZM385.863 364.708C386.514 365.278 387.23 365.563 388.012 365.563C388.809 365.563 389.826 365.319 391.063 364.831C392.3 364.326 393.131 364.074 393.554 364.074C393.977 364.074 394.343 364.31 394.652 364.782C394.962 365.237 395.116 365.693 395.116 366.149C395.116 367.516 394.701 369.046 393.871 370.739C393.529 371.439 393.196 371.789 392.87 371.789C392.105 371.789 391.218 371.422 390.209 370.69C389.2 369.958 388.394 369.591 387.792 369.591C385.79 369.591 384.529 370.063 384.008 371.007C383.21 372.456 382.812 374.881 382.812 378.283C382.812 379.357 382.958 380.106 383.251 380.529C383.56 380.936 384.276 381.139 385.399 381.139C388.036 381.139 389.997 380.936 391.283 380.529C392.569 380.122 393.847 379.414 395.116 378.405C396.386 377.396 397.216 376.891 397.606 376.891C398.127 376.891 398.388 377.298 398.388 378.112C398.388 380.309 397.981 381.986 397.167 383.141C396.369 384.297 395.084 384.875 393.31 384.875H389.33L388.305 384.85L383.031 384.826C376.602 384.826 373.314 384.809 373.168 384.777C372.533 384.63 372.216 384.313 372.216 383.825C372.216 383.32 373.005 382.58 374.584 381.603C375.495 381.033 376.114 380.114 376.439 378.844C376.586 378.242 377.221 374.678 378.344 368.151C379.483 361.608 380.053 358.117 380.053 357.677C380.053 357.238 379.695 356.408 378.979 355.187C378.279 353.95 377.929 353.136 377.929 352.746C377.929 352.16 378.523 351.802 379.711 351.671C379.857 351.655 383.178 351.647 389.672 351.647L397.997 351.598C399.088 351.598 399.844 351.785 400.268 352.16C401.114 352.892 401.537 353.755 401.537 354.748C401.537 355.74 401.399 356.53 401.122 357.116C400.65 358.109 400.121 358.605 399.535 358.605C399.438 358.605 398.729 358.182 397.411 357.335C396.093 356.489 395.36 356.042 395.214 355.993C394.254 355.618 393.057 355.431 391.625 355.431C389.363 355.431 387.922 355.936 387.304 356.945C386.067 358.947 385.448 361.144 385.448 363.537C385.448 364.074 385.587 364.464 385.863 364.708Z" fill="white"/>
<path d="M538.038 132.988C538.102 134.529 536.866 135.353 534.329 135.459L533.685 135.486L533.04 135.484L531.781 135.537L530.521 135.56L529.292 135.611C525.389 135.775 523.083 135.793 522.374 135.666C521.665 135.539 521.297 135.154 521.27 134.51C521.226 133.456 522.063 132.444 523.782 131.473C525.52 130.481 526.502 129.668 526.73 129.033C526.977 128.397 527.542 125.08 528.424 119.08C529.307 113.081 529.719 109.369 529.659 107.945C529.599 106.501 529.317 105.604 528.814 105.253L526.451 104.854C525.171 104.633 524.525 104.367 524.512 104.055C524.47 103.06 525.778 101.842 528.435 100.402C532.277 98.3251 535.203 97.2449 537.213 97.1608C538.033 97.1265 538.458 97.4801 538.489 98.2216C538.51 98.729 538.203 100.501 537.568 103.538C536.951 106.555 536.253 111.119 535.472 117.232C534.692 123.344 534.311 126.624 534.33 127.073C534.39 128.517 535.014 129.635 536.2 130.426C537.386 131.197 537.998 132.051 538.038 132.988ZM554.423 127.933C554.45 128.577 555.8 128.843 558.473 128.731C561.147 128.62 562.848 128.402 563.577 128.078C564.326 127.753 565.219 127.13 566.255 126.207C567.311 125.263 568.014 124.784 568.365 124.77C569.263 124.732 569.731 125.182 569.77 126.118C569.884 128.831 569.36 131.023 568.198 132.694C567.553 133.62 566.401 134.118 564.742 134.187L563.804 134.197L560.145 134.35L546.857 134.935C545.608 134.987 544.97 134.692 544.943 134.048C544.884 132.623 545.506 131.131 546.809 129.571C547.292 128.984 548.538 127.691 550.546 125.691C556.138 120.101 559.653 116.279 561.092 114.225C563.361 110.982 564.445 108.171 564.346 105.79C564.284 104.307 563.795 103.145 562.88 102.303C561.984 101.442 560.892 101.038 559.604 101.092C558.336 101.145 557.269 101.58 556.404 102.398C556.272 102.521 555.386 103.77 553.746 106.146C552.603 107.796 551.485 108.645 550.392 108.69C549.534 108.726 549.076 108.061 549.019 106.695C548.961 105.329 549.154 104.099 549.597 103.006C550.039 101.892 550.98 100.768 552.418 99.6329C555.087 97.5469 557.934 96.4406 560.958 96.3141C563.983 96.1875 566.454 96.8368 568.37 98.2618C570.286 99.6673 571.295 101.59 571.397 104.029L571.433 104.878C571.433 104.878 571.434 104.897 571.435 104.936C571.55 107.688 570.415 110.677 568.028 113.905C566.622 115.801 564 118.56 560.164 122.18C556.327 125.801 554.414 127.719 554.423 127.933Z" fill="#262C3C"/>
</svg>
