<svg width="462" height="170" viewBox="0 0 462 170" fill="none" xmlns="http://www.w3.org/2000/svg">
<path d="M262.57 33.937L325.193 8.30312L318.581 37.6416L317.593 42.0272L322.022 41.2568L398.897 27.884L362.03 52.1245L353.535 57.7097L363.701 57.6311L437.964 57.0568L378.764 74.0326L379.07 79.8708L439.721 90.5654L365.804 97.7569L355.686 98.7413L364.717 103.408L403.917 123.662L326.065 118.398L321.58 118.095L323.021 122.353L332.663 150.84L267.703 131.892L265.91 131.369L264.649 132.748L235.308 164.839L202.772 135.991L201.374 134.751L199.645 135.459L137.022 161.093L143.634 131.754L144.622 127.369L140.193 128.139L63.3179 141.512L100.185 117.272L108.68 111.686L98.5139 111.765L24.2505 112.339L83.4512 95.3635L83.1453 89.5253L22.4944 78.8307L96.411 71.6392L106.529 70.6548L97.4976 65.988L58.2984 45.734L136.15 50.9979L140.635 51.3012L139.194 47.0429L129.552 18.5563L194.512 37.5037L196.305 38.0269L197.566 36.6481L226.907 4.55662L259.443 33.4053L260.841 34.6447L262.57 33.937Z" fill="#EE9340" stroke="#4162BF" stroke-width="6"/>
</svg>
