<svg width="5687" height="969" viewBox="0 0 5687 969" fill="none" xmlns="http://www.w3.org/2000/svg">
<path d="M441.248 596.946C310.681 530.782 172.585 548.929 155.707 686.386C59.7854 674.608 -62.9099 694.143 38.344 737.391C134.821 778.599 627.179 937.185 680.881 860.598C724.671 798.147 856.245 862.821 924.341 874.665C1039.65 894.721 1204.36 893.426 1293.84 826.131C1442.32 714.458 3476.53 773.886 3656.8 781.76C3776.7 786.997 3808.13 781.308 3882.54 711.354C3955.35 642.889 4138.83 755.045 4221.28 781.434C4321.26 813.431 4502.82 846.391 4603.87 816.805C4679.28 794.727 4684.82 757.269 4762.57 803.583C4910.01 891.403 5161.97 890.403 5327.24 916.173C5391.67 926.22 5682.33 1028.42 5685.98 916.963C5690.14 790.193 5495.19 798.294 5401.37 759.627C5302.77 718.992 5103.51 752.215 5062.94 655.823C5042.13 606.403 5017.05 551.745 4943.18 559.877C4834.37 571.855 4861.95 526.513 4815.88 463.005C4749.47 371.447 4656.29 390.62 4552.17 374.705C4517.48 369.403 4454.01 336.708 4452.38 303.368C4442.72 106.661 4376.63 11.1367 4120.45 0.951027C3996.1 -3.99301 3830.55 38.801 3764.88 130.326C3725.55 185.131 3704.94 322.686 3628.97 353.144C3519.66 396.966 1352.4 807.526 2066.58 535.613C1742 385.554 1057.39 532.68 795.709 528.629C731.862 527.641 610.637 526.487 560.836 569.426C527.513 598.158 489.721 621.509 441.248 596.946Z" fill="white"/>
</svg>
