<svg width="6107" height="741" viewBox="0 0 6107 741" fill="none" xmlns="http://www.w3.org/2000/svg">
<path d="M1037.27 98.5139C982.855 -84.677 183.449 43.7652 0 43.7652C62.7266 197.344 -85.6395 467.557 291.417 472.924C331.523 473.495 388.728 466.227 427.026 472.924C513.165 487.989 361.114 602.965 343.352 621.276C290.937 675.31 339.204 661.64 412.6 670.726C535.691 685.964 655.347 709.847 779.035 723.709C1052.09 754.311 1333.3 742.567 1598.46 691.919C1764.31 660.241 1902.72 594.52 2065.88 561.229C2422.3 488.508 2816.71 496.262 3181.06 543.568C3440.09 577.2 3682.66 645.75 3952.88 647.767C4269.33 650.129 4709.57 686.351 4994.48 587.72C5289.89 485.454 5454.04 329.871 5818.23 329.871C5865.86 329.871 6184.47 348.761 6088.01 321.924C5863.65 259.502 5533.13 276.759 5295.99 283.07C4831.9 295.421 4320.88 352.022 3870.65 417.293C3679.94 444.94 3563.8 410.716 3361.39 394.333C3092.73 372.588 2911.56 323.448 2663.14 266.292C2256.55 172.744 1854.13 186.818 1428.23 186.818C1343.27 186.818 1121.07 211.986 1050.25 170.923C1023.39 155.346 1043.3 118.806 1037.27 98.5139Z" fill="white"/>
</svg>
