<svg width="1728" height="4579" viewBox="0 0 1728 4579" fill="none" xmlns="http://www.w3.org/2000/svg">
<rect y="982" width="1728" height="1863" fill="#3D823A"/>
<path d="M1728 78L1409.79 168L1303.05 279.5H1012.03L972.252 324.5L835.804 391L499.469 377.5L429.986 513L264.336 536.5L120.336 613.5L0 650.5V982H1728V78Z" fill="#3D823A"/>
<path d="M709.5 359.5L658 401H880L861.5 369.5L814.5 332L780.5 352.5L735.5 369.5L709.5 359.5Z" fill="#0F5E08"/>
<path d="M1720.5 216.5L1772 258H1550L1568.5 226.5L1615.5 189L1649.5 209.5L1694.5 226.5L1720.5 216.5Z" fill="#0F5E08"/>
<path d="M1204.07 268.569L1185 286.796L1214.37 307L1293.33 301.949L1333 294.702V279.769L1293.33 268.569L1260.53 251L1228.87 268.569H1204.07Z" fill="#0F5E08"/>
<path d="M1392 169.282L1356 223.5L1475.91 169.282L1744.76 77.8175L1719.26 50.94L1651.63 78.4276L1617.42 71.2825L1565.01 113.634L1468.5 113.634L1440.77 110.703L1424.71 161.488L1392 169.282Z" fill="#023006"/>
<path d="M338.5 637L80 749L0 762.5V1883L587 1410.5L611 605L338.5 719V637Z" fill="#0F5E08"/>
<path d="M1214 332L1106.5 392.273L1085 482.31L989 712.613V552.257L934 1423.5L1277.5 1449V392.273H1229L1214 332Z" fill="#FEE702"/>
<path d="M1041.5 564H760L650 762V700.5L-142 2081.5L1986.5 2041.5L1246.5 711.5L1116.5 680.5L1041.5 564Z" fill="#FEE702"/>
<path d="M279.882 740.623L262.171 804.348L442.668 675.1L409.288 660.26L349.242 657.134L333.533 693.596L306.844 733.616L279.882 740.623Z" fill="#023006"/>
<path d="M182.882 777.623L165.171 841.348L345.668 712.1L312.288 697.26L252.242 694.134L236.533 730.596L209.844 770.616L182.882 777.623Z" fill="#023006"/>
<path d="M11.5627 616.301L-24.6889 671.621L186.565 603.387L159.279 579.098L103.028 557.859L76.9743 587.817L39.3778 617.825L11.5627 616.301Z" fill="#023006"/>
<path d="M381 497.056L414.937 540H469.814L500.501 515.33L469.814 523.553L507 427.614L469.814 445.888L423.241 360L414.937 497.056L401.94 445.888V497.056H381Z" fill="#0F5E08"/>
<path d="M371 543.878L390.073 564H420.914L465 523.217L420.914 550.585L454.66 499.562L420.914 487.236L394.74 387V487.236H371L382.768 528.972L371 543.878Z" fill="#FEE702"/>
<path d="M70 831.249L93.4327 873H131.324L152.513 849.015L131.324 857.01L157 763.736L131.324 781.503L99.1662 698L93.4327 831.249L84.4585 781.503V831.249H70Z" fill="#023006"/>
<path d="M263 860.556L199.316 999H159.429L142 860.556L167.474 912.769L175.518 643L188.255 860.556L215.069 781.444V912.769L263 860.556Z" fill="#3D823A"/>
<path d="M880 813.556L816.316 952H776.429L759 813.556L784.474 865.769L792.518 596L805.255 813.556L832.069 734.444V865.769L880 813.556Z" fill="#0F5E08"/>
<path d="M701 587.778L746.263 643H774.612L787 587.778L768.895 608.605L763.177 501L754.125 587.778L735.066 556.222V608.605L701 587.778Z" fill="#0F5E08"/>
<path d="M1424 926.778L1469.26 982H1497.61L1510 926.778L1491.89 947.604L1486.18 840L1477.12 926.778L1458.07 895.222V947.604L1424 926.778Z" fill="#0F5E08"/>
<path d="M1651 630.778L1568.89 686H1517.47L1495 630.778L1527.84 651.604L1538.21 544L1554.63 630.778L1589.2 599.222V651.604L1651 630.778Z" fill="#0F5E08"/>
<path d="M1720.27 346.361L1680.21 411.689L1662.67 408.675L1667.05 337.219L1673.71 365.596L1700.72 229.533L1687.39 340.714L1706.07 302.66L1694.64 369.192L1720.27 346.361Z" fill="#0F5E08"/>
<path d="M611 911.5L706 999H765.5L791.5 911.5L753.5 944.5L741.5 774L722.5 911.5L682.5 861.5V944.5L611 911.5Z" fill="#3D823A"/>
<path d="M1128.5 292.379L1151.77 273.007L1181.7 254L1200.55 292.379L1229 298.959L1200.55 329.297L1214.96 360L1165.08 350.131L1128.5 360V338.069H1103L1111.87 315.407L1103 298.959L1128.5 292.379Z" fill="#0F5E08"/>
<path d="M1682.43 625.379L1635 579.894L1691.7 714.333L1794.69 1011.69L1813.41 988.292L1783.91 912.887L1785.86 877.587L1746.13 816.308L1735.47 713.991L1734.75 684.985L1692.28 661.103L1682.43 625.379Z" fill="#3D823A"/>
<path d="M93 1016.94L112.073 1049H142.914L187 984.023L142.914 1027.63L174 907L142.914 926.698L116.74 767V926.698L78 854L104.768 993.192L93 1016.94Z" fill="#FEE702"/>
<path d="M218.378 1225.06L0 1507.5V2738H1061L549.134 1073.7L538 1037L391.5 1085L218.378 1385.43V1225.06Z" fill="#3D823A"/>
<path d="M1220.85 1306L190.555 2048.93L0 2722.73V4558.95L1731 4579L1728.5 2556.53V2048.93L1220.85 1306Z" fill="#0F5E08"/>
</svg>
