<svg width="1728" height="4579" viewBox="0 0 1728 4579" fill="none" xmlns="http://www.w3.org/2000/svg">
<rect x="0.896484" y="982" width="1728" height="1863" fill="#AEAF37"/>
<path d="M1728.9 78L1410.69 168L1303.95 279.5H1012.92L973.148 324.5L836.701 391L500.365 377.5L430.882 513L265.232 536.5L121.232 613.5L0.896484 650.5V982H1728.9V78Z" fill="#AEAF37"/>
<path d="M710.396 359.5L658.896 401H880.896L862.396 369.5L815.396 332L781.396 352.5L736.396 369.5L710.396 359.5Z" fill="#75761F"/>
<path d="M1721.4 216.5L1772.9 258H1550.9L1569.4 226.5L1616.4 189L1650.4 209.5L1695.4 226.5L1721.4 216.5Z" fill="#75761F"/>
<path d="M339.396 637L80.8965 749L0.896484 762.5V1883L587.896 1410.5L611.896 605L339.396 719V637Z" fill="#75761F"/>
<path d="M1214.9 332L1107.4 392.273L1085.9 482.31L989.896 712.612V552.257L934.896 1423.5L1278.4 1449V392.273H1229.9L1214.9 332Z" fill="#DBDC20"/>
<path d="M1042.4 564H760.896L650.896 762V700.5L-141.104 2081.5L1987.4 2041.5L1247.4 711.5L1117.4 680.5L1042.4 564Z" fill="#DBDC20"/>
<path d="M1204.97 268.569L1185.9 286.796L1215.27 307L1294.23 301.949L1333.9 294.702V279.769L1294.23 268.569L1261.42 251L1229.76 268.569H1204.97Z" fill="#75761F"/>
<path d="M1392.9 169.282L1356.9 223.5L1476.81 169.282L1745.65 77.8176L1720.16 50.9401L1652.53 78.4277L1618.32 71.2826L1565.91 113.634L1469.4 113.634L1441.66 110.703L1425.6 161.488L1392.9 169.282Z" fill="#525214"/>
<path d="M280.779 740.623L263.068 804.348L443.565 675.1L410.184 660.26L350.139 657.134L334.43 693.596L307.74 733.616L280.779 740.623Z" fill="#525214"/>
<path d="M183.779 777.623L166.068 841.348L346.565 712.1L313.184 697.26L253.139 694.134L237.43 730.596L210.74 770.616L183.779 777.623Z" fill="#525214"/>
<path d="M12.4595 616.301L-23.7921 671.621L187.462 603.387L160.175 579.098L103.924 557.859L77.8711 587.817L40.2745 617.825L12.4595 616.301Z" fill="#525214"/>
<path d="M381.896 497.056L415.833 540H470.71L501.398 515.33L470.71 523.553L507.896 427.614L470.71 445.888L424.137 360L415.833 497.056L402.836 445.888V497.056H381.896Z" fill="#75761F"/>
<path d="M371.896 543.877L390.969 564H421.811L465.896 523.217L421.811 550.585L455.556 499.562L421.811 487.236L395.636 387V487.236H371.896L383.665 528.972L371.896 543.877Z" fill="#DBDC20"/>
<path d="M70.8965 831.249L94.3291 873H132.22L153.409 849.015L132.22 857.01L157.896 763.736L132.22 781.502L100.063 698L94.3291 831.249L85.3549 781.502V831.249H70.8965Z" fill="#525214"/>
<path d="M263.896 860.555L200.212 999H160.326L142.896 860.555L168.37 912.769L176.414 643L189.151 860.555L215.966 781.444V912.769L263.896 860.555Z" fill="#AEAF37"/>
<path d="M880.896 813.555L817.212 952H777.326L759.896 813.555L785.37 865.769L793.414 596L806.151 813.555L832.966 734.444V865.769L880.896 813.555Z" fill="#75761F"/>
<path d="M701.896 587.778L747.16 643H775.509L787.896 587.778L769.791 608.604L764.074 501L755.021 587.778L735.963 556.222V608.604L701.896 587.778Z" fill="#75761F"/>
<path d="M1424.9 926.778L1470.16 982H1498.51L1510.9 926.778L1492.79 947.604L1487.07 840L1478.02 926.778L1458.96 895.222V947.604L1424.9 926.778Z" fill="#75761F"/>
<path d="M1651.9 630.778L1569.79 686H1518.37L1495.9 630.778L1528.74 651.604L1539.11 544L1555.53 630.778L1590.1 599.222V651.604L1651.9 630.778Z" fill="#75761F"/>
<path d="M1721.17 346.361L1681.11 411.689L1663.56 408.675L1667.95 337.219L1674.61 365.596L1701.62 229.532L1688.29 340.714L1706.97 302.66L1695.54 369.192L1721.17 346.361Z" fill="#75761F"/>
<path d="M611.896 911.5L706.896 999H766.396L792.396 911.5L754.396 944.5L742.396 774L723.396 911.5L683.396 861.5V944.5L611.896 911.5Z" fill="#AEAF37"/>
<path d="M1129.39 292.379L1152.67 273.007L1182.6 254L1201.44 292.379L1229.9 298.959L1201.44 329.297L1215.86 360L1165.97 350.131L1129.39 360V338.069H1103.9L1112.76 315.407L1103.9 298.959L1129.39 292.379Z" fill="#75761F"/>
<path d="M93.8965 1016.94L112.969 1049H143.811L187.896 984.023L143.811 1027.63L174.896 907L143.811 926.698L117.636 767V926.698L78.8965 854L105.665 993.192L93.8965 1016.94Z" fill="#DBDC20"/>
<path d="M219.274 1225.06L0.896484 1507.5V2738H1061.9L550.03 1073.7L538.896 1037L392.396 1085L219.274 1385.43V1225.06Z" fill="#AEAF37"/>
<path d="M1221.75 1306L191.452 2048.93L0.896484 2722.73V4558.95L1731.9 4579L1729.4 2556.53V2048.93L1221.75 1306Z" fill="#75761F"/>
</svg>
