<svg width="1625" height="470" viewBox="0 0 1625 470" fill="none" xmlns="http://www.w3.org/2000/svg">
<path d="M1472.73 337.722C1509.57 340.842 1561.17 365.409 1616.66 470.006L1624.07 450.675C1592.38 418.046 1546.79 374.062 1488.33 326.497C1422.05 272.597 1192.53 94.7642 925.017 28.917C493.94 -77.1501 96.6289 140.037 0.000230376 196.132C64.7822 244.38 119.336 255.963 163.368 252.17C193.886 249.532 207.072 240.595 237.891 237.757C298.68 232.237 353.956 257.462 399.744 290.507L472.608 201.367C464.694 249.525 459.937 301.104 476.226 307.068C483.725 309.809 489.44 300.545 506.348 293.2C543.968 276.802 585.935 291.749 620.8 304.149C672.55 322.606 677.387 338.625 695.021 333.59C738.333 321.328 745.04 214.5 746.185 214.638C746.782 214.731 742.177 244.285 725.962 339.225L769.94 346.814C769.94 346.814 778.734 295.051 783.601 296.781C788.468 298.511 787.844 350.497 787.844 350.497L851.541 321.203L858.497 274.285L879.007 292.676L865.669 334.577L974.184 368.095L984.169 327.753L993.975 366.982L1037.95 374.571L1025.17 328.815L1063.26 359.022L1087.82 359.64C1085.88 342.511 1084.34 320.6 1089.63 319.074C1096.18 317.193 1105.3 349.383 1125.14 370.293C1143.45 389.591 1179.75 408.778 1260.1 399.634C1260.3 389.187 1260.34 373.322 1259.37 353.967C1258.19 330.328 1256.37 317.386 1258.82 316.724C1263.46 315.451 1265.41 363.521 1292.16 380.92C1334.66 408.526 1398.19 331.54 1472.68 337.87L1472.73 337.722Z" fill="#C0F5AD"/>
</svg>
