<svg width="741" height="1487" viewBox="0 0 741 1487" fill="none" xmlns="http://www.w3.org/2000/svg">
<path d="M573.721 116.105C586.304 81.7222 623.656 38.8006 740.194 12.865L723.227 0.792253C683.152 22.6158 628.387 54.7742 566.793 98.3008C496.988 147.652 263.87 320.848 130.31 559.318C-84.8721 943.602 24.4532 1379.3 54.2402 1486.11C118.137 1436.72 143.572 1387.61 151.263 1344.58C156.584 1314.75 151.267 1299.84 156.472 1269.67C166.813 1210.18 205.76 1163.91 249.89 1128.73L181.673 1036.06C226.668 1056.09 275.821 1073.98 285.863 1059.96C290.481 1053.51 282.91 1045.65 280.112 1027.6C273.83 987.428 299.294 951.213 320.43 921.121C351.854 876.47 368.753 875.996 368.399 857.849C367.631 813.307 265.013 779.252 265.444 778.194C265.69 777.648 293.367 789.696 381.912 829.756L400.707 789.715C400.707 789.715 352.419 767.918 355.369 763.717C358.319 759.516 408.938 773.568 408.938 773.568L396.809 705.147L352.778 686.359L376.052 671.53L413.53 695.114L474.358 600.143L437.534 580.164L478.393 580.951L497.188 540.911L449.182 541.281L488.548 512.717L495.508 489.42C478.275 486.836 456.472 482.64 456.352 477.187C456.208 470.449 490.014 470.067 515.575 456.53C539.164 444.037 567.301 414.333 579.166 335.218C569.012 332.327 553.526 328.178 534.369 324.094C510.972 319.102 497.858 317.495 497.844 314.986C497.803 310.219 545.265 320.796 569.184 299.752C607.15 266.305 548.391 185.695 573.852 116.192L573.721 116.105Z" fill="#A2DE8D"/>
</svg>
