<svg width="496" height="1481" viewBox="0 0 496 1481" fill="none" xmlns="http://www.w3.org/2000/svg">
<path d="M112.045 63.1363C102.409 27.8349 87.2073 126.912 167.625 39.5703L112.204 0.0168837C92.0347 40.6231 121.249 -18.1077 96.0427 52.4812C67.4883 132.498 -23.0076 406.589 5.91284 677.684C52.5533 1114.51 394.836 1409.41 481.194 1480.01C504.887 1403.32 497.236 1348.66 478.572 1309.05C465.627 1281.59 452.624 1272.4 439.387 1244.73C413.35 1190.13 418.416 1130.14 434.159 1076.29L324.526 1039.08C372.999 1029.96 423.642 1016.74 423.738 999.564C423.778 991.659 413.019 989.517 400.257 976.318C371.806 946.97 371.658 902.863 371.517 866.225C371.357 811.826 384.926 801.854 374.109 787.19C347.644 751.138 243.83 781.444 243.57 780.333C243.454 779.746 273.114 773.917 368.883 756.512L361.053 713.053C361.053 713.053 308.855 722.586 308.834 717.471C308.814 712.357 358.43 695.158 358.43 695.158L308.806 645.99L261.84 655.573L272.303 630.225L316.683 628.288L311.422 515.992L269.668 520.512L303.595 497.983L295.765 454.524L256.656 482.054L272.334 436.329L264.522 413.298C248.906 420.955 228.612 429.884 225.351 425.485C221.324 420.047 248.795 400.561 261.881 374.975C273.958 351.361 279.776 311.072 243.604 239.534C233.609 242.926 218.517 248.31 200.455 255.83C178.394 265.011 166.72 271.133 165.253 269.085C162.454 265.204 207.468 246.949 214.855 216.144C226.553 167.213 131.662 134.507 112.204 63.1332L112.045 63.1363Z" fill="#8EBF7D"/>
</svg>
