<svg width="1340" height="957" viewBox="0 0 1340 957" fill="none" xmlns="http://www.w3.org/2000/svg">
<path d="M1143.42 27.1634C1171.7 3.60822 1225.75 -15.0953 1339.79 20.0617L1331.2 1.21753C1285.46 0.303446 1221.77 1.07692 1146.42 8.31926C1061.02 16.546 771.553 51.2811 535.305 191.769C154.639 418.18 29.0069 849.556 0.793948 956.785C81.1032 945.605 127.962 915.652 156.384 882.182C176.078 858.978 179.011 843.439 198.774 819.884C237.811 773.477 294.935 752.664 350.942 744.015L338.721 630.036C367.563 669.623 401.083 709.421 416.866 702.248C424.129 698.944 421.545 688.397 428.249 671.381C443.124 633.481 483.488 614.708 517.008 599.098C566.8 575.964 581.674 583.91 590.543 568.019C612.401 529.065 540.752 448.837 541.659 448.134C542.148 447.782 560.026 471.9 616.452 550.37L652.975 524.987C652.975 524.987 622.178 482.236 626.857 480.056C631.536 477.876 668.269 515.072 668.269 515.072L692.362 449.821L663.73 411.781L691.384 410.445L711.915 449.399L812.616 397.226L790.828 361.718L825.815 382.601L862.338 357.217L820.577 333.803L869.112 328.529L886.92 311.795C873.302 301.037 856.542 286.622 859.195 281.841C862.478 275.934 891.948 292.318 920.929 293.232C947.675 294.076 987.062 282.263 1037.34 219.613C1030.01 212.089 1018.7 200.839 1004.17 187.831C986.433 171.94 975.888 164.065 977.145 161.885C979.52 157.737 1015.27 190.362 1046.63 183.964C1096.42 173.768 1086.3 74.9067 1143.49 27.3041L1143.42 27.1634Z" fill="#8EBF7D"/>
</svg>
