<svg width="1222" height="258" viewBox="0 0 1222 258" fill="none" xmlns="http://www.w3.org/2000/svg">
<path d="M69.6094 166.633V70.6562H45.5859V166.633H69.6094ZM115.195 202.375H33.6328L9.60938 178.586V58.5859L33.6328 34.5625H81.5625L105.586 58.5859V166.633L93.6328 178.586H115.195V202.375ZM270.117 34.5625L238.945 202.375H200.508L190.898 146.711L181.289 202.375H142.969L111.914 34.5625H147.656L166.875 127.492L181.289 34.5625H200.508L214.922 127.492L234.141 34.5625H270.117ZM360.117 199.914H276.094V32.2188H360.117V68.1953H312.07V98.1953H360.117V134.172H312.07V164.172H360.117V199.914ZM439.453 83.7812V53.7812H415.43V83.7812H439.453ZM475.43 185.852H439.453V119.758H415.43V185.852H379.453V17.8047H451.406L475.43 41.8281V84.9531L458.672 101.828L475.43 118.586V185.852ZM686.836 199.914H650.859V134.172H626.836V199.914H590.859V32.2188H626.836V98.1953H650.859V32.2188H686.836V199.914ZM757.031 116.242L748.125 64.0938L739.336 116.242H757.031ZM803.32 176.242H767.344L763.242 152.219H733.008L728.906 176.242H693.164L724.219 8.19531H772.148L803.32 176.242ZM905.508 178.586L881.484 202.375H833.555L809.531 178.586V58.5859L833.555 34.5625H881.484L905.508 58.5859V94.5625H869.531V70.6562H845.508V166.633H869.531V142.609H905.508V178.586ZM1020.82 197.57H984.844L960.82 130.656V197.57H924.844V29.7578H960.82V97.0234L984.844 29.7578H1020.82L990.82 113.781L1020.82 197.57ZM1136.13 164.172L1112.11 188.195H1064.18L1040.16 164.172V140.148H1076.13V152.219H1100.16V122.219H1064.18L1040.16 98.1953V44.1719L1064.18 20.1484H1112.11L1136.13 44.1719V68.1953H1100.16V56.2422H1076.13V86.2422H1112.11L1136.13 110.148V164.172Z" fill="#EB68AF"/>
<path d="M85.6094 158.633V62.6562H61.5859V158.633H85.6094ZM131.195 194.375H49.6328L25.6094 170.586V50.5859L49.6328 26.5625H97.5625L121.586 50.5859V158.633L109.633 170.586H131.195V194.375ZM286.117 26.5625L254.945 194.375H216.508L206.898 138.711L197.289 194.375H158.969L127.914 26.5625H163.656L182.875 119.492L197.289 26.5625H216.508L230.922 119.492L250.141 26.5625H286.117ZM376.117 191.914H292.094V24.2188H376.117V60.1953H328.07V90.1953H376.117V126.172H328.07V156.172H376.117V191.914ZM455.453 75.7812V45.7812H431.43V75.7812H455.453ZM491.43 177.852H455.453V111.758H431.43V177.852H395.453V9.80469H467.406L491.43 33.8281V76.9531L474.672 93.8281L491.43 110.586V177.852ZM702.836 191.914H666.859V126.172H642.836V191.914H606.859V24.2188H642.836V90.1953H666.859V24.2188H702.836V191.914ZM773.031 108.242L764.125 56.0938L755.336 108.242H773.031ZM819.32 168.242H783.344L779.242 144.219H749.008L744.906 168.242H709.164L740.219 0.195312H788.148L819.32 168.242ZM921.508 170.586L897.484 194.375H849.555L825.531 170.586V50.5859L849.555 26.5625H897.484L921.508 50.5859V86.5625H885.531V62.6562H861.508V158.633H885.531V134.609H921.508V170.586ZM1036.82 189.57H1000.84L976.82 122.656V189.57H940.844V21.7578H976.82V89.0234L1000.84 21.7578H1036.82L1006.82 105.781L1036.82 189.57ZM1152.13 156.172L1128.11 180.195H1080.18L1056.16 156.172V132.148H1092.13V144.219H1116.16V114.219H1080.18L1056.16 90.1953V36.1719L1080.18 12.1484H1128.11L1152.13 36.1719V60.1953H1116.16V48.2422H1092.13V78.2422H1128.11L1152.13 102.148V156.172Z" fill="#F5F5F5"/>
<path d="M169.394 196.522L94 229H419L391.917 204.348L323.11 175L273.336 191.043L207.457 204.348L169.394 196.522Z" fill="#105E08"/>
<path d="M772.889 216.161L716.079 249.18L860.945 231.812L1175.18 214.927L1157.86 190.475L1077.24 198.005L1043.85 186.389L973.986 207.651L872.703 189.649L844.626 182.328L809.947 216.55L772.889 216.161Z" fill="#023006"/>
</svg>
