<svg width="3450" height="3450" viewBox="0 0 3450 3450" fill="none" xmlns="http://www.w3.org/2000/svg">
<mask id="mask0_412_678" style="mask-type:alpha" maskUnits="userSpaceOnUse" x="0" y="0" width="3450" height="3450">
<rect width="3450" height="3450" fill="#5D4A84"/>
</mask>
<g mask="url(#mask0_412_678)">
<mask id="mask1_412_678" style="mask-type:alpha" maskUnits="userSpaceOnUse" x="-128" y="-186" width="6267" height="3887">
<rect width="6267" height="3887" transform="translate(-128 -186)" fill="url(#paint0_linear_412_678)"/>
</mask>
<g mask="url(#mask1_412_678)">
<rect x="-2972" y="-377" width="11956" height="4445" fill="url(#paint1_linear_412_678)"/>
<g style="mix-blend-mode:soft-light">
<path d="M5974.53 142.346C6133.36 170.224 6276.56 223.317 6438 223.317V331.278H6047.79C5781.1 331.278 5511.13 423.137 5252.41 358.268C5196.22 344.18 5107.59 273.155 5078.98 347.772C5054.18 412.435 5068.69 493.219 4984.79 493.219C4368.07 493.219 3757.91 456.964 3145.85 379.26C2805.21 336.014 2446.38 292.368 2118.73 182.831C2077.84 169.16 1861.52 142.346 1988.66 142.346H2712.28C3070.4 142.346 3388.42 160.767 3737.9 251.807C4122.07 351.885 4458.15 394.521 4841.26 277.297C5037.52 217.247 5238.58 129.317 5442.28 100.361C5619.02 75.2379 5800.94 111.879 5974.53 142.346Z" fill="#B695C2"/>
</g>
<g style="mix-blend-mode:soft-light">
<path d="M442.27 2486.51C387.855 2303.32 -411.551 2431.77 -595 2431.77C-532.273 2585.34 -680.64 2855.56 -303.583 2860.92C-263.477 2861.5 -206.272 2854.23 -167.974 2860.92C-81.835 2875.99 -233.886 2990.97 -251.648 3009.28C-304.063 3063.31 -255.796 3049.64 -182.4 3058.73C-59.309 3073.96 60.3474 3097.85 184.035 3111.71C457.091 3142.31 738.305 3130.57 1003.46 3079.92C1169.31 3048.24 1307.72 2982.52 1470.88 2949.23C1827.3 2876.51 2221.71 2884.26 2586.06 2931.57C2845.09 2965.2 3087.66 3033.75 3357.88 3035.77C3674.33 3038.13 4114.57 3074.35 4399.48 2975.72C4694.89 2873.45 4859.04 2717.87 5223.23 2717.87C5270.86 2717.87 5589.47 2736.76 5493.01 2709.92C5268.65 2647.5 4938.13 2664.76 4700.99 2671.07C4236.9 2683.42 3725.88 2740.02 3275.65 2805.29C3084.94 2832.94 2968.8 2798.72 2766.39 2782.33C2497.73 2760.59 2316.56 2711.45 2068.14 2654.29C1661.55 2560.74 1259.13 2574.82 833.23 2574.82C748.273 2574.82 526.065 2599.99 455.254 2558.92C428.392 2543.35 448.298 2506.81 442.27 2486.51Z" fill="#FFBDB4"/>
</g>
<g style="mix-blend-mode:soft-light">
<path d="M-965.73 462.514C-1020.15 279.323 -1819.55 407.765 -2003 407.765C-1940.27 561.344 -2088.64 831.557 -1711.58 836.924C-1671.48 837.495 -1614.27 830.227 -1575.97 836.924C-1489.83 851.989 -1641.89 966.965 -1659.65 985.276C-1712.06 1039.31 -1663.8 1025.64 -1590.4 1034.73C-1467.31 1049.96 -1347.65 1073.85 -1223.97 1087.71C-950.909 1118.31 -669.695 1106.57 -404.536 1055.92C-238.69 1024.24 -100.281 958.52 62.8843 925.229C419.301 852.508 813.711 860.262 1178.06 907.568C1437.09 941.2 1679.66 1009.75 1949.88 1011.77C2266.33 1014.13 2706.57 1050.35 2991.48 951.72C3286.89 849.454 3451.04 693.871 3815.23 693.871C3862.86 693.871 4181.47 712.761 4085.01 685.924C3860.65 623.502 3530.13 640.759 3292.99 647.07C2828.9 659.421 2317.88 716.022 1867.65 781.293C1676.94 808.94 1560.8 774.716 1358.39 758.333C1089.73 736.588 908.561 687.448 660.144 630.292C253.549 536.744 -148.866 550.818 -574.77 550.818C-659.727 550.818 -881.935 575.986 -952.746 534.923C-979.608 519.346 -959.702 482.806 -965.73 462.514Z" fill="#FFBDB4"/>
</g>
<path d="M1424.34 1684.6C1361.59 1657.19 1300.11 1676.38 1300.11 1752.68C1256.06 1752.68 1201.63 1771.6 1249.84 1788.45C1295.78 1804.5 1527.37 1858.16 1547.41 1812.68C1563.76 1775.59 1626.88 1802.12 1658.35 1804.02C1711.64 1807.25 1786.1 1795.48 1822.84 1752.68C1883.82 1681.65 2807.54 1577.57 2889.54 1569.77C2944.08 1564.59 2957.99 1559.37 2987.77 1516.12C3016.91 1473.8 3106.16 1522.8 3144.93 1531.7C3191.95 1542.48 3275.93 1548.31 3320.01 1525.35C3352.9 1508.22 3353.33 1487.36 3391.08 1507.47C3462.67 1545.59 3576.62 1528.12 3652.83 1531.12C3682.54 1532.29 3819.73 1568.65 3815.2 1507.47C3810.03 1437.87 3722.28 1455.39 3677.68 1440.55C3630.81 1424.95 3542.49 1456.49 3518.78 1406.51C3506.62 1380.88 3492.24 1352.68 3459.26 1362.09C3410.7 1375.94 3420.65 1349.3 3396.28 1317.66C3361.15 1272.06 3320.05 1288.8 3272.05 1287.09C3256.06 1286.52 3225.53 1272.9 3222.94 1254.78C3207.64 1147.87 3172.43 1100.08 3055.95 1111.71C2999.41 1117.35 2926.88 1151.87 2902.25 1206.32C2887.51 1238.93 2885.82 1315.52 2853.14 1337.28C2806.12 1368.58 1848.31 1738.57 2156.34 1541.95C2001.15 1481.69 1699.56 1608.1 1580.93 1623.45C1551.98 1627.2 1497.07 1634.7 1476.92 1661.53C1463.44 1679.47 1447.64 1694.78 1424.34 1684.6Z" fill="white" fill-opacity="0.7"/>
<g style="mix-blend-mode:soft-light">
<path d="M3067.33 1939.32C3234.8 1967.18 3385.78 2020.25 3556 2020.25V2128.15H3144.57C2863.37 2128.15 2578.73 2219.96 2305.94 2155.12C2246.7 2141.04 2153.25 2070.06 2123.08 2144.63C2096.93 2209.26 2112.24 2290 2023.77 2290C1373.52 2290 730.18 2253.76 84.8342 2176.1C-274.333 2132.88 -652.666 2089.26 -998.132 1979.78C-1041.25 1966.12 -1269.33 1939.32 -1135.28 1939.32H-372.313C5.27893 1939.32 340.597 1957.73 709.077 2048.72C1114.14 2148.74 1468.49 2191.36 1872.44 2074.2C2079.37 2014.18 2291.36 1926.3 2506.14 1897.36C2692.49 1872.25 2884.29 1908.87 3067.33 1939.32Z" fill="#E3CDEB"/>
</g>
<path d="M-1584.66 1863.6C-1647.41 1836.19 -1708.89 1855.38 -1708.89 1931.68C-1752.94 1931.68 -1807.37 1950.6 -1759.16 1967.45C-1713.22 1983.5 -1481.63 2037.16 -1461.59 1991.68C-1445.24 1954.59 -1382.12 1981.12 -1350.65 1983.02C-1297.36 1986.25 -1222.9 1974.48 -1186.16 1931.68C-1125.18 1860.65 -201.46 1756.57 -119.458 1748.77C-64.9156 1743.59 -51.0072 1738.37 -21.2296 1695.12C7.91406 1652.8 97.1614 1701.8 135.935 1710.7C182.949 1721.48 266.933 1727.31 311.012 1704.35C343.903 1687.22 344.329 1666.36 382.083 1686.47C453.671 1724.59 567.623 1707.12 643.831 1710.12C673.542 1711.29 810.735 1747.65 806.195 1686.47C801.032 1616.87 713.278 1634.39 668.677 1619.55C621.806 1603.95 533.492 1635.49 509.779 1585.51C497.621 1559.88 483.237 1531.68 450.264 1541.09C401.697 1554.94 411.654 1528.3 387.283 1496.66C352.147 1451.06 311.05 1467.8 263.054 1466.09C247.065 1465.52 216.532 1451.9 213.94 1433.78C198.643 1326.87 163.43 1279.08 46.9523 1290.71C-9.58521 1296.35 -82.1155 1330.87 -106.746 1385.32C-121.495 1417.93 -123.177 1494.52 -155.86 1516.28C-202.883 1547.58 -1160.69 1917.57 -852.657 1720.95C-1007.85 1660.69 -1309.44 1787.1 -1428.07 1802.45C-1457.02 1806.2 -1511.93 1813.7 -1532.08 1840.53C-1545.56 1858.47 -1561.36 1873.78 -1584.66 1863.6Z" fill="white" fill-opacity="0.7"/>
</g>
</g>
<defs>
<linearGradient id="paint0_linear_412_678" x1="3133.5" y1="0" x2="3133.5" y2="3887" gradientUnits="userSpaceOnUse">
<stop stop-color="#D39BCA"/>
<stop offset="0.330365" stop-color="#FC9C95"/>
</linearGradient>
<linearGradient id="paint1_linear_412_678" x1="3006" y1="-377" x2="3006" y2="4068" gradientUnits="userSpaceOnUse">
<stop stop-color="#F4F2BB"/>
<stop offset="1" stop-color="#FD787A"/>
</linearGradient>
</defs>
</svg>
