<svg width="3450" height="2960" viewBox="0 0 3450 2960" fill="none" xmlns="http://www.w3.org/2000/svg">
<rect x="-2972" y="-377" width="11956" height="3337" fill="url(#paint0_linear_598_393)"/>
<g style="mix-blend-mode:soft-light">
<path d="M5974.53 142.346C6133.36 170.224 6276.56 223.317 6438 223.317V331.278H6047.79C5781.1 331.278 5511.13 423.137 5252.41 358.268C5196.22 344.18 5107.59 273.155 5078.98 347.772C5054.18 412.435 5068.69 493.219 4984.79 493.219C4368.07 493.219 3757.91 456.964 3145.85 379.26C2805.21 336.014 2446.38 292.368 2118.73 182.831C2077.84 169.16 1861.52 142.346 1988.66 142.346H2712.28C3070.4 142.346 3388.42 160.767 3737.9 251.807C4122.07 351.885 4458.15 394.521 4841.26 277.297C5037.52 217.247 5238.58 129.317 5442.28 100.361C5619.02 75.2379 5800.94 111.879 5974.53 142.346Z" fill="#B695C2"/>
</g>
<g style="mix-blend-mode:soft-light">
<path d="M428.27 392.754C373.855 209.564 -425.551 338.006 -609 338.006C-546.273 491.584 -694.64 761.798 -317.583 767.165C-277.477 767.736 -220.272 760.467 -181.974 767.165C-95.835 782.229 -247.886 897.206 -265.648 915.516C-318.063 969.551 -269.796 955.881 -196.4 964.967C-73.309 980.205 46.3474 1004.09 170.035 1017.95C443.091 1048.55 724.305 1036.81 989.464 986.16C1155.31 954.481 1293.72 888.76 1456.88 855.469C1813.3 782.749 2207.71 790.502 2572.06 837.808C2831.09 871.441 3073.66 939.99 3343.88 942.007C3660.33 944.37 4100.57 980.591 4385.48 881.961C4680.89 779.694 4845.04 624.112 5209.23 624.112C5256.86 624.112 5575.47 643.002 5479.01 616.164C5254.65 553.742 4924.13 571 4686.99 577.31C4222.9 589.661 3711.88 646.262 3261.65 711.533C3070.94 739.18 2954.8 704.956 2752.39 688.574C2483.73 666.829 2302.56 617.688 2054.14 560.533C1647.55 466.984 1245.13 481.059 819.23 481.059C734.273 481.059 512.065 506.226 441.254 465.164C414.392 449.587 434.298 413.047 428.27 392.754Z" fill="#FFBDB4"/>
</g>
<defs>
<linearGradient id="paint0_linear_598_393" x1="3006" y1="-377" x2="3006" y2="2960" gradientUnits="userSpaceOnUse">
<stop stop-color="#C5E0EC"/>
<stop offset="1" stop-color="#817FBD"/>
</linearGradient>
</defs>
</svg>
