<svg width="1187" height="203" viewBox="0 0 1187 203" fill="none" xmlns="http://www.w3.org/2000/svg">
<path d="M69.6094 166.633V70.6562H45.5859V166.633H69.6094ZM115.195 202.375H33.6328L9.60938 178.586V58.5859L33.6328 34.5625H81.5625L105.586 58.5859V166.633L93.6328 178.586H115.195V202.375ZM270.117 34.5625L238.945 202.375H200.508L190.898 146.711L181.289 202.375H142.969L111.914 34.5625H147.656L166.875 127.492L181.289 34.5625H200.508L214.922 127.492L234.141 34.5625H270.117ZM360.117 199.914H276.094V32.2188H360.117V68.1953H312.07V98.1953H360.117V134.172H312.07V164.172H360.117V199.914ZM439.453 83.7812V53.7812H415.43V83.7812H439.453ZM475.43 185.852H439.453V119.758H415.43V185.852H379.453V17.8047H451.406L475.43 41.8281V84.9531L458.672 101.828L475.43 118.586V185.852ZM686.836 199.914H650.859V134.172H626.836V199.914H590.859V32.2188H626.836V98.1953H650.859V32.2188H686.836V199.914ZM757.031 116.242L748.125 64.0938L739.336 116.242H757.031ZM803.32 176.242H767.344L763.242 152.219H733.008L728.906 176.242H693.164L724.219 8.19531H772.148L803.32 176.242ZM905.508 178.586L881.484 202.375H833.555L809.531 178.586V58.5859L833.555 34.5625H881.484L905.508 58.5859V94.5625H869.531V70.6562H845.508V166.633H869.531V142.609H905.508V178.586ZM1020.82 197.57H984.844L960.82 130.656V197.57H924.844V29.7578H960.82V97.0234L984.844 29.7578H1020.82L990.82 113.781L1020.82 197.57ZM1136.13 164.172L1112.11 188.195H1064.18L1040.16 164.172V140.148H1076.13V152.219H1100.16V122.219H1064.18L1040.16 98.1953V44.1719L1064.18 20.1484H1112.11L1136.13 44.1719V68.1953H1100.16V56.2422H1076.13V86.2422H1112.11L1136.13 110.148V164.172Z" fill="#D12A85"/>
<path d="M84.6094 158.633V62.6562H60.5859V158.633H84.6094ZM130.195 194.375H48.6328L24.6094 170.586V50.5859L48.6328 26.5625H96.5625L120.586 50.5859V158.633L108.633 170.586H130.195V194.375ZM285.117 26.5625L253.945 194.375H215.508L205.898 138.711L196.289 194.375H157.969L126.914 26.5625H162.656L181.875 119.492L196.289 26.5625H215.508L229.922 119.492L249.141 26.5625H285.117ZM375.117 191.914H291.094V24.2188H375.117V60.1953H327.07V90.1953H375.117V126.172H327.07V156.172H375.117V191.914ZM454.453 75.7812V45.7812H430.43V75.7812H454.453ZM490.43 177.852H454.453V111.758H430.43V177.852H394.453V9.80469H466.406L490.43 33.8281V76.9531L473.672 93.8281L490.43 110.586V177.852ZM701.836 191.914H665.859V126.172H641.836V191.914H605.859V24.2188H641.836V90.1953H665.859V24.2188H701.836V191.914ZM772.031 108.242L763.125 56.0938L754.336 108.242H772.031ZM818.32 168.242H782.344L778.242 144.219H748.008L743.906 168.242H708.164L739.219 0.195312H787.148L818.32 168.242ZM920.508 170.586L896.484 194.375H848.555L824.531 170.586V50.5859L848.555 26.5625H896.484L920.508 50.5859V86.5625H884.531V62.6562H860.508V158.633H884.531V134.609H920.508V170.586ZM1035.82 189.57H999.844L975.82 122.656V189.57H939.844V21.7578H975.82V89.0234L999.844 21.7578H1035.82L1005.82 105.781L1035.82 189.57ZM1151.13 156.172L1127.11 180.195H1079.18L1055.16 156.172V132.148H1091.13V144.219H1115.16V114.219H1079.18L1055.16 90.1953V36.1719L1079.18 12.1484H1127.11L1151.13 36.1719V60.1953H1115.16V48.2422H1091.13V78.2422H1127.11L1151.13 102.148V156.172Z" fill="#FFBDD6"/>
</svg>
