<svg width="2509" height="1031" viewBox="0 0 2509 1031" fill="none" xmlns="http://www.w3.org/2000/svg">
<path d="M814.301 0H2509V993.351H814.301V0Z" fill="#BA937D"/>
<path d="M1446.36 33.6333C1460.15 29.345 1475.94 19.0891 1478.58 0H251.092V1011.4H304.23C320.118 1011.4 341.36 1016.1 356.703 1009.93C390.578 996.32 430.684 996.988 465.857 996.988C493.172 996.988 520.674 997.313 547.336 1005.26C563.451 1010.07 579.185 1016.7 595.27 1021.68C639.241 1035.3 685.736 1030.47 730.661 1028.75C764.896 1027.44 799.101 1031.78 833.284 1030.49C856.957 1029.6 880.656 1025.86 904.245 1023.41C913.351 1022.47 927.073 1024.39 935.464 1018.61C938.567 1016.47 938.565 1007.84 938.563 1003.89V1003.66C938.563 987.74 939.405 971.529 944.984 956.814C953.691 933.852 975.678 925.818 983.952 902.494C991.577 880.998 994.997 858.107 1003.33 836.829C1007.33 826.603 1031.34 777.583 1023.14 767.694C1017.2 760.528 1002.23 753.029 1014.4 740.2C1020.27 733.998 1029.23 730.622 1036.2 726.853C1050.16 719.309 1059.7 704.734 1067.09 689.083C1082.21 657.069 1097.59 631.14 1121.34 607.402C1136.43 592.315 1151.94 576.062 1169.71 565.627C1176.91 561.405 1187.86 562.455 1193.4 554.816C1198.2 548.213 1195.48 533.492 1196.06 525.587C1197.37 507.899 1209.03 474.255 1226.5 471.133C1231.15 470.304 1238.29 472.904 1242.56 470.333C1245 468.862 1247.18 455.997 1248.65 452.982C1255.72 438.427 1266.15 441.54 1277.54 437.233C1282 435.547 1288.59 434.677 1292.15 430.96C1296.89 426.013 1298.69 418.697 1303.67 413.476C1319.22 397.151 1338.04 384.083 1356.58 373.437C1370.24 365.597 1379.34 365.433 1393.26 365.183L1394.44 365.162L1394.82 365.155C1401.25 365.038 1408.51 364.906 1414.15 360.624C1424.58 352.696 1422.69 333.877 1416.36 323.254C1411.65 315.348 1403.55 309.741 1395.99 306.704C1392.18 305.173 1384.5 307.293 1382.49 302.7C1376.44 288.926 1401.74 287.773 1400.53 271.736C1399.39 256.557 1380.94 268.206 1380.94 256.921C1380.94 248.387 1381.65 240.488 1372.52 240.238C1362.57 239.965 1339.35 243.833 1333.56 230.628C1332.78 228.869 1374.38 224.922 1371.64 215.013C1367.98 201.802 1344.74 200.94 1336.1 199.397C1315.54 195.725 1295.11 198.477 1274.44 196.728C1245.03 194.24 1285.67 178.487 1293.92 175.107C1304.28 170.864 1314.13 166.259 1324.15 160.959C1336.48 154.429 1360.76 136.134 1340.64 120.653C1332.41 114.316 1320.94 110.211 1317.61 97.6968C1314.7 86.7371 1335.16 91.1179 1339.53 90.7566C1348.83 89.9891 1373.36 89.4146 1378.5 77.0096C1380.28 72.728 1376.25 67.8821 1374.96 64.3304C1373.21 59.4988 1367.34 45.238 1374.74 43.7767C1398.6 39.0604 1422.64 41.0138 1446.36 33.6333Z" fill="white"/>
<path d="M1301.15 33.6333C1314.93 29.345 1330.72 19.0891 1333.36 0H105.878V1011.4H159.016C174.904 1011.4 196.146 1016.1 211.49 1009.93C245.364 996.32 285.47 996.987 320.644 996.987C347.958 996.987 375.46 997.313 402.122 1005.26C418.237 1010.07 433.971 1016.7 450.057 1021.68C494.027 1035.3 540.522 1030.47 585.447 1028.75C619.682 1027.44 653.887 1031.78 688.07 1030.49C711.743 1029.6 735.442 1025.86 759.031 1023.41C768.137 1022.47 781.859 1024.39 790.25 1018.61C793.354 1016.47 793.351 1007.84 793.349 1003.89V1003.66C793.349 987.739 794.191 971.529 799.77 956.814C808.477 933.851 830.464 925.818 838.738 902.494C846.363 880.998 849.783 858.107 858.111 836.829C862.114 826.603 886.13 777.583 877.927 767.694C871.983 760.527 857.02 753.029 869.182 740.2C875.061 733.998 884.018 730.621 890.99 726.853C904.951 719.309 914.484 704.734 921.877 689.082C936.998 657.069 952.378 631.14 976.122 607.402C991.212 592.315 1006.72 576.062 1024.5 565.627C1031.69 561.405 1042.65 562.455 1048.19 554.816C1052.98 548.213 1050.26 533.492 1050.85 525.587C1052.16 507.899 1063.82 474.255 1081.29 471.133C1085.93 470.304 1093.08 472.904 1097.34 470.332C1099.78 468.862 1101.97 455.997 1103.43 452.982C1110.51 438.427 1120.94 441.54 1132.33 437.233C1136.78 435.547 1143.38 434.677 1146.94 430.96C1151.67 426.013 1153.48 418.697 1158.45 413.476C1174.01 397.151 1192.82 384.082 1211.37 373.437C1225.02 365.597 1234.13 365.433 1248.05 365.183L1249.23 365.162L1249.61 365.155C1256.04 365.038 1263.3 364.906 1268.93 360.624C1279.36 352.696 1277.47 333.877 1271.15 323.254C1266.44 315.348 1258.34 309.741 1250.78 306.704C1246.97 305.173 1239.29 307.293 1237.27 302.7C1231.22 288.926 1256.53 287.773 1255.32 271.736C1254.17 256.557 1235.72 268.206 1235.72 256.921C1235.72 248.387 1236.44 240.488 1227.31 240.238C1217.35 239.965 1194.14 243.833 1188.34 230.628C1187.57 228.869 1229.16 224.922 1226.42 215.013C1222.77 201.802 1199.53 200.94 1190.89 199.397C1170.33 195.725 1149.9 198.477 1129.23 196.728C1099.82 194.24 1140.46 178.487 1148.71 175.107C1159.06 170.864 1168.92 166.259 1178.93 160.959C1191.27 154.429 1215.54 136.134 1195.43 120.653C1187.19 114.316 1175.72 110.211 1172.4 97.6968C1169.49 86.7371 1189.94 91.1179 1194.32 90.7566C1203.61 89.9891 1228.14 89.4146 1233.29 77.0096C1235.06 72.728 1231.03 67.8821 1229.74 64.3304C1227.99 59.4988 1222.13 45.238 1229.52 43.7767C1253.39 39.0604 1277.43 41.0138 1301.15 33.6333Z" fill="#B4ECF1"/>
<path d="M1196.44 33.6333C1210.24 29.345 1226.05 19.0891 1228.69 0H0V1011.4H53.1899C69.094 1011.4 90.3567 1016.1 105.715 1009.93C139.623 996.32 179.768 996.987 214.976 996.987C242.317 996.987 269.846 997.313 296.534 1005.26C312.665 1010.07 328.415 1016.7 344.515 1021.68C388.529 1035.3 435.069 1030.47 480.039 1028.75C514.307 1027.44 548.545 1031.78 582.762 1030.49C606.458 1029.6 630.18 1025.86 653.792 1023.41C662.907 1022.47 676.642 1024.39 685.042 1018.61C688.148 1016.47 688.145 1007.84 688.144 1003.89V1003.66C688.144 987.739 688.986 971.529 694.571 956.814C703.287 933.851 725.295 925.818 733.577 902.494C741.21 880.998 744.633 858.107 752.969 836.829C756.976 826.603 781.016 777.583 772.805 767.694C766.855 760.527 751.877 753.029 764.051 740.2C769.936 733.998 778.901 730.621 785.881 726.853C799.854 719.309 809.398 704.734 816.797 689.082C831.933 657.069 847.328 631.14 871.095 607.402C886.2 592.315 901.725 576.062 919.52 565.627C926.72 561.405 937.685 562.455 943.234 554.816C948.031 548.213 945.308 533.492 945.894 525.587C947.205 507.899 958.874 474.255 976.367 471.133C981.012 470.304 988.164 472.904 992.435 470.332C994.876 468.862 997.062 455.997 998.529 452.982C1005.61 438.427 1016.05 441.54 1027.45 437.233C1031.91 435.547 1038.52 434.677 1042.08 430.96C1046.82 426.013 1048.62 418.697 1053.6 413.476C1069.17 397.151 1088.01 384.082 1106.57 373.437C1120.24 365.597 1129.36 365.433 1143.29 365.183L1144.47 365.162L1144.85 365.155C1151.29 365.038 1158.55 364.906 1164.19 360.624C1174.63 352.696 1172.74 333.877 1166.41 323.254C1161.7 315.348 1153.59 309.741 1146.02 306.704C1142.21 305.173 1134.52 307.293 1132.5 302.7C1126.45 288.926 1151.77 287.773 1150.56 271.736C1149.42 256.557 1130.95 268.206 1130.95 256.921C1130.95 248.387 1131.67 240.488 1122.53 240.238C1112.56 239.965 1089.33 243.833 1083.52 230.628C1082.75 228.869 1124.38 224.922 1121.64 215.013C1117.99 201.802 1094.72 200.94 1086.07 199.397C1065.49 195.725 1045.04 198.477 1024.35 196.728C994.915 194.24 1035.59 178.487 1043.85 175.107C1054.22 170.864 1064.08 166.259 1074.1 160.959C1086.45 154.429 1110.75 136.134 1090.61 120.653C1082.37 114.316 1070.89 110.211 1067.57 97.6968C1064.65 86.7371 1085.13 91.1179 1089.51 90.7566C1098.81 89.9891 1123.36 89.4146 1128.51 77.0096C1130.29 72.728 1126.26 67.8821 1124.97 64.3304C1123.21 59.4988 1117.34 45.238 1124.74 43.7767C1148.63 39.0604 1172.69 41.0138 1196.44 33.6333Z" fill="#448B91"/>
</svg>
