<?xml version="1.0" encoding="UTF-8"?>
<svg version="1.1" xmlns="http://www.w3.org/2000/svg" width="2100" height="1500">
<path d="M0 0 C2.76848425 0.01612282 5.53551377 0.00002444 8.30395508 -0.01904297 C23.01175351 -0.03718339 36.9727553 1.68320971 51.0793457 6.01611328 C51.90394287 6.26844727 52.72854004 6.52078125 53.578125 6.78076172 C68.79133351 11.64690543 82.26344586 19.12550637 95.2043457 28.39111328 C98.81280802 27.03793991 100.9795471 24.67680356 103.5690918 21.89624023 C112.08984455 12.75086974 121.86840397 6.05445995 134.74886876 5.13926429 C136.64598443 5.13796412 136.64598443 5.13796412 138.58142567 5.13663769 C139.65018995 5.13182797 139.65018995 5.13182797 140.74054542 5.12692109 C143.12234522 5.11863558 145.50389261 5.12454023 147.88569641 5.13041687 C149.6129039 5.12739552 151.34011006 5.12350612 153.06731385 5.1188243 C157.80947475 5.10853335 162.55156015 5.11072894 167.29372728 5.1150049 C172.40973438 5.11747014 177.52572321 5.10846043 182.64172363 5.10096741 C192.66321879 5.08821252 202.68468717 5.08642772 212.70618907 5.08876767 C220.85191643 5.0905502 228.99763566 5.08880258 237.14336205 5.08454323 C238.8819231 5.08365044 238.8819231 5.08365044 240.65560659 5.08273963 C243.01016155 5.08152788 245.3647165 5.08031375 247.71927144 5.07909725 C269.80500209 5.06821855 291.89071747 5.0703857 313.97644898 5.07648209 C334.18039599 5.08165085 354.38429478 5.07039747 374.58823226 5.05138388 C395.33327437 5.03201073 416.07829367 5.0237486 436.82334489 5.02750713 C448.47021616 5.02942005 460.1170464 5.02692274 471.76391029 5.01279259 C481.67965094 5.00088446 491.59532529 4.99946751 501.51106683 5.01158275 C506.56948803 5.01747556 511.62778794 5.01855972 516.6862011 5.00658035 C521.31936498 4.99573566 525.95230609 4.99880816 530.58545949 5.01284204 C532.25903745 5.01549286 533.93263278 5.01311033 535.6061937 5.00510617 C551.49267509 4.93441662 564.44330176 7.89142587 576.2043457 19.39111328 C584.96257623 29.97798535 588.3453019 41.06835682 588.36547852 54.68457031 C588.37044342 55.49522446 588.37540833 56.3058786 588.38052368 57.14109802 C588.39507019 59.81038275 588.40193586 62.479608 588.4074707 65.14892578 C588.41029808 66.06621334 588.41312546 66.9835009 588.41603851 67.92858505 C588.43100329 72.78588903 588.440249 77.64316354 588.44458008 82.50048828 C588.45005088 87.4899585 588.47405729 92.47915393 588.50255203 97.46853828 C588.52128386 101.3292822 588.52638966 105.18996142 588.52791595 109.05074692 C588.53092086 110.88854341 588.53887522 112.72633937 588.55210114 114.56409073 C588.68164102 133.95247725 588.68164102 133.95247725 585.2043457 143.39111328 C584.92104401 144.27297302 584.63774231 145.15483276 584.34585571 146.06341553 C581.35894355 153.19345349 576.56534203 156.46427597 570.39819336 160.66210938 C556.71085826 170.37214827 542.99111437 181.90452853 539.54272199 199.07290435 C535.59950157 222.91460231 537.30504745 247.91389501 538.24811387 271.94612193 C538.67844417 283.07461293 538.87162877 294.20548158 539.0559082 305.34033203 C539.12094198 309.26486435 539.18690357 313.18937702 539.25479126 317.11386108 C539.27111591 318.06489759 539.28744056 319.01593409 539.3042599 319.99578989 C539.40641519 325.5958646 539.55322965 331.19248963 539.74407172 336.79023671 C539.86204003 340.26491181 539.96531825 343.73996332 540.0680294 347.21511841 C540.11980934 348.81326835 540.17919547 350.41119467 540.24712944 352.00873947 C540.99626754 369.67237578 535.96452035 381.23282316 524.18533325 394.21820068 C517.49394715 401.41483659 510.44015562 408.2753337 503.48168945 415.21142578 C501.76797421 416.92327286 500.0544819 418.63534315 498.34120178 420.34762573 C493.86038106 424.82465265 489.37656399 429.29866667 484.89208984 433.77203369 C480.30488821 438.34895332 475.72056318 442.92875225 471.13598633 447.50830078 C462.16156635 456.47203885 453.18407187 465.43269103 444.2043457 474.39111328 C444.93160355 474.39920013 445.65886139 474.40728699 446.40815735 474.4156189 C453.30673982 474.49399239 460.20515684 474.58140693 467.10349751 474.67864037 C470.64887496 474.72830328 474.19422686 474.77463222 477.73974609 474.81298828 C481.82838541 474.85737319 485.91668902 474.91689472 490.00512695 474.97705078 C491.26077957 474.98860199 492.51643219 475.0001532 493.81013489 475.01205444 C507.65701828 475.24125305 519.56899555 476.80426091 530.0168457 486.57861328 C538.76739837 495.84026018 540.58287585 505.20364017 540.4185791 517.47241211 C540.14946675 526.06523339 538.66073887 534.51426218 537.2824707 542.98486328 C536.9773829 544.91186289 536.67309795 546.83898976 536.36956787 548.76623535 C535.73575872 552.77118913 535.09266909 556.7745054 534.44262695 560.77685547 C533.61361396 565.8856608 532.80791003 570.99782487 532.00899124 576.11141205 C531.38669445 580.0781562 530.75235626 584.0429029 530.11440277 588.00715637 C529.81258028 589.89148706 529.51437871 591.77640171 529.22000885 593.66191101 C528.80670524 596.29708346 528.37723681 598.92914185 527.94360352 601.56103516 C527.82707428 602.3248349 527.71054504 603.08863464 527.59048462 603.87557983 C525.49738551 616.23842195 519.2001623 625.8902525 509.2043457 633.39111328 C502.1453216 637.38398105 495.54826749 638.51420626 487.49731445 638.70751953 C486.77191971 638.72830063 486.04652496 638.74908173 485.29914856 638.77049255 C482.99680458 638.83553543 480.69435288 638.89466101 478.3918457 638.95361328 C476.82477756 638.99684163 475.25772006 639.04045726 473.69067383 639.08447266 C469.86200634 639.19116996 466.03323121 639.29256297 462.2043457 639.39111328 C463.02273926 640.17832764 463.84113281 640.96554199 464.68432617 641.77661133 C487.73540424 664.03345927 503.6210339 693.02209093 504.4074707 725.55908203 C504.87921812 767.42517206 493.95249948 806.90375194 468.2043457 840.39111328 C467.52114258 841.29861328 466.83793945 842.20611328 466.1340332 843.14111328 C443.65864346 871.85491919 412.66106398 892.3956473 377.4543457 901.76611328 C376.55683594 902.00499268 375.65932617 902.24387207 374.73461914 902.48999023 C358.11497171 906.63889571 341.80860345 906.6777032 324.77637863 906.64838219 C322.07446561 906.65107744 319.37256396 906.6545646 316.6706543 906.65900666 C310.79134573 906.66708026 304.91207256 906.66778116 299.03276047 906.66359477 C290.23127148 906.6573621 281.42981477 906.66268452 272.62832812 906.67019218 C257.62576805 906.68264699 242.62321953 906.68560629 227.62065506 906.68335724 C212.42052719 906.68110728 197.22040912 906.68318016 182.02028275 906.69050217 C181.05969088 906.69096147 180.09909902 906.69142078 179.10939832 906.691894 C175.19696942 906.69377731 171.28454053 906.69568868 167.37211167 906.69763638 C126.57345108 906.71791721 85.77479599 906.72404801 44.97613093 906.72522061 C40.5858987 906.7253501 36.19566646 906.72548598 31.80543423 906.72562742 C30.17127424 906.72567844 30.17127424 906.72567844 28.50410092 906.72573048 C4.35977261 906.72654748 -19.78455466 906.73092751 -43.92888242 906.73593911 C-53.8711034 906.7379958 -63.81332439 906.73997587 -73.75554538 906.74197161 C-74.85406719 906.74219279 -75.95258901 906.74241397 -77.08439936 906.74264185 C-140.02704672 906.75528842 -202.96969338 906.76354022 -265.91234207 906.76262474 C-268.26751392 906.76259318 -270.62268576 906.76256171 -272.97785761 906.76253032 C-283.61127286 906.76238356 -294.2446881 906.76220722 -304.87810335 906.76202256 C-309.61982735 906.76194031 -314.36155135 906.76186001 -319.10327535 906.76177993 C-321.47659121 906.76173914 -323.84990707 906.7616971 -326.22322293 906.76165381 C-401.29880706 906.7602928 -476.37437233 906.77493766 -551.44995117 906.80273438 C-570.37154764 906.80973628 -589.29314413 906.81667513 -608.21474075 906.82326317 C-609.96230184 906.82387179 -609.96230184 906.82387179 -611.7451672 906.82449271 C-647.642432 906.83691914 -683.53969526 906.84445311 -719.43696213 906.84697914 C-720.56367789 906.84705904 -721.69039364 906.84713894 -722.85125231 906.84722127 C-747.58298147 906.84892766 -772.31471055 906.84945026 -797.04643976 906.84888051 C-805.89529835 906.84868754 -814.74415694 906.84858346 -823.59301552 906.84852306 C-825.79441337 906.84850723 -827.99581122 906.84848682 -830.19720907 906.84846181 C-865.29396065 906.84810897 -900.39069609 906.85951289 -935.48744304 906.87676944 C-970.82403244 906.89405568 -1006.16059949 906.89846337 -1041.49719134 906.8852468 C-1046.37719272 906.88342214 -1051.25719413 906.8817356 -1056.13719559 906.88013077 C-1057.09382586 906.87981059 -1058.05045613 906.87949042 -1059.0360752 906.87916054 C-1074.19858446 906.87444996 -1089.36105513 906.88318018 -1104.52355714 906.89747314 C-1119.42371699 906.91123869 -1134.32381971 906.91078537 -1149.22397829 906.89508887 C-1157.96489164 906.88630864 -1166.70563693 906.88851061 -1175.44653645 906.90682244 C-1181.24866866 906.91788793 -1187.05067519 906.91449505 -1192.85279767 906.89925687 C-1196.14381773 906.89102056 -1199.43444141 906.89121047 -1202.72545356 906.90475825 C-1206.26440148 906.91835569 -1209.80245935 906.90735229 -1213.34137273 906.8902086 C-1214.35098622 906.90000784 -1215.36059972 906.90980708 -1216.40080756 906.91990326 C-1227.56469261 906.80704927 -1236.70593288 903.10162901 -1244.7956543 895.39111328 C-1252.89925234 886.85339392 -1255.25630227 877.3115824 -1255.03186035 865.77868652 C-1254.69039834 857.4659686 -1253.20452686 849.26207118 -1251.8737793 841.06298828 C-1251.56878134 839.13790734 -1251.26449417 837.21271367 -1250.96087646 835.28741455 C-1250.32606786 831.27907291 -1249.68305007 827.27216232 -1249.03393555 823.26611328 C-1248.20710983 818.15936851 -1247.40067342 813.04965071 -1246.60029984 807.93870163 C-1245.97687953 803.97205724 -1245.34286644 800.00716094 -1244.70571136 796.04270172 C-1244.40435377 794.15995012 -1244.10615092 792.27669047 -1243.81131744 790.39290619 C-1241.16888656 773.5778352 -1238.40347606 760.4702107 -1224.2956543 749.45361328 C-1217.47130946 745.12269502 -1210.33898928 743.94240045 -1202.38549805 743.87939453 C-1201.53258682 743.86144333 -1200.6796756 743.84349213 -1199.80091858 743.82499695 C-1197.11171219 743.77138161 -1194.42267813 743.73715692 -1191.7331543 743.70361328 C-1189.89523993 743.67039699 -1188.05734817 743.63590342 -1186.21948242 743.60009766 C-1181.7449985 743.51568412 -1177.27056133 743.44864281 -1172.7956543 743.39111328 C-1173.6724585 742.52808594 -1174.5492627 741.66505859 -1175.45263672 740.77587891 C-1176.62312671 739.61653644 -1177.7934464 738.45702202 -1178.96362305 737.29736328 C-1179.53914917 736.73178711 -1180.11467529 736.16621094 -1180.7076416 735.58349609 C-1198.13953982 718.26875601 -1210.15012605 696.2301452 -1215.7956543 672.39111328 C-1215.98329346 671.60623535 -1216.17093262 670.82135742 -1216.36425781 670.01269531 C-1218.13321137 661.63476752 -1218.15162976 653.28486219 -1218.1081543 644.76611328 C-1218.10599915 644.00900055 -1218.10384399 643.25188782 -1218.10162354 642.47183228 C-1218.05138331 631.49027807 -1217.64111593 621.05200726 -1214.7956543 610.39111328 C-1214.59697754 609.5902832 -1214.39830078 608.78945313 -1214.19360352 607.96435547 C-1210.99426509 595.14303668 -1206.63778652 583.233549 -1200.7956543 571.39111328 C-1200.40861328 570.59930664 -1200.02157227 569.8075 -1199.62280273 568.99169922 C-1194.23016809 558.06280043 -1188.24917438 548.03116032 -1180.7956543 538.39111328 C-1180.11374023 537.48619141 -1179.43182617 536.58126953 -1178.72924805 535.64892578 C-1171.43278055 526.31720075 -1162.68133546 515.98156739 -1152.7956543 509.39111328 C-1154.0899234 509.38564484 -1154.0899234 509.38564484 -1155.41033936 509.38006592 C-1163.5890025 509.34201312 -1171.76727387 509.28496645 -1179.94565964 509.20721054 C-1184.14909043 509.16789956 -1188.35231688 509.13563163 -1192.5559082 509.12011719 C-1196.62161199 509.10484154 -1200.68675332 509.07020662 -1204.7522049 509.02280426 C-1206.29408089 509.00810182 -1207.83603724 509.00007875 -1209.37798309 508.99922943 C-1222.36129459 508.98490156 -1233.48876175 507.374406 -1243.60424805 498.59033203 C-1253.84839986 488.30965918 -1255.17781706 476.98765348 -1255.2124939 463.09765625 C-1255.20712346 461.23713957 -1255.20097032 459.376625 -1255.1940918 457.51611328 C-1255.19611625 455.5813791 -1255.19903078 453.64664566 -1255.20278931 451.71191406 C-1255.20719515 447.67066127 -1255.20083788 443.62960834 -1255.18676758 439.58837891 C-1255.16967683 434.43063443 -1255.17952737 429.27335843 -1255.19748497 424.1156311 C-1255.20836996 420.12455775 -1255.2048549 416.13359389 -1255.19710159 412.14251709 C-1255.1951126 410.2416783 -1255.19751268 408.34082928 -1255.20454025 406.44000244 C-1255.24696312 391.74317573 -1254.57614555 379.58972316 -1243.90893555 368.41455078 C-1234.86876194 360.06704274 -1225.60363869 358.2826836 -1213.7956543 356.39111328 C-1214.70444336 355.53453125 -1214.70444336 355.53453125 -1215.6315918 354.66064453 C-1239.20370749 331.8500895 -1254.0064891 301.17030491 -1254.9987793 268.14892578 C-1255.52311878 230.62878522 -1244.27915473 193.5856244 -1218.7956543 165.39111328 C-1217.91522461 164.41658203 -1217.03479492 163.44205078 -1216.12768555 162.43798828 C-1196.43149719 141.38565784 -1168.42827081 128.81784222 -1139.7956543 126.39111328 C-1135.30334795 126.24646738 -1130.81348289 126.25338545 -1126.31915188 126.25968552 C-1124.94562355 126.25803402 -1123.57209569 126.25594689 -1122.19856861 126.25346541 C-1118.42205026 126.24791292 -1114.64555465 126.24856858 -1110.86903353 126.250243 C-1106.76098027 126.25097517 -1102.65293337 126.24594864 -1098.54488283 126.24166799 C-1090.39584885 126.23409274 -1082.24682141 126.23189516 -1074.09778427 126.23133893 C-1064.33681376 126.2304248 -1054.57584929 126.2237557 -1044.81488138 126.21699211 C-1021.22050185 126.20093331 -997.62612296 126.19502859 -974.03173894 126.19024336 C-962.86645941 126.1879069 -951.7011804 126.18430415 -940.53590128 126.18054798 C-902.30544642 126.16771146 -864.07499184 126.15699324 -825.84453487 126.15354538 C-823.44464341 126.15332375 -821.04475194 126.15310196 -818.64486048 126.15288003 C-816.23920612 126.15265939 -813.83355176 126.15243891 -811.42789739 126.15221858 C-806.60183394 126.15177603 -801.77577049 126.15132891 -796.94970703 126.15087891 C-795.75312405 126.15076952 -794.55654108 126.15066012 -793.32369801 126.15054742 C-754.54246393 126.14691846 -715.76124856 126.131005 -676.98002164 126.10768854 C-635.96562105 126.0830746 -594.95123114 126.06937178 -553.93682295 126.06817746 C-549.43143403 126.06800601 -544.92604512 126.06779059 -540.4206562 126.06754303 C-539.31132595 126.06748726 -538.2019957 126.06743149 -537.05904937 126.06737403 C-519.22982337 126.06622483 -501.40061661 126.05521373 -483.5713971 126.04065597 C-465.63744736 126.02626636 -447.70352219 126.02306785 -429.76956826 126.03109595 C-419.12531814 126.0355409 -408.48114755 126.03173722 -397.83690794 126.01585745 C-390.71267808 126.00606501 -383.58850357 126.00732615 -376.46427415 126.01729367 C-372.41419993 126.0226552 -368.36427775 126.02349566 -364.31421649 126.01078495 C-317.75089646 125.87408068 -268.84868947 133.58539866 -232.93237305 165.87158203 C-232.22725586 166.37302734 -231.52213867 166.87447266 -230.7956543 167.39111328 C-227.0308657 166.13618375 -226.10184763 164.56013809 -223.6706543 161.45361328 C-216.10759863 151.82664682 -207.63444604 143.07779727 -198.99023438 134.42456055 C-197.93755768 133.36724087 -196.88507318 132.30972981 -195.83276367 131.25204468 C-193.00229063 128.40859177 -190.16861352 125.56835468 -187.33387971 122.72915006 C-185.55516473 120.94748208 -183.77702909 119.16523782 -181.99905968 117.38282585 C-176.41317119 111.78330318 -170.82531304 106.18575736 -165.23454362 100.5911079 C-158.82266182 94.17474902 -152.41736936 87.75190753 -146.01775247 81.32331616 C-141.04101178 76.3248411 -136.05840654 71.33226039 -131.07145232 66.34397548 C-128.10637797 63.3778619 -125.14369325 60.40945956 -122.18714333 57.43484688 C-99.92685862 35.04649885 -77.66738691 15.62890307 -46.9831543 6.14111328 C-46.238479 5.90690674 -45.49380371 5.6727002 -44.7265625 5.43139648 C-29.97854722 1.11305374 -15.2901672 -0.10555209 0 0 Z " fill="#333F48" transform="translate(1406.795654296875,233.60888671875)"/>
<path d="M0 0 C2.35217497 -0.009645 4.70345117 -0.04071873 7.05541992 -0.07226562 C36.84511361 -0.28079289 63.5020534 10.1632882 84.796875 30.97363281 C88.70622929 34.86913482 92.55281402 38.77504052 95.8190918 43.24023438 C95.8190918 43.90023437 95.8190918 44.56023437 95.8190918 45.24023438 C100.8919981 41.72405899 104.23913108 37.75854171 107.34326172 32.50219727 C114.36604419 20.91519437 123.47760735 9.5211054 136.8190918 5.24023438 C151.97427631 1.82972297 168.14111729 2.56308383 183.5690918 2.86523438 C184.60740898 2.88284443 185.64572617 2.90045448 186.71550751 2.91859818 C193.74983111 3.04700308 200.77510281 3.27715497 207.8034668 3.59179688 C208.73567425 3.63000612 209.6678817 3.66821537 210.62833786 3.70758247 C213.25925312 3.82624454 215.88528707 3.98039895 218.51342773 4.14892578 C219.67113206 4.19960001 219.67113206 4.19960001 220.85222435 4.25129795 C224.7808229 4.55098199 226.6942553 5.13983182 229.79698181 7.63526917 C232.15494284 10.67289149 232.46509947 12.17471245 232.52612305 15.97851562 C232.56829956 17.42158081 232.56829956 17.42158081 232.61132812 18.89379883 C232.61801514 20.10124756 232.62470215 21.30869629 232.6315918 22.55273438 C232.66145779 24.57690632 232.69326984 26.60105011 232.72660828 28.62516785 C232.74382777 29.67689776 232.76104727 30.72862768 232.77878857 31.8122282 C232.79873867 33.01409126 232.79873867 33.01409126 232.8190918 34.24023438 C233.62796467 32.94611728 233.62796467 32.94611728 234.45317841 31.6258564 C242.6073 19.19183975 253.17066147 6.79627499 268.28213501 3.55727386 C285.15392527 0.92707349 302.60489 1.65273161 319.62918869 2.07883059 C327.46636585 2.26962267 335.30180405 2.29500034 343.14096516 2.31416132 C357.1197747 2.35299207 371.09363619 2.52402939 385.07006836 2.77783203 C398.61243061 3.02352862 412.15261878 3.19285253 425.69702148 3.27001953 C426.9538126 3.27720748 426.9538126 3.27720748 428.23599344 3.28454064 C431.60453875 3.30359744 434.9730854 3.32238467 438.34163454 3.34075277 C452.85714164 3.42152401 467.37220632 3.5588215 481.88714671 3.70854789 C484.23118315 3.73248152 486.57522785 3.75542088 488.91927528 3.77824926 C497.80224889 3.86660533 506.68406899 3.98444646 515.56605148 4.14418793 C518.25709314 4.19174272 520.94730681 4.22596547 523.63873672 4.25391769 C527.30375254 4.2938918 530.96687892 4.36456126 534.63122559 4.44381714 C536.23725104 4.45164304 536.23725104 4.45164304 537.87572145 4.45962703 C542.63830744 4.59473412 545.06086257 4.68195557 548.97780991 7.56597614 C551.37108636 11.04194541 551.53751935 13.94141206 551.49780273 18.0246582 C551.50977692 18.79282364 551.5217511 19.56098907 551.53408813 20.35243225 C551.56621275 22.88455931 551.56146232 25.41496941 551.5534668 27.94726562 C551.56191962 29.71458016 551.57156085 31.48188938 551.58233643 33.24919128 C551.59872244 36.95221553 551.59602414 40.65464193 551.58081055 44.35766602 C551.56355094 49.08933688 551.60061905 53.81878325 551.65307236 58.55012989 C551.68625636 62.20067305 551.68673688 65.85068694 551.67792511 69.5013485 C551.67828373 71.24478482 551.6894976 72.98825563 551.7120285 74.7315464 C551.7394478 77.17831701 551.7217559 79.62095281 551.69311523 82.06762695 C551.71908279 83.13478943 551.71908279 83.13478943 551.74557495 84.22351074 C551.61160226 89.60600177 549.61243445 92.52555918 545.92499352 96.36646175 C543.12861543 98.85460099 540.15169493 100.84307818 536.9902401 102.83681107 C522.41133967 112.19399364 506.74807739 125.2779197 502.57859039 142.88835144 C500.06068962 155.83515778 499.97660537 169.11970721 500.01049805 182.26367188 C500.01292747 183.26848004 500.01535689 184.27328821 500.01785994 185.30854511 C500.08059511 197.86633241 500.48101878 210.40538626 501.00151479 222.95158029 C501.57577995 236.91923032 501.86924888 250.89381015 502.13367367 264.87034035 C502.15325604 265.90064444 502.17283842 266.93094853 502.1930142 267.99247396 C502.23195024 270.0466606 502.27032019 272.10085805 502.30810779 274.15506613 C502.42502228 280.12699561 502.60847575 286.09204366 502.85244191 292.06010413 C502.9979236 295.75829723 503.10802197 299.45705132 503.21172714 303.15662575 C503.26821538 304.86240053 503.34075628 306.56773544 503.4309864 308.27205849 C504.18665903 322.71751269 504.18665903 322.71751269 498.91329956 328.70069885 C497.24321737 330.24471112 495.54428479 331.75805439 493.8190918 333.24023438 C492.21104121 334.86759188 490.61476031 336.50665449 489.02980042 338.1565094 C487.30006078 339.89209695 485.56766584 341.62504108 483.83300781 343.35571289 C482.86921487 344.32086519 481.90563384 345.28622913 480.94224548 346.25178528 C478.3582626 348.84027405 475.77119129 351.42565415 473.18335843 354.01029325 C470.46553377 356.72556439 467.75017426 359.44329908 465.03440857 362.16062927 C460.48469378 366.7121546 455.93289363 371.2615864 451.37988281 375.80981445 C446.11496488 381.06926567 440.85369426 386.33234489 435.59425217 391.5972715 C431.06682808 396.1292274 426.53746615 400.65923965 422.00646538 405.18761963 C419.30482804 407.88769793 416.60387118 410.58844762 413.90466499 413.2909565 C411.37469742 415.82380464 408.84231163 418.35420948 406.30800819 420.88271904 C404.93272629 422.25604187 403.55991384 423.63183628 402.18716431 425.00769043 C401.37283432 425.81920059 400.55850433 426.63071075 399.71949768 427.46681213 C399.01034493 428.17558785 398.30119219 428.88436357 397.57054996 429.61461735 C393.93033186 432.99328812 390.11900778 432.41575084 385.40966797 432.44897461 C384.53958603 432.45875839 383.66950409 432.46854218 382.77305603 432.47862244 C379.88607318 432.50860189 376.9991367 432.52996803 374.11206055 432.54882812 C372.63477698 432.55868587 372.63477698 432.55868587 371.12764931 432.56874275 C365.91535503 432.60134644 360.70308131 432.62579567 355.49072266 432.64526367 C351.1730381 432.66308685 346.85600541 432.69792185 342.53857422 432.74780273 C337.32961842 432.80791787 332.12126777 432.83872744 326.91198158 432.84843636 C324.92599768 432.85700657 322.94003061 432.8758631 320.95424461 432.90517998 C318.17434276 432.94401306 315.39680703 432.94514022 312.61669922 432.93725586 C311.79625122 432.95725647 310.97580322 432.97725708 310.13049316 432.99786377 C305.82369275 432.94302493 304.2522205 432.59544894 300.81045532 429.77281189 C298.04130532 425.76655851 298.111539 421.75386763 298.15966797 417.02197266 C298.14918427 416.11401443 298.13870056 415.20605621 298.12789917 414.27058411 C298.0992061 411.28355496 298.10543403 408.29768884 298.11206055 405.31054688 C298.09894206 403.23402457 298.08363737 401.15751502 298.0662384 399.08102417 C298.02639347 393.62627427 298.01619824 388.17185824 298.01220703 382.71697998 C298.00287472 377.14650346 297.96546049 371.57622301 297.93041992 366.00585938 C297.86584907 355.08399353 297.8326048 344.16227439 297.8190918 333.24023438 C297.40939085 333.65454429 296.9996899 334.0688542 296.57757378 334.49571896 C286.55639614 344.6278549 276.52098447 354.74572933 266.47004509 364.84834194 C261.60958914 369.73445802 256.75386274 374.62509836 251.90942383 379.52709961 C247.22664326 384.26549445 242.53052559 388.99029585 237.82629776 393.70741463 C236.04151851 395.50137034 234.26111517 397.2996915 232.48537827 399.10259819 C214.02160013 417.83733957 195.75590309 429.77849068 169.8190918 435.24023438 C169.13903076 435.41828613 168.45896973 435.59633789 167.75830078 435.77978516 C159.9240566 437.67141733 152.09036349 437.54265668 144.08056641 437.50097656 C141.65395671 437.49033248 139.22809978 437.50087836 136.80151367 437.51367188 C123.52431795 437.52737104 110.58236257 436.57528196 97.8190918 432.61523438 C96.97660889 432.35581055 96.13412598 432.09638672 95.26611328 431.82910156 C72.13369459 424.36604088 53.36034217 408.75268403 41.86401367 387.30517578 C37.07915169 377.84948357 31.8190918 366.99466817 31.8190918 356.24023438 C25.34793233 361.68883695 19.39913024 367.5741546 13.4675293 373.59960938 C12.48162531 374.59503466 11.49525664 375.58999989 10.50845337 376.58453369 C6.36225127 380.76389543 2.22022605 384.94732194 -1.91088867 389.14160156 C-30.24458932 417.89343558 -30.24458932 417.89343558 -45.2434082 425.55273438 C-46.41262817 426.16072876 -46.41262817 426.16072876 -47.60546875 426.78100586 C-73.35894219 439.5723311 -107.05341422 441.74328428 -134.43481445 432.91601562 C-166.32470901 421.92585883 -188.62382689 398.04247286 -203.30883789 368.33642578 C-208.12009146 358.36683816 -212.67167383 348.29927933 -214.1809082 337.24023438 C-214.8409082 337.24023438 -215.5009082 337.24023438 -216.1809082 337.24023438 C-216.28274414 338.37332031 -216.38458008 339.50640625 -216.48950195 340.67382812 C-217.09697924 345.48187876 -218.53709863 349.78320636 -220.2434082 354.30273438 C-220.55358887 355.129104 -220.86376953 355.95547363 -221.18334961 356.80688477 C-226.1010279 369.55282926 -232.50053088 380.64748476 -241.1809082 391.24023438 C-241.87829102 392.10261719 -242.57567383 392.965 -243.29418945 393.85351562 C-264.93677293 419.29443185 -295.60528499 426.97763051 -327.1809082 432.24023438 C-357.8709082 432.24023438 -388.5609082 432.24023438 -420.1809082 432.24023438 C-420.1809082 331.26023437 -420.1809082 230.28023437 -420.1809082 126.24023438 C-307.03598814 126.24023438 -307.03598814 126.24023438 -273.1809082 145.24023438 C-272.22313477 145.77003906 -271.26536133 146.29984375 -270.27856445 146.84570312 C-248.09444381 160.03890262 -233.29501259 180.3917035 -222.1809082 203.24023438 C-219.72363899 200.78296516 -219.46001191 199.08626305 -218.5559082 195.74023438 C-209.90867798 166.75599973 -192.4529928 144.39149479 -171.37548828 123.2578125 C-170.32282116 122.1988605 -169.27033637 121.13972722 -168.21801758 120.08042908 C-164.79899613 116.64061705 -161.37487134 113.20590875 -157.95043945 109.77148438 C-156.76170043 108.57868935 -155.57299203 107.38586381 -154.38431358 106.19300842 C-148.79870305 100.58840646 -143.21072359 94.9861798 -137.61979753 89.3868804 C-131.20629642 82.96360936 -124.80116611 76.53214004 -118.40300637 70.09358835 C-113.42801288 65.08828703 -108.44522687 60.09082733 -103.45670623 55.09900808 C-100.49031988 52.13028947 -97.52722084 49.15846913 -94.57239723 46.17823792 C-91.78963151 43.37192525 -88.99717547 40.57560734 -86.19753265 37.78613472 C-85.18237291 36.77146393 -84.17051257 35.75347731 -83.16258049 34.73162651 C-59.87260779 11.13861194 -32.96923104 0.08136366 0 0 Z " fill="#FEFEFE" transform="translate(1406.180908203125,271.759765625)"/>
<path d="M0 0 C13.60729967 -0.09385189 27.21451884 -0.16433622 40.82207966 -0.20724869 C47.14477002 -0.22787376 53.46723451 -0.25571522 59.78979492 -0.30175781 C108.56892695 -0.6471096 108.56892695 -0.6471096 129.04296875 1.765625 C129.71604883 1.84375175 130.38912891 1.92187851 131.08260536 2.00237274 C158.85576346 5.35694509 186.09883043 14.46307101 205 36 C209.52075343 41.81503866 212.65412623 48.04749612 215.3125 54.875 C215.55508545 55.48609619 215.7976709 56.09719238 216.04760742 56.72680664 C220.35948261 68.52845019 220.40857291 81.09862132 220.375 93.5 C220.37412384 94.29236053 220.37324768 95.08472107 220.37234497 95.90109253 C220.25629788 127.78111463 210.99447887 156.70719715 190 181 C189.34386719 181.75925781 188.68773437 182.51851562 188.01171875 183.30078125 C178.10469489 193.886659 165.16948159 201.25039706 152 207 C151.34 207 150.68 207 150 207 C151.7455919 214.73748321 154.33185788 222.18476836 156.875 229.6875 C157.5349978 231.63944472 158.19400551 233.59170946 158.85110474 235.54463196 C159.45189769 237.32952212 160.05567589 239.11340666 160.65966797 240.8972168 C161.77614148 244.25950469 162.81481905 247.64308361 163.84912109 251.03149414 C165.89858106 257.72219849 168.0604717 264.37353438 170.25270844 271.01848602 C170.94531066 273.11791356 171.63630609 275.21786465 172.32696533 277.31793213 C173.79992314 281.79574534 175.27487441 286.27290055 176.75 290.75 C180.2922524 301.50227934 183.82860631 312.25644596 187.34994507 323.01559448 C187.98905527 324.96658931 188.62972522 326.91706578 189.27075195 328.86743164 C190.42101302 332.37319819 191.56339073 335.88142442 192.703125 339.390625 C193.2105423 340.93118561 193.2105423 340.93118561 193.72821045 342.50286865 C194.03091858 343.44068176 194.33362671 344.37849487 194.64550781 345.34472656 C194.90906067 346.15315002 195.17261353 346.96157349 195.44415283 347.79449463 C196 350 196 350 196 354 C196.66 354 197.32 354 198 354 C198.06531921 352.65890923 198.06531921 352.65890923 198.13195801 351.29072571 C198.67721633 341.66365442 199.89296295 332.24181491 201.46875 322.73046875 C201.71206299 321.23220535 201.95485031 319.7338565 202.19714355 318.23542786 C202.70053132 315.13141032 203.2084888 312.02819068 203.72021484 308.92553711 C204.37632057 304.94662974 205.02317278 300.96628545 205.66701508 296.98537731 C206.1653227 293.90782546 206.66708842 290.830846 207.1700592 287.75405312 C207.4100471 286.28493075 207.64925938 284.81568146 207.88768005 283.34630394 C208.21931359 281.30737176 208.5552836 279.26920346 208.89257812 277.23120117 C209.08275513 276.07287277 209.27293213 274.91454437 209.46887207 273.72111511 C210 271 210 271 211 269 C212.26334671 268.99120064 212.26334671 268.99120064 213.55221558 268.98222351 C221.52543322 268.92409715 229.49837666 268.85190765 237.47132683 268.76428509 C241.56940585 268.71973353 245.66738895 268.68044486 249.765625 268.65356445 C253.72750787 268.62737839 257.68901849 268.5868706 261.6506691 268.53681374 C263.15512555 268.52024769 264.65964623 268.50866998 266.16418076 268.50238609 C282.07130152 268.49434705 282.07130152 268.49434705 295.52734375 260.85546875 C300.01165008 255.20548067 301.73785298 248.50232157 301.37109375 241.3671875 C299.11789745 226.99416692 283.13731339 216.29206066 272.875 207.4375 C255.43694538 192.15709514 242.34120943 174.46459465 236 152 C235.63519531 150.77152344 235.27039062 149.54304687 234.89453125 148.27734375 C227.51228432 117.8712574 240.96108713 84.80938995 256 59 C273.06632355 31.20794361 298.8940975 11.84885974 330.16015625 2.859375 C342.58359337 0.07895164 354.41018297 -0.26889856 367.08203125 -0.1953125 C368.99159089 -0.19157412 370.90115247 -0.18873105 372.81071472 -0.18673706 C377.79352276 -0.1791655 382.77621092 -0.15957402 387.75897217 -0.1373291 C392.86078267 -0.11672973 397.96261287 -0.10770545 403.06445312 -0.09765625 C413.04302091 -0.0763209 423.02150042 -0.04226492 433 0 C431.7916863 11.68043681 430.28353866 23.26205032 428.3984375 34.8515625 C428.15429681 36.37277288 427.91054073 37.89404504 427.66714478 39.41537476 C427.03639019 43.35144874 426.40054171 47.28668191 425.76348877 51.22174072 C425.10997308 55.26450277 424.46147141 59.30806895 423.8125 63.3515625 C422.54646824 71.23515342 421.27503366 79.11785998 420 87 C419.09512848 87.00142502 418.19025696 87.00285004 417.25796509 87.00431824 C408.69602901 87.02220861 400.13460578 87.06400036 391.57291603 87.13209057 C387.17207764 87.16626173 382.77158276 87.19145508 378.37060547 87.19555664 C374.11681208 87.19986094 369.86379226 87.22849827 365.61024094 87.27343178 C363.99413956 87.28633915 362.37794528 87.29073862 360.76179886 87.28615379 C350.38342557 87.26358606 341.40176763 87.73673924 333.5625 95.375 C329.90179017 101.52499251 327.75412404 106.85076785 329 114 C332.61260907 123.84175803 339.14690827 130.39283148 347 137 C348.0419085 137.88122456 349.08355766 138.76275582 350.125 139.64453125 C351.82042849 141.07910553 353.5159905 142.51352077 355.21191406 143.94750977 C364.34880962 151.67453822 364.34880962 151.67453822 368 155 C368.70382812 155.63808594 369.40765625 156.27617188 370.1328125 156.93359375 C387.02661839 172.97387983 396.46375818 192.47398217 397.2421875 215.734375 C397.97225541 254.85836384 383.14144088 290.19680097 356.4765625 318.5546875 C341.43131569 333.41008893 323.42186568 343.77961327 303.4375 350.3125 C302.34163574 350.67649902 302.34163574 350.67649902 301.22363281 351.04785156 C288.09598178 355.11679031 274.83933608 355.28605762 261.24462891 355.22705078 C259.40022284 355.22648537 257.55581633 355.22680575 255.71141052 355.22793579 C250.74748153 355.22850525 245.7836509 355.21681741 240.81974459 355.20278788 C235.61611218 355.19021212 230.41247705 355.18910465 225.20883179 355.18673706 C215.37426237 355.18054229 205.53973787 355.1641588 195.70518816 355.14403808 C184.5007299 355.12161645 173.29626939 355.11066995 162.09179425 355.10064721 C139.06117135 355.07979063 116.0305882 355.04465393 93 355 C90.97357202 347.1494676 89.17166416 339.28753397 87.59570312 331.33496094 C87.26577614 329.68839256 87.26577614 329.68839256 86.92918396 328.00856018 C86.21041872 324.41771582 85.49576528 320.82606723 84.78125 317.234375 C84.27728423 314.71148249 83.77308918 312.18863577 83.26867676 309.66583252 C82.21463075 304.39101481 81.16238882 299.11584256 80.11181641 293.84033203 C78.77309708 287.11792963 77.43084226 280.39623839 76.08744049 273.67477036 C74.79652378 267.215742 73.5076869 260.75629869 72.21875 254.296875 C71.9766127 253.08430779 71.7344754 251.87174057 71.48500061 250.62242889 C69.98024147 243.08353134 68.48241617 235.54332496 67 228 C66.74556625 226.70649376 66.74556625 226.70649376 66.48599243 225.38685608 C66.04384564 223.12760419 65.60733803 220.86736816 65.17382812 218.60644531 C64.94248169 217.40513977 64.71113525 216.20383423 64.47277832 214.96612549 C64 212 64 212 64 208 C63.34 208 62.68 208 62 208 C61.89042969 209.2375 61.78085938 210.475 61.66796875 211.75 C59.57267345 234.90948283 56.32317605 257.76534718 52.51293945 280.69775391 C51.07620041 289.34941 49.6889119 297.99634191 48.48071289 306.68359375 C47.41368581 314.04494259 46.11092358 321.37007653 44.85546875 328.70117188 C44.54029297 330.56418945 44.54029297 330.56418945 44.21875 332.46484375 C44.03248047 333.554021 43.84621094 334.64319824 43.65429688 335.76538086 C42.66598084 342.16177696 41.85540309 348.58447685 41 355 C9.32 355 -22.36 355 -55 355 C-55 349.24728668 -54.97590354 344.72964236 -54.06958008 339.24389648 C-53.76344536 337.35772865 -53.76344536 337.35772865 -53.4511261 335.43345642 C-53.22402963 334.07931845 -52.99682829 332.72519807 -52.76953125 331.37109375 C-52.53422838 329.93614804 -52.29959893 328.50109175 -52.06559753 327.06593323 C-51.44737699 323.28458875 -50.82084624 319.50467011 -50.19226074 315.72503662 C-49.57369797 311.99904593 -48.9615918 308.27199813 -48.34960938 304.54492188 C-48.22950249 303.81347175 -48.1093956 303.08202162 -47.98564911 302.32840633 C-47.74314134 300.85141404 -47.50066644 299.37441635 -47.25822449 297.89741325 C-46.89446178 295.6831709 -46.52973946 293.4690881 -46.16491699 291.25502014 C-43.86382019 277.2701987 -41.67486838 263.26875391 -39.50646973 249.26280212 C-38.8038651 244.73645091 -38.0910783 240.21173655 -37.375 235.6875 C-37.25245346 234.91286911 -37.12990692 234.13823822 -37.00364685 233.34013367 C-36.78343738 231.9485853 -36.56314316 230.55705034 -36.34277344 229.16552734 C-35.72730574 225.27720935 -35.11379948 221.38858162 -34.5 217.5 C-34.25000835 215.91666535 -34.00000837 214.33333201 -33.75 212.75 C-33.62625 211.96625 -33.5025 211.1825 -33.375 210.375 C-20.25 127.25 -20.25 127.25 -19.89633179 125.01034546 C-19.64543677 123.42118913 -19.39463192 121.83201855 -19.14395142 120.24282837 C-18.55453293 116.5070486 -17.9641769 112.77143274 -17.36865234 109.03662109 C-15.88064084 99.68623427 -14.43306029 90.32997506 -13.00444794 80.97032928 C-12.69206583 78.92404493 -12.37931937 76.87781656 -12.06646729 74.831604 C-11.85290214 73.43461148 -11.63934015 72.03761848 -11.42578125 70.640625 C-11.31875759 69.94055202 -11.21173393 69.24047905 -11.10146713 68.51919174 C-10.5613176 64.98466804 -10.02212921 61.4500023 -9.48486328 57.91503906 C-6.54336605 38.568625 -3.40645758 19.27077786 0 0 Z " fill="#FE5B39" transform="translate(1476,747)"/>
<path d="M0 0 C1.34111343 0.00539291 1.34111343 0.00539291 2.70932007 0.01089478 C3.64580887 0.01074875 4.58229767 0.01060272 5.54716492 0.01045227 C8.65845007 0.01115179 11.76967617 0.01894602 14.88095093 0.02676392 C17.0318651 0.02862796 19.18277971 0.03005192 21.33369446 0.03105164 C27.00711225 0.03487792 32.68050463 0.04470914 38.35391235 0.05575562 C44.13831234 0.06596736 49.92271641 0.07054875 55.7071228 0.07559204 C67.06585796 0.08633131 78.42457421 0.10340906 89.78329468 0.12442017 C89.63728314 1.85217995 89.48804516 3.57966722 89.3374939 5.30703735 C89.25474213 6.26906067 89.17199036 7.23108398 89.08673096 8.22225952 C88.62278453 12.65959002 87.76890069 16.99994357 86.90829468 21.37442017 C85.44106882 29.10251592 84.23896178 36.81692565 83.28329468 44.62442017 C82.24217644 53.10516601 80.86059367 61.46252547 79.26376343 69.85488892 C78.03635536 76.42292748 77.09791074 82.99335593 76.28329468 89.62442017 C75.22933369 98.18061443 73.85963361 106.62845786 72.27255249 115.10098267 C71.11801462 121.26447305 70.0293026 127.4332156 69.03329468 133.62442017 C68.90567749 134.39560181 68.7780603 135.16678345 68.64657593 135.96133423 C67.99699434 140.06136182 67.65141569 143.95704412 67.78329468 148.12442017 C68.06414917 147.55747437 68.34500366 146.99052856 68.6343689 146.40640259 C69.97331167 143.70706137 71.31581754 141.00950527 72.65829468 138.31192017 C73.09915405 137.42182251 73.54001343 136.53172485 73.99423218 135.61465454 C76.63530797 130.31416215 79.3390772 125.05462752 82.11436462 119.82341766 C87.45251311 109.75450945 92.60637193 99.60161076 97.68356323 89.39904785 C99.07969503 86.59368408 100.47855819 83.78969576 101.87802124 80.98599243 C104.84874359 75.03327948 107.81627927 69.07898145 110.78329468 63.12442017 C114.2294162 56.20833145 117.67694891 49.29295321 121.12789917 42.37927246 C122.48640418 39.65592008 123.84244046 36.93134894 125.19833374 34.20669556 C126.05465685 32.49040736 126.91109659 30.77417736 127.76766968 29.05801392 C128.12743896 28.33330902 128.48720825 27.60860413 128.85787964 26.86193848 C133.35372242 17.86939521 138.09767335 9.02710068 142.78329468 0.12442017 C176.11329468 0.12442017 209.44329468 0.12442017 243.78329468 0.12442017 C242.07757208 4.38872665 240.12715091 8.13870805 237.78329468 12.05020142 C237.19596558 13.03937813 237.19596558 13.03937813 236.59677124 14.04853821 C235.32937772 16.18026718 234.0565568 18.30869212 232.78329468 20.43692017 C231.90297352 21.91406647 231.02276554 23.39128024 230.14266968 24.86856079 C229.27323373 26.32515338 228.40345093 27.78153901 227.53329468 29.23770142 C227.1336853 29.90642776 226.73407593 30.57515411 226.32235718 31.2641449 C222.81997571 37.10387855 219.21064871 42.87359842 215.56454468 48.62442017 C211.342766 55.37926606 207.33788643 62.2685462 203.28329468 69.12442017 C193.03569384 86.45018513 193.03569384 86.45018513 188.72079468 93.24942017 C183.68658828 101.18319505 178.88232362 109.25411462 174.05874634 117.31680298 C167.59594604 128.11915861 161.08484465 138.89087823 154.52914429 149.63711548 C153.23499132 151.76211625 151.94908995 153.89216961 150.67245483 156.02774048 C149.38447434 158.13897654 148.0482238 160.22133287 146.67147827 162.27578735 C146.01099487 163.29575806 145.35051147 164.31572876 144.67001343 165.36660767 C144.06761841 166.25976685 143.46522339 167.15292603 142.84457397 168.07315063 C141.30759369 172.49210153 142.47920834 175.80391527 143.78329468 180.12442017 C144.10508194 181.23576324 144.4268692 182.34710632 144.75840759 183.49212646 C145.97637769 187.63128056 147.23362738 191.75712938 148.49813843 195.88223267 C148.98255961 197.4709541 149.46672922 199.05975226 149.95066833 200.64862061 C151.26275141 204.95279506 152.5794361 209.25554947 153.89706421 213.55802917 C154.72206907 216.25358402 155.54555233 218.94959884 156.36849976 221.64578247 C162.99235489 243.34663359 169.67206694 265.0297138 176.41220093 286.69473267 C176.72305067 287.69426594 177.03390041 288.69379921 177.35416985 289.72362137 C180.39128249 299.48903396 183.43146207 309.2534619 186.48494625 319.01376915 C187.61350739 322.62337686 188.73904854 326.23392176 189.86398125 329.84466171 C190.38732093 331.52170772 190.91209313 333.19830748 191.43840218 334.87442398 C192.15850702 337.16791952 192.87377925 339.46287019 193.58798218 341.75820923 C193.79763579 342.42150805 194.00728941 343.08480686 194.22329617 343.76820564 C195.40758683 347.5948828 196.11699242 351.1266066 196.78329468 355.12442017 C162.79329468 355.12442017 128.80329468 355.12442017 93.78329468 355.12442017 C91.77961046 346.44178854 89.78695188 337.75851037 87.84579468 329.06192017 C87.60667358 328.0003772 87.36755249 326.93883423 87.1211853 325.84512329 C84.84410078 315.63729585 82.80970865 305.3842345 80.78329468 295.12442017 C80.46489501 293.51430462 80.14645514 291.90419702 79.82797241 290.2940979 C79.67281158 289.50961777 79.51765076 288.72513763 79.35778809 287.91688538 C76.06816347 271.29014354 72.75183071 254.67507082 69.09579468 238.12442017 C68.95256775 237.47543762 68.80934082 236.82645508 68.66177368 236.1578064 C67.96797822 233.01533269 67.27315488 229.87308662 66.57821655 226.73086548 C65.3131463 220.99142513 64.06835426 215.2480608 62.84579468 209.49942017 C62.63414673 208.52746704 62.42249878 207.55551392 62.20443726 206.55410767 C61.24335555 201.99786848 60.52631218 197.81240397 60.78329468 193.12442017 C60.12329468 193.12442017 59.46329468 193.12442017 58.78329468 193.12442017 C58.75751343 193.78442017 58.73173218 194.44442017 58.70516968 195.12442017 C58.20385765 203.87459378 56.83367025 212.38960238 55.33114624 221.01699829 C54.4093306 226.31612136 53.55602864 231.61372108 52.81063843 236.94082642 C51.59231961 245.62783955 50.10966613 254.26635768 48.63876343 262.91348267 C47.61586514 268.975567 46.6359664 275.03586464 45.78329468 281.12442017 C44.57529106 289.75024522 43.09926352 298.3275124 41.63876343 306.91348267 C40.64394058 312.80918128 39.68777213 318.70042043 38.87704468 324.62442017 C37.38960505 334.82400621 35.54938948 344.96937505 33.78329468 355.12442017 C2.10329468 355.12442017 -29.57670532 355.12442017 -62.21670532 355.12442017 C-59.92442591 335.64004517 -59.92442591 335.64004517 -58.77920532 328.74942017 C-58.51999539 327.1478731 -58.26088371 325.54631012 -58.00186157 323.94473267 C-57.8068103 322.75025513 -57.8068103 322.75025513 -57.6078186 321.53164673 C-56.96330703 317.5648027 -56.34103922 313.59448053 -55.71670532 309.62442017 C-55.466814 308.04106968 -55.21681395 306.45773634 -54.96670532 304.87442017 C-54.84295532 304.09067017 -54.71920532 303.30692017 -54.59170532 302.49942017 C-47.46670532 257.37442017 -47.46670532 257.37442017 -47.11294556 255.13417053 C-46.86236204 253.54699684 -46.61186285 251.95980984 -46.36148071 250.37260437 C-45.76725039 246.60649825 -45.17205026 242.84055917 -44.57217407 239.0753479 C-43.05496447 229.53565717 -41.5792556 219.99000106 -40.12295532 210.44082642 C-35.4080409 179.54584141 -30.56560689 148.6754548 -25.54713058 117.82829285 C-24.97581753 114.31636286 -24.40473879 110.80439485 -23.83389282 107.29238892 C-23.72267845 106.60826683 -23.61146408 105.92414474 -23.49687958 105.21929169 C-20.4003072 86.16146885 -17.41594585 67.08604969 -14.44692993 48.00799561 C-13.50782613 41.97618146 -12.55600844 35.94646736 -11.59951782 29.91738892 C-10.41084107 22.41845937 -9.28407535 14.9123011 -8.22451782 7.39395142 C-7.14824802 0.0121444 -7.14824802 0.0121444 0 0 Z " fill="#FE5B39" transform="translate(1012.2167053222656,746.8755798339844)"/>
<path d="M0 0 C9.56464322 8.6441362 17.8201358 17.29728361 24.59765625 28.34765625 C24.96842285 28.94384766 25.33918945 29.54003906 25.72119141 30.15429688 C51.39401049 71.93962662 56.25734994 124.51341798 49.59765625 172.34765625 C49.43692627 173.52884033 49.43692627 173.52884033 49.27294922 174.73388672 C47.85120029 184.86824557 45.75314433 194.59525782 42.59765625 204.34765625 C42.37126465 205.07645996 42.14487305 205.80526367 41.91162109 206.55615234 C31.57256158 239.62066941 13.16154096 268.33943112 -17.96484375 285.03515625 C-23.71341238 287.79678664 -29.55753043 289.85555725 -35.65234375 291.72265625 C-36.46775635 291.97362061 -37.28316895 292.22458496 -38.12329102 292.4831543 C-62.74344637 299.61010674 -91.81222403 296.19582471 -114.40234375 284.34765625 C-122.41685454 279.8771966 -129.49388338 274.36540317 -136.40234375 268.34765625 C-137.32273437 267.55488281 -137.32273437 267.55488281 -138.26171875 266.74609375 C-165.47433493 241.47723586 -176.7575313 200.75569782 -181.40234375 165.34765625 C-181.50619385 164.58219482 -181.61004395 163.8167334 -181.71704102 163.02807617 C-182.68777217 154.85308999 -182.6005957 146.62996529 -182.58984375 138.41015625 C-182.58957184 137.63175385 -182.58929993 136.85335144 -182.58901978 136.05136108 C-182.57025253 124.37738536 -182.2432762 112.89741869 -180.40234375 101.34765625 C-180.20769531 100.06761719 -180.01304688 98.78757812 -179.8125 97.46875 C-176.60927174 78.68532274 -171.59091149 60.57202083 -163.40234375 43.34765625 C-162.93489746 42.35113037 -162.93489746 42.35113037 -162.45800781 41.33447266 C-149.96901965 15.13402925 -128.97515384 -6.61584088 -101.40234375 -16.65234375 C-67.62219294 -27.40632435 -27.71026262 -23.38475821 0 0 Z " fill="#49C5B1" transform="translate(1474.40234375,304.65234375)"/>
<path d="M0 0 C26.07 0 52.14 0 79 0 C96.23699192 47.86470485 113.45776995 95.7352239 130.625 143.625 C131.01895966 144.72397614 131.41291931 145.82295227 131.81881714 146.95523071 C135.88577493 158.30114611 139.95043618 169.64786294 144 181 C143.32702389 166.91708945 141.67945558 152.99398017 140 139 C138.82535775 129.19327093 137.7889038 119.43711324 137.34130859 109.56616211 C137.16014399 105.69158749 137.16014399 105.69158749 136.49171448 101.88008118 C135.77788863 97.69904423 135.86970583 93.57831754 135.88647461 89.34448242 C135.88632858 88.3781488 135.88618256 87.41181519 135.8860321 86.41619873 C135.88672752 83.22926573 135.8945026 80.04239152 135.90234375 76.85546875 C135.90420925 74.64301078 135.90563253 72.4305524 135.90663147 70.21809387 C135.91044628 64.40006364 135.92026775 58.58205844 135.93133545 52.76403809 C135.94337215 45.78060676 135.94795674 38.79716706 135.95378876 31.81372833 C135.96348003 21.20913482 135.98264387 10.60459622 136 0 C162.4 0 188.8 0 216 0 C216 100.98 216 201.96 216 306 C189.6 306 163.2 306 136 306 C127.18394107 281.19549521 118.40559869 256.38244353 109.8125 231.5 C109.43665771 230.41176941 109.06081543 229.32353882 108.67358398 228.20233154 C108.29854736 227.11639709 107.92351074 226.03046265 107.53710938 224.91162109 C106.78908946 222.74575892 106.04104284 220.57990596 105.29296875 218.4140625 C104.92871796 217.35943817 104.56446716 216.30481384 104.18917847 215.2182312 C94.58772085 187.43413631 84.80215231 159.7138032 75 132 C74.73189396 141.99115928 75.77896195 151.7496509 76.84570312 161.671875 C78.89441098 181.53934435 79.14298456 201.37366499 79.09765625 221.33203125 C79.09578565 223.79066438 79.09436479 226.24929788 79.09336853 228.70793152 C79.08959387 235.10441155 79.07980823 241.500868 79.06866455 247.89733887 C79.05651751 255.6120327 79.05202409 263.32673453 79.04621124 271.04143524 C79.03659256 282.69430644 79.01740101 294.34712615 79 306 C52.93 306 26.86 306 0 306 C0 205.02 0 104.04 0 0 Z " fill="#FEFEFE" transform="translate(752,398)"/>
<path d="M0 0 C59.07 0 118.14 0 179 0 C176.71827677 14.831201 176.71827677 14.831201 175.5625 21.87109375 C175.30464234 23.45116451 175.04683126 25.03124286 174.7890625 26.61132812 C174.3947744 29.02426366 174.00006106 31.4371276 173.60449219 33.84985352 C171.95999779 43.88718626 170.42064437 53.92785336 169 64 C168.01 70.6 167.02 77.2 166 84 C138.61 84 111.22 84 83 84 C82.67 86.64 82.34 89.28 82 92 C81.78373181 93.58860266 81.5631054 95.17662616 81.33569336 96.76367188 C81.2139978 97.61541992 81.09230225 98.46716797 80.96691895 99.34472656 C80.84248413 100.2106543 80.71804932 101.07658203 80.58984375 101.96875 C80.47290161 102.78633789 80.35595947 103.60392578 80.23547363 104.44628906 C79.80358828 107.46430336 79.37047412 110.48214171 78.9375 113.5 C77.968125 120.265 76.99875 127.03 76 134 C100.09 134 124.18 134 149 134 C147.87600869 146.36390441 147.87600869 146.36390441 146.87890625 151.92578125 C146.66556641 153.13556641 146.45222656 154.34535156 146.23242188 155.59179688 C146.01134766 156.81962891 145.79027344 158.04746094 145.5625 159.3125 C145.12422896 161.76655775 144.6880257 164.22098569 144.25390625 166.67578125 C144.06127197 167.74739502 143.8686377 168.81900879 143.67016602 169.9230957 C142.68217746 175.93344939 141.86139971 181.97020205 141 188 C138.525 202.85 138.525 202.85 136 218 C111.25 218 86.5 218 61 218 C61 220.31 61 222.62 61 225 C60.84867045 226.38182986 60.66001211 227.76074574 60.4140625 229.12890625 C60.28902344 229.84651123 60.16398437 230.56411621 60.03515625 231.3034668 C59.89980469 232.04894775 59.76445313 232.79442871 59.625 233.5625 C59.34494542 235.16381676 59.06631348 236.76538294 58.7890625 238.3671875 C58.65274414 239.15319336 58.51642578 239.93919922 58.37597656 240.74902344 C57.85189782 243.8866897 57.42370004 247.03488445 57 250.1875 C55.92642903 257.50120224 54.44970548 264.75147262 53 272 C80.06 272 107.12 272 135 272 C135 279.87301587 135 279.87301587 134.44921875 283.171875 C134.32740234 283.92082031 134.20558594 284.66976563 134.08007812 285.44140625 C133.88575195 286.58416016 133.88575195 286.58416016 133.6875 287.75 C133.44107049 289.24473635 133.19499823 290.73953163 132.94921875 292.234375 C132.63597656 294.13703125 132.32273437 296.0396875 132 298 C131.01 304.27 130.02 310.54 129 317 C127.02 329.54 125.04 342.08 123 355 C64.26 355 5.52 355 -55 355 C-55 344.87523972 -55 344.87523972 -54.26904297 340.34887695 C-54.10801086 339.32968674 -53.94697876 338.31049652 -53.78106689 337.26042175 C-53.60323669 336.18061539 -53.42540649 335.10080902 -53.2421875 333.98828125 C-53.05855652 332.83801956 -52.87492554 331.68775787 -52.68572998 330.50263977 C-52.08861588 326.77152241 -51.48184677 323.04204555 -50.875 319.3125 C-50.46072689 316.73432444 -50.04715705 314.15603579 -49.63427734 311.57763672 C-48.81080448 306.43974776 -47.9840042 301.3024131 -47.15429688 296.16552734 C-45.74418538 287.42651638 -44.36342883 278.68297909 -42.98883057 269.93832397 C-42.42394366 266.34663451 -41.85645234 262.75535726 -41.2890625 259.1640625 C-41.07908744 257.83431213 -40.86912654 256.50455952 -40.65917969 255.17480469 C-24.25 151.25 -24.25 151.25 -23.89628601 149.01004028 C-23.64554992 147.4219002 -23.39489825 145.83374679 -23.1443634 144.24557495 C-22.55246571 140.49425488 -21.95964194 136.74309497 -21.36206055 132.99267578 C-19.80713704 123.21648976 -18.29560784 113.43398745 -16.80078125 103.6484375 C-12.77619247 77.31234844 -8.73249942 50.98118484 -4.4375 24.6875 C-4.2678775 23.64607849 -4.098255 22.60465698 -3.92349243 21.53167725 C-3.44996422 18.62881274 -2.97372738 15.72641028 -2.49609375 12.82421875 C-2.358013 11.97942459 -2.21993225 11.13463043 -2.07766724 10.26423645 C-1.5026387 6.79506927 -0.85357503 3.41430012 0 0 Z " fill="#FE5B39" transform="translate(1277,747)"/>
<path d="M0 0 C27.39 0 54.78 0 83 0 C83.029729 9.60790649 83.029729 9.60790649 83.06005859 19.40991211 C83.12691992 40.55629193 83.20446053 61.70262258 83.28752708 82.84894466 C83.33763625 95.67182664 83.38407944 108.49470228 83.421875 121.31762695 C83.45482917 132.49484734 83.49467943 143.67201829 83.54279006 154.8491841 C83.56802088 160.76668649 83.58981233 166.68415624 83.60334396 172.60169792 C83.61619521 178.1740311 83.63828282 183.74625212 83.66738319 189.31852341 C83.676435 191.36106591 83.68214359 193.40362646 83.68421364 195.44618797 C83.68755312 198.24138699 83.70307605 201.03627124 83.7215271 203.83140564 C83.718625 205.03524026 83.718625 205.03524026 83.71566427 206.26339477 C83.79778082 214.62171108 85.12436435 222.0928495 90 229 C96.57633052 234.32826779 102.88213385 233.84191843 111 233 C114.84100701 232.05230056 117.09464047 230.4676051 119.2265625 227.01171875 C122.95875084 219.2385639 124.29906098 211.51945276 124.2784729 202.98962402 C124.2842653 202.11707552 124.2900577 201.24452703 124.29602563 200.34553766 C124.31294364 197.44060674 124.31589505 194.53583547 124.31884766 191.63085938 C124.32815149 189.54103205 124.33832084 187.45120842 124.34928894 185.36138916 C124.3765516 179.70089424 124.39172733 174.04042416 124.40471697 168.37988091 C124.42036381 162.45948315 124.4471491 156.53913599 124.4727478 150.61877441 C124.51950804 139.41344784 124.55626552 128.20811171 124.58942068 117.00273752 C124.62766149 104.24339222 124.67706655 91.48409776 124.72740483 78.72479534 C124.83068376 52.48322979 124.91848363 26.2416428 125 0 C152.39 0 179.78 0 208 0 C208.09058934 27.73113824 208.16414945 55.46215511 208.20724869 83.1934042 C208.22779982 96.07194282 208.25577661 108.9503824 208.30175781 121.82885742 C208.3418551 133.06479546 208.36748681 144.3006617 208.37635398 155.53666931 C208.38153026 161.47601315 208.3935378 167.41515175 208.42292023 173.35442924 C208.79226946 251.1352892 208.79226946 251.1352892 184 281 C183.32904297 281.88945313 183.32904297 281.88945313 182.64453125 282.796875 C168.78163396 300.52186977 144.345782 308.83349466 122.71875 311.49609375 C105.77680079 313.20414588 88.58114546 313.00653201 72 309 C70.12054687 308.59974609 70.12054687 308.59974609 68.203125 308.19140625 C54.20791199 304.92488869 41.60380257 298.75621972 31 289 C30.15953125 288.25105469 29.3190625 287.50210937 28.453125 286.73046875 C10.31537509 269.71945785 0.69882697 242.46310521 -0.26744652 217.90002251 C-0.40294189 212.13302437 -0.37208487 206.36741472 -0.34057617 200.59936523 C-0.33972801 198.39984143 -0.34020872 196.20031677 -0.34190369 194.00079346 C-0.34275768 188.08249127 -0.32522922 182.16437481 -0.30418181 176.24611545 C-0.28531484 170.04153326 -0.28365672 163.83694592 -0.28010559 157.63233948 C-0.27081439 145.90663819 -0.24624051 134.18102171 -0.21605712 122.45535761 C-0.19246288 113.08425577 -0.17592702 103.71316573 -0.16479492 94.34204102 C-0.16400675 93.6804073 -0.16321858 93.01877359 -0.16240653 92.33709037 C-0.15849088 89.01724338 -0.15470668 85.69739625 -0.15097082 82.37754905 C-0.11968811 54.91830832 -0.06471292 27.4591837 0 0 Z " fill="#49C5B1" transform="translate(1544,288)"/>
<path d="M0 0 C33.66 0 67.32 0 102 0 C110.62254902 38.80147059 110.62254902 38.80147059 113.80078125 54.98828125 C115.2963521 62.56046197 116.93068704 70.10197807 118.55908203 77.64648438 C120.73966977 87.75735864 122.87445523 97.87743305 125 108 C127.31166188 119.00472687 129.63498632 130.00658478 132 141 C134.54249778 152.81842374 137.03502816 164.64702898 139.52050781 176.47753906 C141.65936976 186.65626628 143.81247057 196.83159396 146 207 C148.36501425 217.99341789 150.68797385 228.99534809 153 240 C155.86191018 253.62114042 158.7500619 267.2361521 161.67578125 280.84375 C161.88799316 281.83632813 162.10020508 282.82890625 162.31884766 283.8515625 C162.81397543 286.14015308 163.32035844 288.42631759 163.83349609 290.7109375 C164.10887207 291.95101563 164.38424805 293.19109375 164.66796875 294.46875 C164.92215576 295.59732422 165.17634277 296.72589844 165.43823242 297.88867188 C165.94490835 300.69487704 166.04320081 303.16320312 166 306 C154.93465142 306.02312283 143.86930855 306.04091478 132.80394077 306.05181217 C127.66640434 306.05704113 122.52888437 306.06413901 117.39135742 306.07543945 C112.4376859 306.08626787 107.48403026 306.09227674 102.53034782 306.09487724 C100.63602384 306.09673157 98.74170076 306.10035234 96.8473835 306.10573006 C94.20365614 306.11293989 91.55999529 306.11399097 88.91625977 306.11352539 C88.12504227 306.11712067 87.33382477 306.12071594 86.51863098 306.12442017 C81.11405216 306.11405216 81.11405216 306.11405216 80 305 C79.72562536 303.47377936 79.50849777 301.93718105 79.31640625 300.3984375 C79.13174805 298.94824219 79.13174805 298.94824219 78.94335938 297.46875 C78.81767578 296.4478125 78.69199219 295.426875 78.5625 294.375 C77.4120438 285.24439527 76.21635725 276.1226794 75 267 C56.52 267 38.04 267 19 267 C18.34 271.29 17.68 275.58 17 280 C15.68 288.58 14.36 297.16 13 306 C-15.38 306 -43.76 306 -73 306 C-71.81669437 299.49181905 -70.65057974 293.16526358 -69.01171875 286.7890625 C-68.8283194 286.06248947 -68.64492004 285.33591644 -68.45596313 284.58732605 C-68.06841734 283.05316012 -67.67931968 281.51938542 -67.28872681 279.98599243 C-66.26551082 275.96786619 -65.25456338 271.9466497 -64.2421875 267.92578125 C-64.04416031 267.14049545 -63.84613312 266.35520966 -63.6421051 265.54612732 C-61.5489527 257.23452605 -59.56509921 248.89864685 -57.60351562 240.55517578 C-56.43710174 235.61679078 -55.24831321 230.68375558 -54.0625 225.75 C-53.55337869 223.63020995 -53.04426413 221.51041828 -52.53515625 219.390625 C-52.28137207 218.33423828 -52.02758789 217.27785156 -51.76611328 216.18945312 C-50.50994607 210.95982648 -49.2550285 205.72990001 -48 200.5 C-47.50000616 198.41666519 -47.00000615 196.33333186 -46.5 194.25 C-46.2525 193.21875 -46.005 192.1875 -45.75 191.125 C-13.5 56.75 -13.5 56.75 -12.74926758 53.62207031 C-12.25163504 51.54852035 -11.75407589 49.47495277 -11.2565918 47.40136719 C-9.97098516 42.04319808 -8.68392405 36.68538436 -7.39453125 31.328125 C-7.12962891 30.22662109 -6.86472656 29.12511719 -6.59179688 27.99023438 C-6.09227987 25.91329524 -5.59232016 23.83646249 -5.09179688 21.75976562 C-3.35028923 14.51567921 -1.67550956 7.26054141 0 0 Z " fill="#FEFEFE" transform="translate(585,398)"/>
<path d="M0 0 C1.88713937 0.00373851 3.77428071 0.00658151 5.66142273 0.00857544 C10.58504771 0.01614596 15.5085513 0.03573651 20.43212891 0.0579834 C25.47361612 0.07858504 30.51512329 0.08760752 35.55664062 0.09765625 C45.41671947 0.11898976 55.27670895 0.15304443 65.13671875 0.1953125 C64.57070026 5.58941306 63.91091337 10.94461482 63.04516602 16.30053711 C62.9409433 16.94903122 62.83672058 17.59752533 62.7293396 18.26567078 C62.38946175 20.37669349 62.04640339 22.48718407 61.703125 24.59765625 C61.46258268 26.08539097 61.22218307 27.57314877 60.98191833 29.06092834 C60.47984528 32.16674626 59.97621792 35.27230686 59.47143555 38.37768555 C58.82876001 42.33200997 58.18972525 46.28691222 57.55183506 50.24201107 C57.05646707 53.31110455 56.55927317 56.37990012 56.06153679 59.44861031 C55.82541467 60.90557947 55.58981241 62.362633 55.35476875 63.81977654 C54.09183002 71.64201303 52.77720644 79.44179349 51.13671875 87.1953125 C50.25690338 87.19895813 49.37708801 87.20260376 48.47061157 87.20635986 C40.14416678 87.24436207 31.81810881 87.30135269 23.49193764 87.37921524 C19.21222108 87.41857976 14.93270688 87.45082187 10.65283203 87.46630859 C6.51581796 87.48154842 2.37936063 87.51612188 -1.75740433 87.56362152 C-3.32884483 87.57836032 -4.90036485 87.58634917 -6.47187424 87.58719635 C-20.64114603 87.449184 -20.64114603 87.449184 -32.79013062 93.97418213 C-37.95505271 99.62494696 -39.44979046 104.31880871 -39.30078125 111.96484375 C-37.53632712 124.99344703 -26.2862295 133.1595646 -16.73046875 140.8359375 C-12.82941874 144.04606584 -9.12190893 147.44511094 -5.4140625 150.875 C-3.28083641 152.81548438 -1.10178349 154.63080355 1.13671875 156.4453125 C15.41082952 168.96440965 24.2258226 185.85608196 28.13671875 204.1953125 C28.42482422 205.36513672 28.42482422 205.36513672 28.71875 206.55859375 C33.81415107 238.70247898 21.36286582 275.69375086 2.67578125 301.6875 C-7.56754904 315.4178808 -19.54821292 326.82608286 -33.86328125 336.1953125 C-34.65476562 336.74445313 -35.44625 337.29359375 -36.26171875 337.859375 C-47.87339893 345.47826691 -62.32334983 350.47160508 -75.86328125 353.1953125 C-76.68254089 353.37367645 -77.50180054 353.55204041 -78.34588623 353.73580933 C-87.94907237 355.60932425 -97.45281887 355.44912535 -107.19140625 355.390625 C-109.03513433 355.38688711 -110.87886442 355.38404381 -112.72259521 355.38204956 C-117.53608852 355.37447417 -122.34945792 355.35487923 -127.16290283 355.3326416 C-132.09035568 355.31205066 -137.01782887 355.30301973 -141.9453125 355.29296875 C-151.58468936 355.27162661 -161.22397493 355.23756579 -170.86328125 355.1953125 C-170.21045525 346.47934657 -168.99120293 337.88670999 -167.6484375 329.25390625 C-167.43022472 327.83630362 -167.21224741 326.41866472 -166.99449158 325.00099182 C-166.54020472 322.04826083 -166.08361892 319.09589792 -165.62524414 316.14379883 C-165.04203145 312.38696846 -164.4638225 308.62938923 -163.88724613 304.8715353 C-163.43854781 301.94995049 -162.98758174 299.02871922 -162.53591728 296.10759163 C-162.32205444 294.72319737 -162.10877782 293.3387124 -161.89613533 291.95413017 C-160.72329304 284.32843833 -159.47047332 276.74254499 -157.86328125 269.1953125 C-156.59993454 269.18651314 -156.59993454 269.18651314 -155.31106567 269.17753601 C-147.33784803 269.11940965 -139.36490459 269.04722015 -131.39195442 268.95959759 C-127.2938754 268.91504603 -123.1958923 268.87575736 -119.09765625 268.84887695 C-115.13577338 268.82269089 -111.17426276 268.7821831 -107.21261215 268.73212624 C-105.7081557 268.71556019 -104.20363502 268.70398248 -102.69910049 268.69769859 C-92.16618679 268.64929415 -81.1681373 268.53448761 -72.86328125 261.1953125 C-67.69529596 255.12258708 -66.9579625 248.71104725 -67.26953125 240.90625 C-69.09662815 229.48689435 -78.53053109 222.31108664 -86.86328125 215.1953125 C-108.50137658 196.62494661 -131.16874882 174.2744239 -133.86328125 144.1953125 C-134.48366052 129.75652389 -134.9696847 115.16709984 -130.86328125 101.1953125 C-130.54617187 100.04417969 -130.2290625 98.89304687 -129.90234375 97.70703125 C-124.71845314 80.5928392 -116.40576287 64.59052827 -105.86328125 50.1953125 C-104.91582031 48.88433594 -104.91582031 48.88433594 -103.94921875 47.546875 C-86.3823506 24.4483122 -61.74434348 7.2498428 -32.86328125 2.1953125 C-32.02537552 2.03004059 -31.18746979 1.86476868 -30.32417297 1.69448853 C-20.20193106 -0.117434 -10.25172523 -0.06025942 0 0 Z " fill="#FE5B39" transform="translate(360.86328125,746.8046875)"/>
<path d="M0 0 C1.18626092 0.00436926 1.18626092 0.00436926 2.3964867 0.00882679 C3.64733536 0.00754515 3.64733536 0.00754515 4.92345369 0.00623763 C7.73955417 0.00458026 10.5555961 0.01010836 13.37169117 0.01555592 C15.38166531 0.01583776 17.39163957 0.01568011 19.40161365 0.01511341 C24.87659538 0.01482532 30.3515554 0.02072388 35.82653207 0.02768737 C41.54140801 0.03391903 47.2562844 0.03452456 52.97116321 0.03571278 C63.80133753 0.03882665 74.63150182 0.04704079 85.46167171 0.05706227 C97.78794029 0.06822167 110.11420935 0.07373342 122.44048172 0.0787577 C147.80419448 0.08922336 173.16789832 0.10682388 198.53160328 0.12908131 C198.21308071 2.20208827 197.89444516 4.27507788 197.57576221 6.34806019 C197.39833421 7.50245815 197.22090622 8.6568561 197.03810161 9.84623581 C196.4236355 13.82886948 195.79643149 17.80935966 195.16441578 21.78923756 C193.93948874 29.52445443 192.72945201 37.26193362 191.52379078 45.00017506 C190.99675185 48.37755728 190.46952592 51.75491025 189.94224781 55.13225514 C189.58097729 57.44856891 189.22031374 59.76497742 188.86021656 62.08147389 C188.33309348 65.47130629 187.80366376 68.86077156 187.27379078 72.25017506 C187.11337299 73.28548863 186.95295521 74.3208022 186.78767627 75.3874889 C186.63726887 76.34691899 186.48686146 77.30634907 186.33189625 78.29485279 C186.20104633 79.13467198 186.07019642 79.97449116 185.93538135 80.83975941 C185.5622829 82.95513541 185.05257624 85.04518945 184.53160328 87.12908131 C166.05160328 87.12908131 147.57160328 87.12908131 128.53160328 87.12908131 C128.53160328 89.76908131 128.53160328 92.40908131 128.53160328 95.12908131 C128.35211752 96.88006852 128.12855067 98.62746424 127.84825367 100.36516529 C127.69675358 101.32406163 127.54525348 102.28295796 127.38916248 103.27091175 C127.22089451 104.29531864 127.05262653 105.31972553 126.87925953 106.37517506 C126.70410312 107.47317936 126.52894672 108.57118366 126.34848255 109.70246083 C125.7693713 113.32477096 125.18166757 116.94563358 124.59410328 120.56658131 C124.18329074 123.12767404 123.77314582 125.68887394 123.36363453 128.25017506 C122.61959168 132.90090335 121.87394279 137.55136216 121.12556499 142.20139462 C119.25345754 153.83559024 117.41800598 165.47551176 115.58503956 177.11592823 C114.65223902 183.03724422 113.71677656 188.95813968 112.78160328 194.87908131 C112.40659074 197.25407933 112.03159074 199.62907933 111.65660328 202.00408131 C110.90660328 206.75408131 110.15660328 211.50408131 109.40660328 216.25408131 C109.22099842 217.42958042 109.03539356 218.60507954 108.84416431 219.81619984 C108.46896295 222.19247173 108.0937595 224.5687433 107.71855396 226.94501454 C106.78411769 232.86305183 105.84971712 238.78109477 104.91539234 244.69914967 C103.19157704 255.61763531 101.46744843 266.53607115 99.7420525 277.45430714 C98.94609722 282.49122175 98.15034287 287.52816809 97.35460132 292.56511647 C96.98311836 294.91620634 96.6115421 297.26728147 96.23985523 299.61833912 C93.31513063 318.11854421 90.42308537 336.62359588 87.53160328 355.12908131 C55.85160328 355.12908131 24.17160328 355.12908131 -8.46839672 355.12908131 C-8.46839672 347.25606544 -8.46839672 347.25606544 -7.91761547 343.95720631 C-7.79773266 343.22050709 -7.67784985 342.48380787 -7.55433422 341.72478443 C-7.42284985 340.9507024 -7.29136547 340.17662037 -7.15589672 339.37908131 C-6.87840746 337.68639682 -6.6010679 335.99368779 -6.32386547 334.30095631 C-6.18126293 333.44179615 -6.0386604 332.582636 -5.89173657 331.69744068 C-5.22921853 327.67801174 -4.59967194 323.65351312 -3.96839672 319.62908131 C-3.71857246 318.04572024 -3.46857202 316.46238695 -3.21839672 314.87908131 C-3.09464672 314.09533131 -2.97089672 313.31158131 -2.84339672 312.50408131 C13.28160328 210.37908131 13.28160328 210.37908131 13.63525623 208.1394878 C13.8861873 206.55012568 14.13704133 204.9607514 14.38778919 203.37136036 C14.97677213 199.63874927 15.56654739 195.90627488 16.16075367 192.17449147 C17.76238706 182.09906338 19.32337249 172.01755638 20.87144703 161.93376881 C20.97589256 161.25355419 21.08033809 160.57333958 21.18794864 159.8725124 C22.16693838 153.49593574 23.14502273 147.11922037 24.12217945 140.74236256 C24.66312531 137.21247242 25.20489108 133.6827088 25.7470898 130.1530109 C26.04222098 128.23023858 26.33649093 126.30733412 26.63070911 124.38442189 C28.54014466 111.95613303 30.54486132 99.54621851 32.53160328 87.12908131 C15.37160328 87.12908131 -1.78839672 87.12908131 -19.46839672 87.12908131 C-18.34340924 75.8792065 -18.34340924 75.8792065 -17.57630688 71.0629192 C-17.40587872 69.98381779 -17.23545056 68.90471638 -17.0598579 67.79291493 C-16.87756634 66.6573264 -16.69527478 65.52173786 -16.50745922 64.35173756 C-16.31622479 63.14577427 -16.12499035 61.93981098 -15.92796093 60.69730335 C-15.31911147 56.86163226 -14.70634226 53.02659975 -14.09339672 49.19158131 C-13.68948699 46.65190972 -13.28583894 44.11219651 -12.88245922 41.57244068 C-12.29317341 37.86252966 -11.70311576 34.15275313 -11.11005932 30.44344288 C-10.2401718 25.00215448 -9.37692327 19.56028613 -8.54554516 14.11296803 C-8.40796795 13.21774937 -8.27039074 12.32253071 -8.12864453 11.40018421 C-7.87813835 9.76493723 -7.63087774 8.1291884 -7.38749462 6.4928661 C-6.4411222 0.33862588 -6.26067677 0.01749263 0 0 Z " fill="#FE5B39" transform="translate(452.4683967232704,746.8709186911583)"/>
<path d="M0 0 C2.62499658 0.01005125 5.24999689 0.0191733 7.875 0.02734375 C14.25008258 0.04918397 20.62502346 0.08249116 27 0.125 C26.84812548 1.69877343 26.69465303 3.2723927 26.54052734 4.84594727 C26.45523773 5.7222731 26.36994812 6.59859894 26.28207397 7.5014801 C25.86521885 11.37857548 25.25731416 15.2156463 24.625 19.0625 C24.35669327 20.72785209 24.08846638 22.39321704 23.8203125 24.05859375 C23.61583496 25.31905518 23.61583496 25.31905518 23.40722656 26.60498047 C22.76005283 30.60985295 22.13053633 34.61748058 21.5 38.625 C20.75275498 43.36372203 20.0040944 48.10220644 19.25 52.83984375 C17.93256284 61.12888919 16.64617972 69.42163291 15.40625 77.72265625 C15.26993164 78.63341919 15.13361328 79.54418213 14.99316406 80.48254395 C14.66181091 82.6966515 14.33076029 84.91080381 14 87.125 C13.36487991 87.12864563 12.72975983 87.13229126 12.07539368 87.13604736 C5.40659255 87.17817465 -1.26153956 87.24772776 -7.92993164 87.33251953 C-10.41163408 87.36057594 -12.89342334 87.3818659 -15.37524414 87.39599609 C-18.96284956 87.4176386 -22.54942776 87.46439826 -26.13671875 87.515625 C-27.22893234 87.51685364 -28.32114594 87.51808228 -29.44645691 87.51934814 C-46.64934633 87.83932893 -61.0949496 94.92132793 -73 107.125 C-89.28865938 124.60328057 -97.21291898 148.1784755 -102 171.125 C-102.16516113 171.90504395 -102.33032227 172.68508789 -102.50048828 173.48876953 C-104.69249508 184.29466032 -105.29271298 194.98408903 -105.375 206 C-105.38893799 207.18779053 -105.40287598 208.37558105 -105.41723633 209.59936523 C-105.32752835 226.38640694 -101.27283401 245.31914158 -89.34375 257.8671875 C-79.61137206 266.75904189 -68.60317144 268.40460349 -55.84375 268.5390625 C-54.12943787 268.56811172 -54.12943787 268.56811172 -52.38049316 268.5977478 C-48.75373647 268.65721351 -45.12694747 268.70379685 -41.5 268.75 C-39.03123666 268.78821014 -36.56248622 268.82726361 -34.09375 268.8671875 C-28.06261506 268.96288779 -22.03140152 269.04803071 -16 269.125 C-16.15118585 271.00246023 -16.30391803 272.87979597 -16.45727539 274.75708008 C-16.54215714 275.80253494 -16.62703888 276.84798981 -16.7144928 277.92512512 C-17.15882252 282.90503285 -17.78578613 287.85613248 -18.4375 292.8125 C-18.55931641 293.77994141 -18.68113281 294.74738281 -18.80664062 295.74414062 C-19.48443847 300.94527329 -20.35745346 306.01848925 -21.55151367 311.12524414 C-22.17351892 313.8987036 -22.5649964 316.68316323 -22.9375 319.5 C-23.74020598 325.32119846 -24.59487869 331.13129757 -25.5 336.9375 C-25.61851318 337.71335449 -25.73702637 338.48920898 -25.85913086 339.28857422 C-26.47148218 343.19382083 -27.17873196 347.05223875 -28.04882812 350.90893555 C-28.22740356 351.70325485 -28.405979 352.49757416 -28.58996582 353.31596375 C-28.7252771 353.91294571 -28.86058838 354.50992767 -29 355.125 C-38.09399284 355.19509685 -47.18788999 355.24810971 -56.28209591 355.28043652 C-60.50676584 355.29596657 -64.7312484 355.31696729 -68.95581055 355.35131836 C-73.04721936 355.38437129 -77.13845015 355.40194763 -81.22998238 355.40963173 C-82.77617755 355.41509419 -84.32236511 355.42575529 -85.86848259 355.44219017 C-117.25568315 355.76197884 -145.4818065 345.51590761 -168.125 323.5 C-193.55374619 297.84260296 -202.26267729 261.18856613 -202.125 226.0625 C-202.12016602 224.77118164 -202.11533203 223.47986328 -202.11035156 222.14941406 C-201.70854117 158.16512763 -181.93027935 93.54787139 -135.89624023 47.65063477 C-113.78360464 26.37190937 -85.27039413 11.73235579 -55.625 4.4375 C-54.40514404 4.13344238 -54.40514404 4.13344238 -53.16064453 3.82324219 C-35.49355944 -0.31623912 -18.04896674 -0.12078223 0 0 Z " fill="#FE5B39" transform="translate(958,746.875)"/>
<path d="M0 0 C1.79745628 0.0056086 3.59491721 0.00987271 5.39237976 0.01286316 C10.07934664 0.02421255 14.76602606 0.05359208 19.45288086 0.0869751 C25.09986177 0.12334605 30.74693983 0.1368844 36.39400482 0.15433502 C44.93344154 0.18323722 53.47224994 0.24079277 62.01171875 0.29296875 C62.01171875 25.04296875 62.01171875 49.79296875 62.01171875 75.29296875 C28.94921875 75.48046875 28.94921875 75.48046875 18.54272461 75.50073242 C15.81231764 75.52718297 13.0819275 75.55546112 10.3515625 75.5859375 C9.64922989 75.58362625 8.94689728 75.581315 8.22328186 75.57893372 C-2.89314366 75.47787284 -2.89314366 75.47787284 -11.98828125 81.29296875 C-15.29465635 85.87243565 -14.66410182 91.92088481 -13.98828125 97.29296875 C-11.8951819 102.57761214 -8.15835754 106.51080653 -3.98828125 110.29296875 C-3.49457031 110.76734375 -3.00085938 111.24171875 -2.4921875 111.73046875 C2.06869867 115.95614502 7.03574935 119.45202966 12.13671875 122.98046875 C28.00073451 134.01269026 42.30221506 146.31378538 52.01171875 163.29296875 C52.47320312 164.06898438 52.9346875 164.845 53.41015625 165.64453125 C57.50723601 173.06893639 59.21147384 181.07714518 61.01171875 189.29296875 C61.27758789 190.48394165 61.27758789 190.48394165 61.54882812 191.69897461 C65.1413722 211.83124298 61.02002382 232.81111546 53.01171875 251.29296875 C52.54765625 252.36417969 52.08359375 253.43539062 51.60546875 254.5390625 C42.09698292 274.85024473 25.22198977 290.94872975 4.63671875 299.66796875 C-9.76341552 304.84046685 -23.03461195 306.88967273 -38.2734375 306.68359375 C-39.76525265 306.67768739 -41.2570762 306.67362229 -42.74890137 306.67138672 C-48.18299058 306.65070725 -53.61690051 306.59486543 -59.05078125 306.54296875 C-71.24015625 306.46046875 -83.42953125 306.37796875 -95.98828125 306.29296875 C-95.98828125 281.54296875 -95.98828125 256.79296875 -95.98828125 231.29296875 C-63.92578125 231.04296875 -63.92578125 231.04296875 -53.83569336 230.99511719 C-51.18731958 230.96574433 -48.53896134 230.93491799 -45.890625 230.90234375 C-44.86939293 230.90189056 -44.86939293 230.90189056 -43.82752991 230.90142822 C-33.16967737 231.01112208 -33.16967737 231.01112208 -23.98828125 226.29296875 C-20.29933364 221.65203466 -20.35825576 216.328447 -20.52734375 210.60546875 C-21.81084222 201.38168313 -27.86538867 196.02121472 -34.9375 190.56640625 C-35.94425781 189.81617188 -36.95101562 189.0659375 -37.98828125 188.29296875 C-40.11535465 186.67057984 -42.24069101 185.04619162 -44.36328125 183.41796875 C-44.90525146 183.00345459 -45.44722168 182.58894043 -46.00561523 182.16186523 C-70.1724003 163.59370088 -90.68081197 142.93494049 -95.578125 111.5078125 C-97.06767757 98.26047115 -96.55854305 85.13663782 -92.98828125 72.29296875 C-92.72144531 71.17019531 -92.45460937 70.04742187 -92.1796875 68.890625 C-85.98484527 44.41411502 -70.61270537 23.34849359 -48.96875 10.40039062 C-43.58890159 7.39213219 -37.89212687 5.05769087 -31.98828125 3.29296875 C-31.14047592 3.03939606 -30.29267059 2.78582336 -29.41917419 2.52456665 C-19.54740509 -0.08428488 -10.1228147 -0.09383712 0 0 Z " fill="#FEFEFE" transform="translate(285.98828125,397.70703125)"/>
<path d="M0 0 C31.68 0 63.36 0 96 0 C94.92627025 15.03221649 94.92627025 15.03221649 93.53125 20.6328125 C92.6145373 24.71757644 92.13237312 28.86678219 91.5625 33.01171875 C90.95196911 37.41262891 90.26065194 41.7997561 89.5625 46.1875 C89.37119507 47.39092041 89.37119507 47.39092041 89.17602539 48.61865234 C88.91466179 50.26062303 88.65302278 51.9025499 88.39111328 53.54443359 C87.75647483 57.52894894 87.12850742 61.51451383 86.5 65.5 C86.25003345 67.08333861 86.00003341 68.66667194 85.75 70.25 C85.564375 71.425625 85.564375 71.425625 85.375 72.625 C80 106.66666667 74.625 140.70833333 69.25 174.75 C69.13326431 175.48938812 69.01652863 176.22877625 68.89625549 176.99057007 C68.64579466 178.57670304 68.39526459 180.16282508 68.14463806 181.74893188 C67.54716447 185.53074331 66.95052915 189.31267771 66.35766602 193.09521484 C64.89000342 202.44565595 63.38974987 211.79051944 61.87109375 221.1328125 C57.32546762 249.11378567 52.86207659 277.10509209 48.5625 305.125 C48.45738476 305.80976662 48.35226952 306.49453323 48.24396896 307.20005035 C45.79923945 323.12893411 43.39057751 339.06281659 41 355 C9.32 355 -22.36 355 -55 355 C-55 344.87532207 -55 344.87532207 -54.4050293 341.33251953 C-54.27456711 340.53363312 -54.14410492 339.7347467 -54.00968933 338.91165161 C-53.86598404 338.0771347 -53.72227875 337.2426178 -53.57421875 336.3828125 C-53.42596146 335.48617889 -53.27770416 334.58954529 -53.12495422 333.66574097 C-52.6525782 330.8176482 -52.17036832 327.97133067 -51.6875 325.125 C-51.37496801 323.25532238 -51.06311415 321.38553127 -50.75195312 319.515625 C-50.28894758 316.73406265 -49.82543974 313.95259581 -49.35922241 311.17156982 C-47.96618827 302.85281049 -46.64394877 294.52366507 -45.34268188 286.19012451 C-44.73286739 282.29272074 -44.11596974 278.39643478 -43.5 274.5 C-43.24997081 272.91667128 -42.99996735 271.33333849 -42.75 269.75 C-35.25 222.25 -35.25 222.25 -34.89624023 220.00975037 C-34.64565672 218.42257668 -34.39515752 216.83538967 -34.14477539 215.2481842 C-33.55054507 211.48207808 -32.95534494 207.71613901 -32.35546875 203.95092773 C-30.83825915 194.41123701 -29.36255027 184.86558089 -27.90625 175.31640625 C-23.19247958 144.42891744 -18.35324144 113.56565035 -13.33363533 82.72634315 C-12.76379924 79.22516148 -12.19426529 75.72393077 -11.625 72.22265625 C-11.51402859 71.54023487 -11.40305717 70.85781349 -11.28872299 70.15471268 C-8.57957385 53.48481229 -5.96507475 36.80023443 -3.37255859 20.11181641 C-3.21770996 19.11706802 -3.06286133 18.12231964 -2.90332031 17.09742737 C-2.61859632 15.26729597 -2.3348281 13.43701548 -2.05224609 11.60655212 C-1.8646875 10.400541 -1.8646875 10.400541 -1.67333984 9.17016602 C-1.56661957 8.48036148 -1.45989929 7.79055695 -1.34994507 7.07984924 C-0.95132109 4.71068372 -0.47116249 2.35581244 0 0 Z " fill="#FE5B39" transform="translate(671,747)"/>
<path d="M0 0 C58.41 0 116.82 0 177 0 C177 24.75 177 49.5 177 75 C161.16 75 145.32 75 129 75 C129 151.56 129 228.12 129 307 C101.61 307 74.22 307 46 307 C46 230.44 46 153.88 46 75 C30.82 75 15.64 75 0 75 C0 50.25 0 25.5 0 0 Z " fill="#49C5B1" transform="translate(1769,288)"/>
<path d="M0 0 C57.75 0 115.5 0 175 0 C175 24.42 175 48.84 175 74 C159.49 74 143.98 74 128 74 C128 150.56 128 227.12 128 306 C100.61 306 73.22 306 45 306 C45 229.77 45 153.54 45 75 C30.15 75 15.3 75 0 75 C0 50.25 0 25.5 0 0 Z " fill="#FEFEFE" transform="translate(366,398)"/>
<path d="M0 0 C13.59732168 10.12275457 17.08736855 26.62629911 19.94140625 42.4453125 C20.8401377 49.75360908 21.10063502 57.02998917 21.109375 64.38671875 C21.1143676 65.89745216 21.1143676 65.89745216 21.11946106 67.43870544 C21.12448858 69.55719553 21.12687069 71.67569341 21.12670898 73.79418945 C21.1288842 76.97556167 21.14705433 80.15658 21.16601562 83.33789062 C21.23186081 106.80781244 21.07094444 136.27762048 3.94140625 154.4453125 C-1.81484829 159.29127562 -7.35824718 159.92536363 -14.6953125 159.84375 C-20.89034093 159.10984419 -24.62488308 156.12353148 -28.73046875 151.60546875 C-37.79373329 139.43546663 -40.28307251 124.10520014 -42.05859375 109.4453125 C-42.1459227 108.77321243 -42.23325165 108.10111237 -42.32322693 107.40864563 C-43.03998725 101.57887848 -43.23466133 95.82323845 -43.26171875 89.953125 C-43.26741882 88.96770721 -43.2731189 87.98228943 -43.2789917 86.9670105 C-43.28839029 84.88784846 -43.29495508 82.80867186 -43.29882812 80.72949219 C-43.30845978 77.61365292 -43.33950254 74.49849544 -43.37109375 71.3828125 C-43.48555159 49.66540998 -42.26929406 21.1880522 -27.00390625 4.15234375 C-19.2686123 -2.92617996 -9.56037262 -5.52377085 0 0 Z " fill="#FEFEFE" transform="translate(1420.05859375,362.5546875)"/>
<path d="M0 0 C10.35347377 0 18.20098878 2.6075174 25.89453125 9.76171875 C36.36699404 20.59461047 40.33080155 33.59259247 43 48 C43.22558594 49.10859375 43.45117188 50.2171875 43.68359375 51.359375 C48.42871029 79.24102531 47.65873017 116.60253932 30.78125 140.734375 C25.93177861 146.90256229 21.3015985 151.01638994 14 154 C12.515 154.61875 12.515 154.61875 11 155.25 C8 156 8 156 0 156 C0 104.52 0 53.04 0 0 Z " fill="#36424B" transform="translate(1068,474)"/>
<path d="M0 0 C2.20034956 -0.04258375 4.40094273 -0.07267192 6.6015625 -0.09765625 C7.82697754 -0.11578369 9.05239258 -0.13391113 10.31494141 -0.15258789 C18.7589422 0.19705438 26.20840427 3.04568474 32.3125 8.93359375 C39.28545563 17.47223617 40.65968666 26.31307617 40 37 C38.15277847 50.77416369 34.2915325 62.53437407 25 73 C24.50113281 73.61488281 24.00226563 74.22976563 23.48828125 74.86328125 C17.30430033 81.88840818 7.27989644 87.03410828 -2 88 C-6.0020932 88.12171816 -9.99680814 88.04447991 -14 88 C-12.65234463 77.17776374 -10.96378042 66.43500401 -9.14212036 55.68353271 C-8.36293781 51.08417455 -7.59199164 46.4834345 -6.8203125 41.8828125 C-6.58904411 40.50574631 -6.58904411 40.50574631 -6.35310364 39.1008606 C-4.88815953 30.36447545 -3.46664342 21.62133995 -2.0625 12.875 C-1.95513519 12.20662109 -1.84777039 11.53824219 -1.7371521 10.84960938 C-1.15650319 7.23332775 -0.57740765 3.61680051 0 0 Z " fill="#353F47" transform="translate(1560,824)"/>
<path d="M0 0 C2.33286258 2.33286258 2.2780949 2.83829639 2.45703125 6.00390625 C2.54343872 7.29723877 2.54343872 7.29723877 2.6315918 8.61669922 C2.72114136 10.07487061 2.72114136 10.07487061 2.8125 11.5625 C3.61564637 22.54806523 4.82624828 33.44717368 6.1875 44.375 C6.3424292 45.62379944 6.3424292 45.62379944 6.50048828 46.89782715 C6.94708033 50.49732495 7.39458525 54.096707 7.84368896 57.69589233 C9.28453025 69.2510745 10.69185448 80.81033969 12.09198856 92.37051392 C12.64658795 96.94902277 13.20511219 101.52704283 13.7644043 106.10498047 C14.05794224 108.52439438 14.35132523 110.94382709 14.64453125 113.36328125 C14.78178619 114.48121567 14.91904114 115.59915009 15.06045532 116.7509613 C15.24672989 118.29603111 15.24672989 118.29603111 15.43676758 119.87231445 C15.5460408 120.77013138 15.65531403 121.6679483 15.76789856 122.5929718 C16 125 16 125 16 129 C4.45 129 -7.1 129 -19 129 C-16.69514162 109.40870381 -16.69514162 109.40870381 -15.04641724 99.86735535 C-14.54213183 96.93192245 -14.0431481 93.99571533 -13.55050659 91.05830383 C-12.48245009 84.69428763 -11.40681766 78.33159058 -10.31884766 71.97094727 C-9.51719811 67.27793541 -8.72591721 62.58327738 -7.9453125 57.88671875 C-7.81719429 57.11588833 -7.68907608 56.34505791 -7.5570755 55.55086899 C-5.29149027 41.79875274 -3.61456108 28.01061836 -2.19827271 14.14689636 C-2.12329685 13.41841429 -2.048321 12.68993221 -1.97107315 11.93937492 C-1.7708584 9.97575494 -1.57695711 8.01149411 -1.3835144 6.04719543 C-1 3 -1 3 0 0 Z " fill="#37424B" transform="translate(634,471)"/>
<path d="M0 0 C8.85252402 8.61096237 13.46208369 18.91801163 14 31.3125 C13.48128681 42.8071844 9.51870615 53.01621049 1.26171875 61.13671875 C-9.93275054 70.55539353 -20.99106533 72.84616332 -35.375 71.8125 C-46.31633297 69.40705619 -56.01770579 63.04797219 -62.375 53.8125 C-68.14790946 43.16402452 -70.18527329 32.55353387 -67.69140625 20.51171875 C-65.68941217 13.97408664 -62.9330932 8.88681099 -58.375 3.8125 C-57.58802734 2.88824219 -57.58802734 2.88824219 -56.78515625 1.9453125 C-41.95404703 -14.31656255 -16.2665775 -13.71733774 0 0 Z M-55.625 10.375 C-61.03910546 18.16241196 -63.35710286 27.45097167 -62.10546875 36.83203125 C-59.85376503 46.01946408 -55.01958288 54.15760308 -47.375 59.8125 C-38.06046203 65.0453865 -28.94424722 67.46102023 -18.4375 64.6875 C-8.85044353 61.52612402 -0.84841194 55.29688739 3.9453125 46.34765625 C7.94329544 36.82798359 8.20577996 26.93592383 4.4375 17.3125 C-0.02475168 7.94052851 -6.61937629 2.25377757 -16.0625 -2.0625 C-30.87827779 -7.0010926 -45.90541634 -1.16700559 -55.625 10.375 Z " fill="#323E48" transform="translate(1981.375,1068.1875)"/>
<path d="M0 0 C4.0425 -0.04125 8.085 -0.0825 12.25 -0.125 C13.51875977 -0.14320801 14.78751953 -0.16141602 16.09472656 -0.18017578 C17.60244629 -0.18766846 17.60244629 -0.18766846 19.140625 -0.1953125 C20.68024902 -0.21102295 20.68024902 -0.21102295 22.25097656 -0.22705078 C25.08373051 0.00691558 26.66078522 0.41066765 29 2 C31.86787512 7.04350452 32.45542706 10.38620992 31 16 C30.13375 17.2375 30.13375 17.2375 29.25 18.5 C28.8375 19.325 28.425 20.15 28 21 C29.10549086 24.04541118 29.10549086 24.04541118 30.1640625 26.03515625 C31.39538617 28.92934226 31.55685381 31.77401656 31.7890625 34.88671875 C32.0005399 37.00540898 32.43541307 38.94990155 33 41 C30.66705225 41.04241723 28.33297433 41.04092937 26 41 C24.13784473 39.13784473 24.35174579 36.07143675 24 33.5625 C23.47882609 29.13450925 23.47882609 29.13450925 22 25 C19.28691681 24.52278016 16.67026185 24.16013459 13.9375 23.875 C11.318125 23.58625 8.69875 23.2975 6 23 C6 28.94 6 34.88 6 41 C4.02 41 2.04 41 0 41 C0 27.47 0 13.94 0 0 Z M6 5 C6 9.29 6 13.58 6 18 C8.24973447 18.054138 10.49984383 18.09285491 12.75 18.125 C14.62945313 18.15980469 14.62945313 18.15980469 16.546875 18.1953125 C19.73960816 18.01472805 21.41031936 17.79769093 24 16 C25.41441874 13.17116253 25.31900332 11.12623255 25 8 C22.50534858 5.27048318 21.0552612 5.00440914 17.328125 4.70703125 C15.96843965 4.72683249 14.6089066 4.76240798 13.25 4.8125 C12.55261719 4.82603516 11.85523438 4.83957031 11.13671875 4.85351562 C9.42414459 4.8887055 7.71197059 4.94250845 6 5 Z " fill="#323E47" transform="translate(1939,1079)"/>
<path d="M0 0 C2 2 2 2 2.125 5.625 C2.08375 6.73875 2.0425 7.8525 2 9 C1.01 9.33 0.02 9.66 -1 10 C-1.125 3.375 -1.125 3.375 0 0 Z " fill="#626C72" transform="translate(634,471)"/>
<path d="M0 0 C2.35953094 2.35953094 2.49141413 3.77895617 3 7 C2.34 7 1.68 7 1 7 C1 8.98 1 10.96 1 13 C0.67 13 0.34 13 0 13 C0 8.71 0 4.42 0 0 Z " fill="#525C63" transform="translate(826,528)"/>
</svg>
