<svg width="429" height="567" viewBox="0 0 429 567" fill="none" xmlns="http://www.w3.org/2000/svg">
<path fill-rule="evenodd" clip-rule="evenodd" d="M362.606 21.3788C373.908 21.3788 383.069 12.2173 383.069 0.916061L428.496 0.916016L428.496 49.6173C417.195 49.6173 408.033 58.7788 408.033 70.08C408.033 81.3813 417.195 90.5428 428.496 90.5428L428.496 120.828C417.195 120.828 408.033 129.989 408.033 141.29C408.033 152.592 417.195 161.753 428.496 161.753V192.038C417.195 192.038 408.033 201.199 408.033 212.501C408.033 223.802 417.195 232.963 428.496 232.963V263.248C417.195 263.248 408.033 272.41 408.033 283.711C408.033 295.012 417.195 304.174 428.496 304.174L428.496 334.458C417.195 334.458 408.033 343.62 408.033 354.921C408.033 366.222 417.195 375.384 428.496 375.384L428.496 405.669C417.195 405.669 408.033 414.83 408.033 426.131C408.033 437.433 417.195 446.594 428.496 446.594V476.879C417.195 476.879 408.033 486.04 408.033 497.342C408.033 508.643 417.195 517.804 428.496 517.804L428.496 566.915L383.888 566.915C383.888 555.614 374.726 546.452 363.425 546.452C352.123 546.452 342.962 555.614 342.962 566.915H309.403C309.403 555.614 300.242 546.452 288.94 546.452C277.639 546.452 268.478 555.614 268.478 566.915L234.919 566.915C234.919 555.614 225.757 546.452 214.456 546.452C203.155 546.452 193.993 555.614 193.993 566.915H160.435C160.435 555.614 151.273 546.452 139.972 546.452C128.671 546.452 119.509 555.614 119.509 566.915H85.9503C85.9503 555.614 76.7888 546.452 65.4876 546.452C54.1863 546.452 45.0248 555.614 45.0248 566.915L0.00688171 566.915L0.00683594 517.804C11.3081 517.804 20.4696 508.643 20.4696 497.342C20.4696 486.04 11.3081 476.879 0.00683594 476.879L0.00683594 446.594C11.3081 446.594 20.4696 437.433 20.4696 426.131C20.4696 414.83 11.3081 405.669 0.00683594 405.669L0.00683594 375.384C11.3081 375.384 20.4696 366.222 20.4696 354.921C20.4696 343.62 11.3081 334.458 0.00683594 334.458L0.00683594 304.174C11.3081 304.174 20.4696 295.012 20.4696 283.711C20.4696 272.41 11.3081 263.248 0.00683594 263.248L0.00685501 232.963C11.3081 232.963 20.4696 223.802 20.4696 212.501C20.4696 201.199 11.3081 192.038 0.00685501 192.038L0.00683594 161.753C11.3081 161.753 20.4696 152.592 20.4696 141.29C20.4696 129.989 11.3081 120.828 0.00683594 120.828L0.00688171 90.5429C11.3082 90.5429 20.4696 81.3814 20.4696 70.0802C20.4696 58.7789 11.3082 49.6174 0.00688171 49.6174L0.00688171 0.916016L44.2064 0.916016C44.2064 12.2173 53.3679 21.3788 64.6692 21.3788C75.9705 21.3788 85.132 12.2173 85.132 0.916016L118.691 0.916061C118.691 12.2173 127.852 21.3788 139.153 21.3788C150.455 21.3788 159.616 12.2173 159.616 0.916061L193.175 0.916042C193.175 12.2173 202.337 21.3788 213.638 21.3788C224.939 21.3788 234.101 12.2173 234.101 0.916042L267.659 0.916061C267.659 12.2173 276.821 21.3788 288.122 21.3788C299.423 21.3788 308.585 12.2173 308.585 0.916061L342.144 0.916061C342.144 12.2173 351.305 21.3788 362.606 21.3788Z" fill="#FDF8E7"/>
<rect width="338.453" height="468.596" transform="matrix(1 0 0 -1 45.0254 518.214)" fill="url(#paint0_linear_502_45)"/>
<path opacity="0.996" fill-rule="evenodd" clip-rule="evenodd" d="M124.206 64.908C127.666 64.4477 130.905 65.0594 133.922 66.7461C136.22 68.4725 138.599 70.0901 141.057 71.5989C142.373 72.6047 143.208 73.9047 143.561 75.4958C143.686 77.3722 143.636 79.2353 143.41 81.0838C145.204 79.9574 147.152 79.2221 149.254 78.878C150.519 78.9692 151.783 79.0427 153.049 79.0986C156.22 80.0441 157.562 82.1279 157.072 85.3483C156.966 85.9998 156.714 86.588 156.313 87.113C155.432 88.1129 154.496 89.0688 153.505 89.9805C154.393 90.2996 155.278 90.6187 156.161 90.9364C156.861 89.4732 157.898 88.2732 159.273 87.3336C163.153 84.6793 167.455 83.7484 172.177 84.5396C177.136 85.3013 180.678 87.8747 182.803 92.2598C185.288 91.0158 187.717 91.0893 190.089 92.4804C191.043 93.2554 191.954 94.0892 192.822 94.9803C196.511 94.6848 199.901 95.5185 202.993 97.4802C204.535 98.6817 205.649 100.177 206.333 101.965C209.564 99.7331 212.728 99.8301 215.82 102.259C218.399 100.864 220.954 100.937 223.486 102.48C225.452 104.239 225.984 106.371 225.08 108.877C223.688 112.137 221.234 113.338 217.718 112.48C217.375 112.325 217.045 112.155 216.731 111.965C215.36 113.571 213.665 114.674 211.646 115.274C210.058 115.516 208.566 115.296 207.167 114.612C206.43 116.188 205.569 117.709 204.587 119.171C200.821 123.291 196.09 124.982 190.393 124.244C189.356 124.037 188.445 123.595 187.661 122.92C184.257 122.437 181.55 120.844 179.539 118.141C178.774 116.849 178.217 115.477 177.869 114.024C175.61 119.69 171.336 122.337 165.042 121.965C159.889 122.19 155.943 120.204 153.201 116.009C152.188 115.91 151.177 115.91 150.165 116.009C145.811 117.028 141.764 116.341 138.021 113.95C136.935 113.021 135.872 112.065 134.833 111.083C132.624 113.688 130.093 115.968 127.242 117.921C126.396 118.428 125.485 118.772 124.51 118.95C120.49 119.776 117.125 118.722 114.415 115.788C114.053 115.227 113.749 114.638 113.504 114.024C113.298 113.894 113.071 113.846 112.821 113.877C112.904 115.08 112.778 116.256 112.441 117.406C111.263 119.513 109.77 121.4 107.963 123.067C101.183 127.513 95.5916 126.41 91.1888 119.759C89.9595 117.6 89.5546 115.297 89.9744 112.847C90.1779 111.791 90.608 110.836 91.2647 109.98C90.9174 109.859 90.5631 109.761 90.2021 109.686C87.4646 109.881 84.9346 109.293 82.6118 107.921C82.1249 107.424 81.6187 106.959 81.0938 106.524C76.7199 107.722 72.3175 107.845 67.8868 106.892C64.1627 105.589 61.911 103.064 61.1315 99.3184C60.6154 95.7303 61.4755 92.4951 63.7122 89.6129C65.0576 88.26 66.4492 86.9615 67.8868 85.716C70.7667 84.266 73.7521 84.0705 76.8433 85.1278C79.2037 86.0263 81.4302 87.1527 83.5227 88.51C85.3827 89.2526 87.3056 89.7923 89.2912 90.1276C90.1682 90.429 90.9779 90.8467 91.7201 91.3775C93.7645 89.0056 96.3451 88.2468 99.4622 89.0982C101.521 89.8952 103.647 90.3849 105.838 90.5687C102.988 85.0131 104.607 81.2882 110.696 79.3927C112.758 78.9986 114.832 78.9251 116.92 79.1721C116.43 75.2987 117.164 71.6709 119.121 68.2902C120.402 66.5564 122.097 65.4285 124.206 64.908Z" fill="white"/>
<path opacity="0.996" fill-rule="evenodd" clip-rule="evenodd" d="M113.827 181.513C116.719 181.154 119.426 181.631 121.947 182.944C123.868 184.288 125.857 185.547 127.911 186.722C129.011 187.505 129.709 188.517 130.004 189.755C130.108 191.216 130.066 192.667 129.877 194.106C131.377 193.229 133.005 192.656 134.762 192.389C135.819 192.46 136.876 192.517 137.934 192.56C140.585 193.296 141.707 194.919 141.297 197.426C141.208 197.933 140.997 198.391 140.662 198.8C139.926 199.578 139.144 200.322 138.315 201.032C139.057 201.281 139.797 201.529 140.535 201.776C141.12 200.637 141.987 199.703 143.137 198.971C146.38 196.905 149.975 196.18 153.921 196.796C158.067 197.389 161.027 199.393 162.803 202.807C164.88 201.838 166.91 201.895 168.893 202.978C169.69 203.582 170.452 204.231 171.177 204.925C174.261 204.695 177.094 205.344 179.678 206.871C180.967 207.806 181.899 208.971 182.47 210.363C185.171 208.625 187.815 208.7 190.4 210.592C192.556 209.505 194.691 209.562 196.807 210.763C198.45 212.133 198.895 213.793 198.14 215.743C196.976 218.282 194.924 219.217 191.986 218.548C191.699 218.428 191.424 218.295 191.161 218.148C190.015 219.398 188.598 220.256 186.911 220.723C185.583 220.912 184.336 220.741 183.168 220.208C182.551 221.436 181.832 222.619 181.011 223.757C177.863 226.965 173.909 228.282 169.147 227.707C168.281 227.546 167.519 227.202 166.863 226.677C164.019 226.3 161.756 225.06 160.075 222.956C159.436 221.95 158.97 220.881 158.679 219.75C156.791 224.161 153.219 226.222 147.958 225.933C143.652 226.108 140.353 224.562 138.061 221.296C137.215 221.219 136.37 221.219 135.524 221.296C131.885 222.089 128.502 221.555 125.373 219.693C124.466 218.97 123.578 218.225 122.709 217.461C120.862 219.489 118.747 221.264 116.365 222.784C115.657 223.179 114.896 223.447 114.081 223.586C110.721 224.229 107.908 223.408 105.643 221.124C105.341 220.687 105.087 220.229 104.882 219.75C104.71 219.65 104.519 219.612 104.311 219.636C104.381 220.572 104.275 221.488 103.994 222.383C103.009 224.024 101.761 225.493 100.251 226.791C94.5836 230.252 89.9101 229.393 86.2302 224.215C85.2027 222.535 84.8643 220.742 85.2151 218.834C85.3853 218.012 85.7447 217.268 86.2936 216.602C86.0033 216.508 85.7072 216.431 85.4055 216.373C83.1174 216.525 81.0028 216.067 79.0614 214.999C78.6544 214.612 78.2313 214.251 77.7926 213.912C74.1367 214.845 70.4572 214.94 66.7539 214.198C63.6412 213.184 61.7592 211.218 61.1077 208.302C60.6763 205.509 61.3952 202.99 63.2646 200.746C64.3892 199.693 65.5523 198.682 66.7539 197.712C69.161 196.583 71.6562 196.431 74.2399 197.254C76.2128 197.954 78.0737 198.831 79.8227 199.887C81.3774 200.465 82.9846 200.886 84.6442 201.147C85.3772 201.381 86.0539 201.706 86.6743 202.12C88.383 200.273 90.54 199.682 93.1452 200.345C94.8664 200.966 96.6427 201.347 98.4742 201.49C96.092 197.165 97.4455 194.265 102.534 192.789C104.258 192.482 105.992 192.425 107.737 192.618C107.328 189.602 107.941 186.778 109.576 184.146C110.647 182.796 112.064 181.918 113.827 181.513Z" fill="white"/>
<g opacity="0.996">
<path fill-rule="evenodd" clip-rule="evenodd" d="M307.704 103.562C307.609 103.6 307.524 103.649 307.448 103.707C307.48 103.804 307.522 103.894 307.576 103.976C307.576 103.99 307.576 104.004 307.576 104.018C307.589 104.143 307.611 104.267 307.64 104.39C307.679 104.541 307.701 104.693 307.704 104.846C307.704 104.887 307.704 104.929 307.704 104.97C307.69 105.085 307.711 105.196 307.768 105.302C307.684 105.415 307.684 105.532 307.768 105.654C307.91 105.682 308.049 105.717 308.184 105.757C308.348 105.686 308.508 105.611 308.663 105.529C308.432 105.5 308.219 105.452 308.024 105.384C308.364 105.42 308.705 105.427 309.047 105.405C309.149 105.366 309.234 105.317 309.303 105.26C309.821 105.106 310.354 104.975 310.901 104.867C311.644 104.803 312.39 104.788 313.139 104.825C313.624 104.975 314.114 105.114 314.61 105.24C314.962 105.388 315.324 105.526 315.697 105.654C316.239 106.046 316.804 106.426 317.392 106.793C317.555 106.977 317.683 107.17 317.775 107.373C317.802 107.943 317.887 108.508 318.031 109.071C318.222 109.318 318.414 109.567 318.607 109.816C318.813 109.691 319.037 109.58 319.278 109.485C319.387 109.309 319.536 109.151 319.726 109.009C319.616 108.928 319.53 108.839 319.47 108.74C319.625 108.769 319.774 108.81 319.918 108.864C320.025 108.822 320.111 108.766 320.173 108.698C320.461 108.519 320.759 108.346 321.069 108.18C321.392 108.062 321.712 107.945 322.028 107.828C322.411 107.707 322.816 107.631 323.243 107.6C324.008 107.541 324.775 107.527 325.545 107.559C326.125 107.692 326.722 107.774 327.335 107.808C328.377 107.996 329.262 108.349 329.989 108.864C330.186 109.057 330.25 109.264 330.181 109.485C330.566 109.819 330.886 110.177 331.14 110.562C331.246 110.862 331.309 111.166 331.332 111.473C332.308 110.899 333.427 110.741 334.689 110.997C336.585 111.473 337.299 112.363 336.831 113.669C336.64 114.145 336.224 114.511 335.584 114.766C335.241 114.895 334.879 114.992 334.497 115.056C333.737 115.421 332.884 115.649 331.939 115.74C331.123 115.75 330.431 115.571 329.861 115.201C329.676 115.054 329.548 114.888 329.477 114.704C326.756 114.932 324.038 115.056 321.324 115.077C321.322 115.776 320.875 116.322 319.981 116.713C318.199 117.135 316.493 117.024 314.866 116.382C314.653 116.244 314.44 116.105 314.226 115.967C313.187 115.977 312.164 115.901 311.157 115.74C311.106 115.775 311.128 115.81 311.221 115.843C311.411 116.371 311.07 116.661 310.198 116.713C310.016 116.792 309.825 116.862 309.622 116.92C308.533 117.034 307.446 117.159 306.361 117.293C305.38 117.372 304.4 117.372 303.42 117.293C302.737 117.182 302.194 116.94 301.789 116.568C301.634 116.358 301.592 116.137 301.661 115.905C301.733 115.817 301.829 115.741 301.949 115.677C300.517 115.539 299.078 115.422 297.633 115.325C296.904 115.35 296.18 115.378 295.459 115.408C294.951 115.37 294.407 115.35 293.828 115.346C292.547 115.954 291.13 116.375 289.576 116.609C287.228 116.471 285.565 115.711 284.588 114.331C284.509 114.055 284.435 113.78 284.364 113.503C284.412 113.297 284.434 113.09 284.428 112.882C283.112 113.15 281.79 113.157 280.464 112.902C279.368 112.579 278.632 112.047 278.257 111.308C278.215 110.811 278.215 110.313 278.257 109.816C278.406 109.21 278.885 108.747 279.696 108.429C280.016 108.332 280.336 108.235 280.655 108.139C280.229 107.925 279.92 107.656 279.728 107.331C279.589 107.019 279.461 106.701 279.345 106.379C279.355 105.649 279.504 104.931 279.792 104.225C280.205 103.572 280.813 103.012 281.615 102.547C282.504 102.167 283.485 101.959 284.556 101.926C284.592 100.871 284.88 99.8425 285.419 98.8401C285.762 98.5079 286.103 98.1766 286.442 97.846C287.049 97.5221 287.635 97.1837 288.201 96.8312C288.729 96.6685 289.24 96.4891 289.736 96.2928C290.568 96.1499 291.357 95.9428 292.102 95.6715C292.869 95.4946 293.658 95.4254 294.467 95.4644C296.152 95.7373 297.59 96.2824 298.784 97.1005C299.137 97.4815 299.563 97.8266 300.063 98.136C300.856 98.8045 301.41 99.5501 301.725 100.373C302.082 100.415 302.434 100.477 302.78 100.559C303.457 100.788 303.595 101.112 303.196 101.532C303.175 101.684 303.153 101.836 303.132 101.988C302.947 102.242 302.744 102.49 302.525 102.734C302.546 102.747 302.567 102.761 302.588 102.775C303.035 102.543 303.546 102.447 304.123 102.485C304.918 102.539 305.706 102.615 306.489 102.713C306.826 102.8 307.04 102.959 307.129 103.189C307.368 103.287 307.56 103.411 307.704 103.562Z" fill="white"/>
<path fill-rule="evenodd" clip-rule="evenodd" d="M229.346 123.699C233.59 123.262 237.562 123.842 241.261 125.442C244.08 127.08 246.997 128.614 250.011 130.045C251.625 130.999 252.649 132.232 253.083 133.741C253.236 135.521 253.174 137.288 252.897 139.042C255.097 137.973 257.486 137.276 260.064 136.95C261.615 137.036 263.166 137.106 264.718 137.159C268.607 138.056 270.253 140.032 269.652 143.087C269.522 143.705 269.212 144.263 268.721 144.761C267.641 145.709 266.493 146.616 265.277 147.48C266.366 147.783 267.451 148.086 268.535 148.387C269.393 146.999 270.665 145.861 272.351 144.97C277.11 142.452 282.386 141.569 288.176 142.32C294.258 143.042 298.601 145.483 301.207 149.642C304.255 148.462 307.234 148.532 310.143 149.852C311.313 150.587 312.43 151.378 313.494 152.223C318.018 151.942 322.176 152.733 325.968 154.594C327.859 155.734 329.226 157.152 330.063 158.848C334.027 156.731 337.907 156.823 341.699 159.127C344.862 157.803 347.995 157.873 351.1 159.336C353.511 161.005 354.163 163.027 353.055 165.404C351.348 168.496 348.338 169.636 344.026 168.821C343.605 168.675 343.201 168.513 342.816 168.333C341.135 169.856 339.055 170.902 336.579 171.471C334.632 171.701 332.802 171.492 331.087 170.844C330.183 172.339 329.127 173.781 327.923 175.167C323.304 179.076 317.503 180.68 310.516 179.98C309.244 179.783 308.127 179.364 307.165 178.724C302.991 178.265 299.671 176.755 297.205 174.191C296.266 172.965 295.583 171.664 295.157 170.286C292.387 175.66 287.144 178.17 279.426 177.818C273.107 178.031 268.267 176.148 264.905 172.169C263.663 172.075 262.423 172.075 261.181 172.169C255.842 173.135 250.879 172.484 246.288 170.216C244.957 169.334 243.653 168.428 242.378 167.496C239.669 169.968 236.566 172.13 233.07 173.982C232.032 174.463 230.915 174.789 229.719 174.958C224.789 175.742 220.662 174.742 217.339 171.959C216.895 171.427 216.522 170.869 216.222 170.286C215.969 170.163 215.69 170.117 215.384 170.146C215.486 171.287 215.331 172.403 214.918 173.494C213.473 175.492 211.643 177.282 209.426 178.864C201.111 183.08 194.254 182.034 188.855 175.725C187.347 173.678 186.851 171.493 187.365 169.17C187.615 168.168 188.143 167.262 188.948 166.45C188.522 166.335 188.087 166.242 187.645 166.171C184.288 166.356 181.185 165.798 178.336 164.497C177.739 164.026 177.118 163.585 176.475 163.172C171.111 164.309 165.712 164.425 160.278 163.521C155.711 162.285 152.949 159.89 151.993 156.337C151.361 152.934 152.415 149.866 155.158 147.132C156.808 145.848 158.515 144.617 160.278 143.435C163.81 142.06 167.471 141.875 171.262 142.878C174.157 143.73 176.887 144.798 179.453 146.086C181.734 146.79 184.093 147.302 186.528 147.62C187.603 147.906 188.596 148.302 189.506 148.805C192.014 146.556 195.178 145.836 199.001 146.644C201.526 147.399 204.133 147.864 206.82 148.038C203.325 142.769 205.311 139.236 212.777 137.438C215.306 137.064 217.85 136.994 220.41 137.229C219.81 133.555 220.71 130.114 223.11 126.907C224.681 125.262 226.76 124.193 229.346 123.699Z" fill="white"/>
</g>
<path d="M158.385 334.589L45.0254 296.807V401.986H383.07V302.664L294.111 327.247L231.458 338.796L158.385 334.589Z" fill="#CFF0C9"/>
<path d="M117.767 358.246L45.4346 518.214H383.479L337.915 440.185L302.585 353.469L285.461 288.033L220.608 217.821L117.767 358.246Z" fill="#C6ADE1" stroke="#C6ADE1"/>
<mask id="mask0_502_45" style="mask-type:alpha" maskUnits="userSpaceOnUse" x="44" y="217" width="341" height="302">
<path d="M117.768 358.246L45.4355 518.214H383.48L337.916 440.185L302.586 353.469L285.462 288.033L220.609 217.821L117.768 358.246Z" fill="#C6ADE1" stroke="#C6ADE1"/>
</mask>
<g mask="url(#mask0_502_45)">
<path opacity="0.996" fill-rule="evenodd" clip-rule="evenodd" d="M157.114 132.03C169.542 130.285 181.177 132.605 192.012 139C200.268 145.547 208.812 151.681 217.64 157.402C222.368 161.216 225.367 166.145 226.638 172.179C227.085 179.294 226.905 186.359 226.092 193.368C232.538 189.097 239.534 186.309 247.086 185.004C251.628 185.349 256.17 185.628 260.718 185.84C272.109 189.426 276.929 197.327 275.168 209.539C274.786 212.009 273.881 214.24 272.442 216.23C269.279 220.022 265.915 223.647 262.354 227.104C265.544 228.314 268.723 229.524 271.896 230.728C274.41 225.18 278.134 220.63 283.075 217.067C297.012 207.002 312.466 203.472 329.424 206.472C347.239 209.36 359.96 219.119 367.594 235.747C376.521 231.029 385.245 231.308 393.768 236.583C397.192 239.522 400.464 242.684 403.583 246.063C416.834 244.942 429.01 248.104 440.117 255.542C445.658 260.098 449.66 265.769 452.114 272.55C463.723 264.085 475.087 264.453 486.194 273.665C495.459 268.373 504.636 268.652 513.731 274.501C520.793 281.17 522.701 289.256 519.457 298.758C514.456 311.12 505.639 315.676 493.01 312.419C491.778 311.834 490.595 311.187 489.466 310.467C484.542 316.557 478.451 320.739 471.199 323.014C465.495 323.934 460.135 323.097 455.113 320.505C452.463 326.482 449.371 332.248 445.843 337.791C432.314 353.415 415.323 359.828 394.859 357.028C391.134 356.242 387.863 354.569 385.043 352.01C372.818 350.175 363.096 344.136 355.871 333.887C353.122 328.986 351.121 323.783 349.872 318.274C341.759 339.759 326.403 349.796 303.796 348.385C285.289 349.239 271.111 341.711 261.263 325.802C257.626 325.428 253.995 325.428 250.358 325.802C234.719 329.666 220.181 327.062 206.735 317.995C202.836 314.471 199.019 310.847 195.284 307.122C187.35 317.003 178.26 325.646 168.019 333.051C164.979 334.975 161.708 336.28 158.204 336.954C143.765 340.088 131.678 336.09 121.943 324.965C120.643 322.835 119.552 320.605 118.671 318.274C117.931 317.783 117.113 317.599 116.217 317.716C116.517 322.278 116.062 326.739 114.854 331.099C110.621 339.09 105.259 346.244 98.7678 352.567C74.4131 369.424 54.3286 365.242 38.5136 340.021C34.0979 331.835 32.6436 323.103 34.1514 313.813C34.8826 309.809 36.4274 306.185 38.7863 302.94C37.5387 302.482 36.266 302.109 34.9693 301.824C25.1361 302.566 16.0484 300.336 7.70494 295.133C5.95566 293.248 4.13768 291.486 2.25207 289.836C-13.4593 294.38 -29.2726 294.843 -45.1879 291.23C-58.5649 286.289 -66.6531 276.715 -69.4531 262.512C-71.3071 248.907 -68.2175 236.639 -60.1833 225.71C-55.3504 220.58 -50.3518 215.656 -45.1879 210.933C-34.8432 205.435 -24.1196 204.693 -13.016 208.702C-4.5373 212.109 3.46043 216.381 10.9767 221.528C17.6581 224.344 24.5652 226.39 31.6976 227.661C34.8477 228.805 37.7562 230.388 40.4222 232.401C47.7655 223.407 57.0354 220.529 68.2318 223.758C75.6286 226.78 83.2626 228.637 91.1338 229.334C80.8961 208.268 86.7126 194.143 108.583 186.955C115.99 185.461 123.442 185.182 130.94 186.119C129.182 171.431 131.818 157.675 138.846 144.855C143.449 138.281 149.538 134.004 157.114 132.03Z" fill="white"/>
</g>
<path d="M158.385 408.664L45.0254 370.882V476.061H383.07V376.739L294.111 401.322L231.458 412.871L158.385 408.664Z" fill="#B7E2AF"/>
<path d="M158.794 450.817L45.4346 413.035V518.214H383.479V418.892L294.52 443.475L231.868 455.024L158.794 450.817Z" fill="#8DBE83"/>
<mask id="mask1_502_45" style="mask-type:alpha" maskUnits="userSpaceOnUse" x="45" y="413" width="339" height="106">
<path d="M158.795 450.817L45.4355 413.036V518.214H383.48V418.893L294.521 443.476L231.869 455.025L158.795 450.817Z" fill="#8DBE83"/>
</mask>
<g mask="url(#mask1_502_45)">
<path d="M311.532 589.425C351.386 555.729 353.986 482.527 45.5534 459.281L-7.42162 468.694L-26.1836 581.24L311.532 589.425Z" fill="#A6D3E4"/>
</g>
<mask id="mask2_502_45" style="mask-type:alpha" maskUnits="userSpaceOnUse" x="45" y="49" width="339" height="470">
<rect x="45.4346" y="49.6174" width="338.044" height="468.596" fill="#FFE5BC"/>
</mask>
<g mask="url(#mask2_502_45)">
<ellipse cx="170.205" cy="461.592" rx="54.892" ry="37.9159" fill="#BF8C68"/>
<ellipse cx="121.625" cy="439.237" rx="16.2309" ry="15.5609" fill="#BF8C68"/>
<ellipse cx="121.626" cy="531.616" rx="87.241" ry="58.6272" fill="#BF8C68"/>
<ellipse cx="162.879" cy="448.661" rx="6.31201" ry="6.13667" fill="#2D2929"/>
<ellipse cx="121.626" cy="438.908" rx="10.1443" ry="9.75293" fill="#E6ADAD"/>
<rect width="24.4552" height="21.1204" transform="matrix(0.716995 -0.697078 0.716995 0.697078 116.666 450.586)" fill="#BF8C68"/>
<mask id="mask3_502_45" style="mask-type:alpha" maskUnits="userSpaceOnUse" x="115" y="423" width="111" height="77">
<ellipse cx="170.205" cy="461.592" rx="54.892" ry="37.9159" fill="#BF8C68"/>
</mask>
<g mask="url(#mask3_502_45)">
<ellipse cx="229.381" cy="454.798" rx="44.6349" ry="41.4226" fill="#854B4B"/>
<ellipse cx="227.689" cy="455.455" rx="10.9333" ry="7.89001" fill="#2D2929"/>
</g>
<path d="M173.681 365.933C173.361 367.173 172.401 367.893 171.361 367.893C170.281 367.893 169.481 367.333 169.201 366.413C169.801 366.093 170.281 365.573 170.441 364.933C170.761 363.693 169.801 362.333 167.681 362.333C165.921 362.333 164.681 363.213 164.321 364.733C163.121 369.573 173.401 369.653 171.561 376.733C170.921 379.253 168.241 381.453 164.401 381.453C159.601 381.453 156.921 378.973 157.721 375.933C158.041 374.653 159.161 373.893 160.321 373.893C161.561 373.893 162.481 374.813 162.641 375.973C161.841 376.133 161.281 376.813 161.201 377.333C160.921 378.853 162.281 379.973 164.441 379.973C166.601 379.973 167.801 378.933 168.201 377.333C169.521 371.893 159.401 371.813 161.081 365.333C161.801 362.613 164.201 360.933 167.841 360.933C171.881 360.933 174.401 363.253 173.681 365.933ZM192.031 371.213C190.351 378.053 190.551 379.493 193.151 379.493L192.911 380.453C191.951 381.053 190.951 381.533 189.631 381.533C187.991 381.533 187.071 380.293 187.351 377.653C185.671 380.253 183.111 381.493 180.711 381.493C177.271 381.493 175.191 379.733 176.511 374.533C178.871 365.213 179.391 362.733 176.791 362.733L177.111 361.373H183.831C182.751 364.293 181.671 368.453 180.191 374.453C179.351 377.813 180.031 379.293 182.151 379.293C184.271 379.293 187.031 377.493 188.671 370.973C190.231 364.773 190.311 362.733 187.551 362.733L187.871 361.373H194.871C193.951 363.893 192.911 367.613 192.031 371.213ZM212.158 365.933C211.838 367.173 210.878 367.893 209.838 367.893C208.758 367.893 207.958 367.333 207.678 366.413C208.278 366.093 208.758 365.573 208.918 364.933C209.238 363.693 208.278 362.333 206.158 362.333C204.398 362.333 203.158 363.213 202.798 364.733C201.598 369.573 211.878 369.653 210.038 376.733C209.398 379.253 206.718 381.453 202.878 381.453C198.078 381.453 195.398 378.973 196.198 375.933C196.518 374.653 197.638 373.893 198.798 373.893C200.038 373.893 200.958 374.813 201.118 375.973C200.318 376.133 199.758 376.813 199.678 377.333C199.398 378.853 200.758 379.973 202.918 379.973C205.078 379.973 206.278 378.933 206.678 377.333C207.998 371.893 197.878 371.813 199.558 365.333C200.278 362.613 202.678 360.933 206.318 360.933C210.358 360.933 212.878 363.253 212.158 365.933ZM226.828 363.013H222.188C222.108 363.373 219.828 372.373 219.028 375.733C218.428 378.253 219.348 379.013 220.468 379.013C221.508 379.013 222.388 378.293 222.948 377.373L223.908 378.133C222.828 380.293 221.308 381.533 219.148 381.533C216.468 381.533 214.188 379.573 215.188 375.613C215.908 372.773 217.228 368.693 218.708 363.013H215.188L215.508 361.653C219.028 361.293 222.148 358.133 223.508 354.453H224.908L222.668 361.373H227.228L226.828 363.013ZM243.546 370.733C241.626 378.253 242.146 379.493 244.586 379.493L244.346 380.453C243.386 381.053 242.386 381.533 241.066 381.533C239.546 381.533 238.666 380.413 238.706 378.413C237.426 380.253 235.706 381.533 233.066 381.533C228.106 381.533 226.186 376.213 227.826 369.813C229.146 364.653 232.506 360.933 237.266 360.933C239.666 360.933 241.546 362.013 242.186 364.533C243.226 363.013 244.306 361.773 244.986 361.213H246.306C245.146 364.533 244.266 367.933 243.546 370.733ZM239.866 371.893C241.266 366.293 240.706 362.693 237.586 362.693C234.746 362.693 233.026 365.973 231.826 370.733C230.506 375.933 230.986 379.733 234.146 379.733C236.746 379.733 238.706 376.493 239.866 371.893ZM255.683 352.973C257.123 352.973 258.083 353.973 258.083 355.413C258.083 357.133 256.723 358.453 255.123 358.453C253.683 358.453 252.723 357.453 252.723 356.013C252.723 354.373 254.003 352.973 255.683 352.973ZM251.643 381.533C249.323 381.533 248.323 380.333 249.363 376.173L250.603 371.213C252.203 364.893 252.323 362.733 249.523 362.733L249.843 361.373H256.883C255.803 364.133 254.803 367.973 254.003 371.213C252.443 377.533 252.283 379.493 255.163 379.493L254.923 380.453C253.963 381.053 252.963 381.533 251.643 381.533ZM276.75 368.493C273.91 377.693 273.99 379.493 276.79 379.493L276.55 380.453C275.63 381.053 274.59 381.533 273.27 381.533C270.99 381.533 269.91 380.333 271.03 376.133L273.23 368.013C274.15 364.613 273.39 363.133 271.27 363.133C269.19 363.133 266.35 364.733 264.67 371.493C263.59 375.853 263.11 378.533 262.79 381.053H258.51C259.31 378.853 260.11 376.293 261.35 371.213C262.91 364.853 263.07 362.733 260.27 362.733L260.59 361.373H267.19L266.23 365.213C268.07 362.173 270.11 360.933 272.91 360.933C276.55 360.933 278.39 363.213 276.75 368.493Z" fill="white"/>
<path d="M96.1668 121.736H98.6268V126.476C98.6268 133.316 96.2868 137.636 91.0668 137.636C83.5068 137.636 81.1668 129.176 76.9068 129.176C76.4868 129.176 76.1268 129.296 75.7668 129.536C77.1468 130.196 78.1668 131.516 78.1668 133.436C78.1668 135.776 76.3668 137.636 74.2068 137.636C72.2268 137.636 69.8868 135.896 69.8868 131.996C69.8868 117.836 90.7068 115.136 90.7068 103.436C90.7068 99.296 87.8868 96.656 84.1668 96.656C80.6868 96.656 78.5268 98.576 78.5268 101.696C78.5268 104.516 80.1468 105.476 81.5868 105.236C81.3468 107.876 79.3668 109.496 76.8468 109.496C74.1468 109.496 71.9268 107.276 71.9268 103.616C71.9268 97.256 77.6868 94.136 84.1668 94.136C92.6268 94.136 97.1868 98.636 97.1868 104.696C97.1868 118.196 74.6868 118.856 72.5868 129.296C72.6468 129.236 72.7668 129.236 72.8268 129.176C73.9068 127.436 75.7068 126.176 78.2268 126.176C83.3868 126.176 86.7468 129.956 91.3068 129.956C94.3068 129.956 96.1668 127.556 96.1668 121.736ZM119.219 94.196C128.879 94.196 134.399 102.476 134.399 114.716C134.399 126.716 128.099 137.636 116.579 137.636C111.299 137.636 106.259 134.996 106.259 130.556C106.259 127.436 108.659 125.156 111.659 125.156C114.359 125.156 116.519 126.716 116.759 129.116C115.439 129.116 113.759 129.896 113.759 131.876C113.759 133.916 115.379 135.056 117.719 135.056C124.619 135.056 127.739 128.096 127.739 115.916V115.796C125.579 119.696 121.379 121.436 117.119 121.436C110.159 121.436 104.399 116.036 104.399 108.356C104.399 99.956 110.519 94.196 119.219 94.196ZM119.219 118.376C124.319 118.376 127.499 114.656 127.499 107.516C127.499 100.436 124.319 96.716 119.219 96.716C114.239 96.716 111.119 100.436 111.119 107.516C111.119 114.656 114.239 118.376 119.219 118.376Z" fill="#906EA7"/>
<path d="M96.1668 121.736H98.6268V126.476C98.6268 133.316 96.2868 137.636 91.0668 137.636C83.5068 137.636 81.1668 129.176 76.9068 129.176C76.4868 129.176 76.1268 129.296 75.7668 129.536C77.1468 130.196 78.1668 131.516 78.1668 133.436C78.1668 135.776 76.3668 137.636 74.2068 137.636C72.2268 137.636 69.8868 135.896 69.8868 131.996C69.8868 117.836 90.7068 115.136 90.7068 103.436C90.7068 99.2963 87.8868 96.6563 84.1668 96.6563C80.6868 96.6563 78.5268 98.5763 78.5268 101.696C78.5268 104.516 80.1468 105.476 81.5868 105.236C81.3468 107.876 79.3668 109.496 76.8468 109.496C74.1468 109.496 71.9268 107.276 71.9268 103.616C71.9268 97.2563 77.6868 94.1363 84.1668 94.1363C92.6268 94.1363 97.1868 98.6363 97.1868 104.696C97.1868 118.196 74.6868 118.856 72.5868 129.296C72.6468 129.236 72.7668 129.236 72.8268 129.176C73.9068 127.436 75.7068 126.176 78.2268 126.176C83.3868 126.176 86.7468 129.956 91.3068 129.956C94.3068 129.956 96.1668 127.556 96.1668 121.736ZM119.219 94.1963C128.879 94.1963 134.399 102.476 134.399 114.716C134.399 126.716 128.099 137.636 116.579 137.636C111.299 137.636 106.259 134.996 106.259 130.556C106.259 127.436 108.659 125.156 111.659 125.156C114.359 125.156 116.519 126.716 116.759 129.116C115.439 129.116 113.759 129.896 113.759 131.876C113.759 133.916 115.379 135.056 117.719 135.056C124.619 135.056 127.739 128.096 127.739 115.916V115.796C125.579 119.696 121.379 121.436 117.119 121.436C110.159 121.436 104.399 116.036 104.399 108.356C104.399 99.9563 110.519 94.1963 119.219 94.1963ZM119.219 118.376C124.319 118.376 127.499 114.656 127.499 107.516C127.499 100.436 124.319 96.7163 119.219 96.7163C114.239 96.7163 111.119 100.436 111.119 107.516C111.119 114.656 114.239 118.376 119.219 118.376Z" fill="#906EA7"/>
</g>
<defs>
<linearGradient id="paint0_linear_502_45" x1="169.227" y1="468.596" x2="169.227" y2="0" gradientUnits="userSpaceOnUse">
<stop stop-color="#92CEFF"/>
<stop offset="1" stop-color="#FFCEFD"/>
</linearGradient>
</defs>
</svg>
