<svg width="1728" height="982" viewBox="0 0 1728 982" fill="none" xmlns="http://www.w3.org/2000/svg">
<path d="M1728 78L1409.79 168L1303.05 279.5H1012.03L972.252 324.5L835.804 391L499.469 377.5L429.986 513L264.336 536.5L120.336 613.5L0 650.5V982H1728V78Z" fill="#3D823A"/>
<path d="M709.5 359.5L658 401H880L861.5 369.5L814.5 332L780.5 352.5L735.5 369.5L709.5 359.5Z" fill="#0F5E08"/>
<path d="M1720.5 216.5L1772 258H1550L1568.5 226.5L1615.5 189L1649.5 209.5L1694.5 226.5L1720.5 216.5Z" fill="#0F5E08"/>
<path d="M1204.07 268.569L1185 286.796L1214.37 307L1293.33 301.949L1333 294.702V279.769L1293.33 268.569L1260.53 251L1228.87 268.569H1204.07Z" fill="#0F5E08"/>
<path d="M1392 169.282L1356 223.5L1475.91 169.282L1744.76 77.8175L1719.26 50.94L1651.63 78.4276L1617.42 71.2825L1565.01 113.634L1468.5 113.634L1440.77 110.703L1424.71 161.488L1392 169.282Z" fill="#023006"/>
<path d="M11.5627 616.301L-24.6889 671.621L186.565 603.387L159.279 579.098L103.028 557.859L76.9743 587.817L39.3778 617.825L11.5627 616.301Z" fill="#023006"/>
<path d="M381 497.056L414.937 540H469.814L500.501 515.33L469.814 523.553L507 427.614L469.814 445.888L423.241 360L414.937 497.056L401.94 445.888V497.056H381Z" fill="#0F5E08"/>
<path d="M371 543.878L390.073 564H420.914L465 523.217L420.914 550.585L454.66 499.562L420.914 487.236L394.74 387V487.236H371L382.768 528.972L371 543.878Z" fill="#FEE702"/>
<path d="M880 813.556L816.316 952H776.429L759 813.556L784.474 865.769L792.518 596L805.255 813.556L832.069 734.444V865.769L880 813.556Z" fill="#0F5E08"/>
<path d="M701 587.778L746.263 643H774.612L787 587.778L768.895 608.605L763.177 501L754.125 587.778L735.066 556.222V608.605L701 587.778Z" fill="#0F5E08"/>
<path d="M1424 926.778L1469.26 982H1497.61L1510 926.778L1491.89 947.604L1486.18 840L1477.12 926.778L1458.07 895.222V947.604L1424 926.778Z" fill="#0F5E08"/>
<path d="M1651 630.778L1568.89 686H1517.47L1495 630.778L1527.84 651.604L1538.21 544L1554.63 630.778L1589.2 599.222V651.604L1651 630.778Z" fill="#0F5E08"/>
<path d="M1720.27 346.361L1680.21 411.689L1662.67 408.675L1667.05 337.219L1673.71 365.596L1700.72 229.533L1687.39 340.714L1706.07 302.66L1694.64 369.192L1720.27 346.361Z" fill="#0F5E08"/>
<path d="M1128.5 292.379L1151.77 273.007L1181.7 254L1200.55 292.379L1229 298.959L1200.55 329.297L1214.96 360L1165.08 350.131L1128.5 360V338.069H1103L1111.87 315.407L1103 298.959L1128.5 292.379Z" fill="#0F5E08"/>
<path d="M645.394 412.522L570 445H895L867.917 420.348L799.11 391L749.336 407.044L683.457 420.348L645.394 412.522Z" fill="#0F5E08"/>
<path d="M1248.89 432.161L1192.08 465.18L1336.95 447.812L1651.18 430.927L1633.86 406.475L1553.24 414.005L1519.85 402.389L1449.99 423.651L1348.7 405.649L1320.63 398.328L1285.95 432.55L1248.89 432.161Z" fill="#023006"/>
</svg>
